<svg xmlns="http://www.w3.org/2000/svg" id="comments" viewBox="0 0 64 64">
  <path d="m57,7H25c-2.76,0-5,2.24-5,5v5H7c-2.76,0-5,2.24-5,5v24c0,2.76,2.24,5,5,5h2.9c.29,0,.56.12.75.33.19.21.28.48.25.75-.23,2.29-.79,3.47-.79,3.47-.17.34-.14.74.09,1.04.19.26.49.41.8.41.05,0,.11,0,.16-.01.22-.04,5.41-.95,6.61-5.23.12-.45.51-.76.96-.76h20.27c2.76,0,5-2.24,5-5v-5h1.27c.45,0,.84.31.97.76,1.18,4.28,6.38,5.19,6.6,5.23.05.01.1.01.16.01.31,0,.61-.15.8-.41.22-.3.26-.7.1-1.03-.01-.02-.57-1.18-.8-3.48-.02-.27.06-.54.25-.75.19-.21.47-.33.75-.33h2.9c2.76,0,5-2.24,5-5V12c0-2.76-2.24-5-5-5Zm-15,39c0,1.65-1.35,3-3,3h-20.27c-1.34,0-2.53.91-2.89,2.22-.49,1.75-2.06,2.74-3.31,3.27.14-.6.27-1.34.36-2.21.08-.83-.19-1.66-.76-2.29s-1.38-.99-2.23-.99h-2.9c-1.65,0-3-1.35-3-3v-24c0-1.65,1.35-3,3-3h32c1.65,0,3,1.35,3,3v24Z"></path>
  <path d="M36 24h-16c-.55 0-1 .45-1 1s.45 1 1 1h16c.55 0 1-.45 1-1s-.45-1-1-1ZM36 30H10c-.55 0-1 .45-1 1s.45 1 1 1h26c.55 0 1-.45 1-1s-.45-1-1-1ZM36 36H10c-.55 0-1 .45-1 1s.45 1 1 1h26c.55 0 1-.45 1-1s-.45-1-1-1ZM26 42H10c-.55 0-1 .45-1 1s.45 1 1 1h16c.55 0 1-.45 1-1s-.45-1-1-1Z"></path>
</svg>
