<?xml version="1.0" encoding="UTF-8"?>
<svg id="Capa_1" data-name="Capa 1" xmlns="http://www.w3.org/2000/svg" viewBox="0 0 223.18 334.56">
  <defs>
    <style>
      .cls-1 {
        fill: #ec008c;
      }

      .cls-2 {
        fill: #231f20;
      }

      .cls-3 {
        fill: #000021;
      }
    </style>
  </defs>
  <path class="cls-1" d="M147.49,234.4s0-.02,0-.03c0-.01,0-.03,0-.04,0,.02,0,.03,0,.07Z"/>
  <path class="cls-1" d="M147.53,234.09c.04-.31.04-.28,0,0h0Z"/>
  <path class="cls-3" d="M205.1,164.15c.36.15.41.17,0,0h0Z"/>
  <path class="cls-3" d="M50.7,227.38s.08-.19.09-.22c-.03.07-.06.15-.09.22Z"/>
  <path class="cls-3" d="M56.35,220.07s.04-.03.06-.04c.1-.08.05-.04-.06.04Z"/>
  <path class="cls-3" d="M50.7,227.38c-.02.06-.04.09-.05.13.02-.04.03-.07.06-.13,0,0,0,0,0,0Z"/>
  <path class="cls-3" d="M176.62,76.46s0,.07-.01.11c0-.01,0-.01,0-.02,0-.03,0-.05.01-.08Z"/>
  <path class="cls-3" d="M176.6,76.57c-.04.28-.03.25,0,0h0Z"/>
  <path class="cls-2" d="M222.75,197.51c-.13,2-.76,3.65-3.16,3.46-1.96-.15-2.88-1.51-2.71-3.36.19-1.99.58-4.1,3.04-4.54,1.64-.3,2.94,1.85,2.83,4.44Z"/>
  <path class="cls-2" d="M10.58,197.51c-.13,2-.76,3.65-3.16,3.46-1.96-.15-2.88-1.51-2.71-3.36.19-1.99.58-4.1,3.04-4.54,1.64-.3,2.94,1.85,2.83,4.44Z"/>
  <g>
    <path class="cls-2" d="M6.21,251.75c-1.16.15-2.12-.57-2.39-1.62-.33-1.42-.5-2.91-.64-4.28-.17-1.28-.38-2.51-.6-3.78-.23-1.35-.71-2.66-.9-4.02-.19-1.61-.64-3.52.61-4.83.93-1,2.25-1.18,3.55-1.45.37-.06.89-.2,1.35-.27.65-.15,1.33-.1,2.03-.22,2.43-.37,4.88-.83,7.25-1.28,2.04-.39,4.06-.44,6.05-.9,1.88-.36,4-1.06,5.82-.02,1.73.97,1.71,2.87,2.01,4.59.29,1.72.59,3.45.76,5.19.19,1.36.37,2.68.6,4.03.19,1.11.74,2.62.39,3.77-.42,1.51-2.7,1.98-3.42.46-.32-.66-.32-1.63-.45-2.37-.24-1.65-.47-3.25-.75-4.89-.24-1.39-.43-2.8-.78-4.09-.68-2.5-2.69-3.38-5.16-2.79-1.18.24-2.3.86-2.93,1.89-.69,1.13-.47,2.44-.26,3.67.18,1.07.49,2.11.53,3.12.05,1.05-.86,1.62-1.82,1.7-.88.07-1.65-.27-1.92-1.11-.41-1.2-.72-2.49-.97-3.72-.29-1.43-.95-2.83-2.43-3.34-.94-.3-2.16-.05-3.12.24-1.44.46-2.35,2.05-2.58,3.43-.29,1.53.33,2.9.53,4.34.14,1.07.31,2.1.41,3.14.13,1.03.42,1.99.69,2.79.2,1.15-.14,2.39-1.45,2.61Z"/>
    <path class="cls-2" d="M17.5,280.81c-1.01.4-2.06-.44-2.25-1.41-.37-1.72,1.01-3.45,1.94-4.77.63-.9,1.16-1.81,1.67-2.75.53-1,1.42-1.75,1.38-2.98-.08-2.64-3.3-2.33-5.15-2.64-1.69-.25-3.42-.2-5.11-.63-1.2-.3-2.55-1.26-2.4-2.67.13-1.17,1.48-1.13,2.34-.99,1.39.21,2.86.56,4.29.75.74.1,1.49.11,2.25.16,1.49.11,3.06.41,4.59.32,2.16-.12,3.61-1.51,4.9-3.06,1.19-1.45,2.07-3.08,3.06-4.66.46-.68,1-1.27,1.51-1.93.53-.72,1.01-1.55,1.59-2.25,1.49-1.78,3.28.68,2.65,2.32-.19.56-.53.9-.87,1.35-.36.5-.65,1.05-1.01,1.55-.72.99-1.26,2.08-1.96,3.12-1.08,1.58-1.58,4,.75,4.72,1.37.45,2.97.32,4.38.56.95.14,1.91.14,2.88.23,1.26.13,2.29.14,2.9,1.42.4.82.44,1.68-.47,2.08-.66.27-1.34.19-2.01.14-1.13-.05-2.29-.05-3.44-.14-1.82-.14-3.62-.51-5.37-.5-1.28.02-2.75-.15-3.95.24-1.55.52-2.26,1.74-3.11,3.03-1.06,1.62-2.24,3.21-3.23,4.89-.42.76-.88,1.53-1.24,2.31-.35.72-.64,1.83-1.5,2.16l-.02.06Z"/>
    <path class="cls-2" d="M61.81,325.52l-.98-.3c-.88-.23-1.68-.43-2.42-.76-.78-.36-1.59-.68-2.29-1.13-.73-.42-1.39-1-2.04-1.52-.75-.6-1.55-1.13-2.19-1.8-.7-.66-1.21-1.49-1.82-2.25-.59-.73-1.12-1.53-1.65-2.33-.5-.77-1.17-1.47-1.68-2.3-.51-.83-.87-1.71-1.35-2.51l-1.41-2.51-.79-1.48c-.49-.92-1.44-1.52-2.48-1.5l-.03-.03c-.65.01-1.66,0-2.56-.12-1.24-.19-3.61-1.34-3.65-1.37l-.5-.24c-1.83-1.04-3.48-2.51-4.51-4.29-1.48-2.62-2-4.9-2.1-7.84-.04-1.42.46-3.31.97-4.55.61-1.43,1.47-2.98,2.34-4.2.93-1.23,2.11-2.31,3.31-3.22,1.25-1.03,2.59-1.45,3.94-2.07.53-.27,1.05-.44,1.6-.48.68-.05,1.37.08,2.07-.05,1.31-.24,2.66-.06,3.97.29,2.78.78,5.23,2.58,7.23,4.75,1.95,2.09,2.15,4.91,2.61,7.67.11.73.22,1.45.04,2.22-.07.69-.47,1.38-.65,2.09-.54,1.81-1.46,3.3-2.63,4.77-1.09,1.37-2.06,2.99-3.55,3.92-.36.25-.89.51-1.39.81-.87.42-1.22,1.53-.74,2.39l.48.86,1.36,2.36,1.33,2.34c.5.77.86,1.59,1.39,2.33.47.75.95,1.55,1.49,2.2.56.77,1.25,1.37,1.86,2.01.63.61,1.24,1.31,1.93,1.85.74.54,1.5.99,2.32,1.42.79.41,1.62.71,2.51.99.46.15.95.28,1.4.37.73.16,1.27.75,1.32,1.48,0,0-.03.03,0,.06,0,1.12-1.02,1.95-2.06,1.65ZM51.66,291.14c.25-1.98-.32-4.14-1.2-5.9-1.93-3.99-6.48-5.22-10.49-4.59-2.03.35-3.86,1.24-5.12,2.89-1.13,1.49-2.37,3.11-3.1,4.82-.03.03,0,.06-.05.12-.53,1.6,1.28,2.4,1.52,2.49.87.32,1.68.7,2.46,1.11.76.45,1.5.93,2.18,1.47.66.58,1.19,1.32,1.76,1.99.61.64,1.18,1.26,1.71,2,.33.32.58.67.86,1.06.91,1.26,2.64,1.63,3.93.68,1.04-.77,2-1.71,2.78-2.68,1.37-1.46,2.51-3.42,2.76-5.46ZM39.11,299.81l-.49-.66c-.58-.67-1.21-1.28-1.81-1.87-.66-.63-1.35-1.24-2.09-1.72l-.03-.03c-.5-.24-1.22-.54-1.25-.57l-.03.03c-1.04-.3-1.91.87-1.43,1.79.19.36.44.78.76,1.19l.68.75c.32.47,1.1.82,1.58,1.15l.5.24c.38.19,1.77.72,2.68.97.75.12,1.29-.68.92-1.29ZM78.42,306.89c-.89,1.05-2.39,2.99-3.33,4.05l-.82.89c-.78.71-1.58,1.78-2.26,2.51-.69.73-1.54,1.54-2.32,1.98-.78.44-1.61.95-2.54,1.12-.78.18-2.25.02-3.16-.18-1.15-.23-2.54-.69-3.44-1.36-.97-.72-2.41-1.92-3.19-2.81-1.22-1.34-2.08-2.99-2.33-4.62-.14-.96-.05-2.01.09-2.85.2-.85.47-1.59.85-2.41.69-1.53,1.95-2.91,2.85-4.11.13-.16.26-.33.4-.43.18-.23,1.64-1.99,1.72-2.09l.52-.65,1.22-1.53c.55-.68,1.15-1.37,1.82-1.95,1.54-1.33,4.09.6,2.99,2.39-.43.67-.95,1.26-1.51,1.83-1.07,1.27-2.67,3.14-3.73,4.48-.54.68-1.37,1.52-1.82,2.28-.62,1.05-1.42,2.11-1.47,3.45.01.65-.22,1.48.07,2.18.34.91,1.05,1.95,1.87,2.66,1.51,1.31,3.72,2.27,5.48,1.87,1.67-.43,2.04-1.03,3.2-2.08.51-.5,1.22-1.47,1.77-2.15l1.48-1.85c.31-.39.71-.76,1.05-1.18.86-1.01,1.54-2.13,2.43-3.12.47-.59,1.12-1.4,1.93-1.28.79.15,1.68.76,1.98,1.52.23.71,0,1.12-.43,1.68-.49.62-.84,1.19-1.37,1.78Z"/>
    <path class="cls-2" d="M77.82,328.9c-.78-1.02.61-1.99.57-3,.15-.48.41-.92.56-1.4.24-.8.77-2.68,1.04-3.68.24-.8.49-1.59.73-2.39.47-1.55,1.12-3.09,1.39-4.7.21-1.24.81-2.36,1.05-3.59.14-.61.39-1.27.58-1.91.24-.8.61-1.99.89-2.77.16-.39.32-.77.44-1.17.18-.6.33-1.38.68-1.92.88-1.47,3.51-.23,3.44,1.27-.03.95-.49,1.76-.8,2.62-.33.94-.7,2.31-1,3.26-.47,1.55-1.11,3.05-1.58,4.6-.57,1.87-1.01,3.73-1.62,5.59-.55,1.66-1.1,3.32-1.73,4.95-.28.78-.47,1.55-.64,2.37-.19.9-.27,2.01-1.12,2.53-.85.52-2.35.02-2.95-.73l.07.06Z"/>
    <path class="cls-2" d="M111.79,327.01c-.3,3.06-2.24,5.71-5.16,6.88-3.09,1.2-7.04.64-10.06-.58-2.62-1.01-4.81-3.36-5.45-6.1-.41-1.71-.52-5.69,2.32-5.24,1.32.22,1.25,1.67,1.28,2.72,0,1.21.18,2.36.84,3.34,1.37,2.18,4.5,3.08,6.84,3.11,2.55,0,5.45-1.46,5.37-4.44-.07-1.85-1.77-3.19-3.14-4.16-1.75-1.3-3.51-2.56-5.27-3.79-1.64-1.17-3.45-2.31-4.48-4.08-1.21-2.09-.7-5.17.78-6.99,1.82-2.33,5.18-3.29,7.99-3.05,4.52.37,9.22,3.13,9.23,8.03-.02,1-.19,2.32-1.34,2.54-1.54.35-2.08-.96-2.29-2.19-.4-2.3-1.66-3.93-3.89-4.61-2.32-.69-7.37-.27-7.14,3.22.14,1.98,1.86,3.15,3.35,4.18,1.76,1.22,3.48,2.44,5.28,3.7.59.39,1.01.81,1.59,1.25,1.01.77,1.95,1.87,2.55,2.93.57.98.91,2.22.79,3.34Z"/>
    <path class="cls-2" d="M120.82,333.81c-1.11-.65-.2-2.07-.62-2.99-.05-.5.03-1.01-.02-1.5-.08-.83-.31-2.77-.45-3.8-.08-.83-.16-1.66-.24-2.49-.16-1.62-.15-3.29-.51-4.88-.28-1.23-.16-2.49-.4-3.72-.1-.62-.13-1.33-.19-1.99-.08-.83-.2-2.07-.24-2.9,0-.42,0-.84-.04-1.25-.06-.62-.22-1.4-.11-2.04.25-1.7,3.15-1.56,3.66-.15.34.89.22,1.82.26,2.73.05,1,.23,2.4.33,3.4.16,1.61.15,3.25.3,4.86.19,1.95.5,3.84.64,5.79.13,1.74.25,3.49.3,5.24.04.83.15,1.62.32,2.44.17.9.52,1.96-.07,2.77-.59.81-2.17.92-3.01.46l.09.03Z"/>
    <path class="cls-2" d="M142.76,316.8c.51,1.59.85,3.22,1.32,4.82.43,1.48.97,3.32,1.44,4.78.33,1.03.76,2.25-.31,2.98-.47.32-1.14.54-1.7.41-.84-.17-1.03-1.03-1.25-1.74-1.08-3.54-2.43-7.48-3.26-11.06-.42-1.74-1.06-3.33-1.68-5.01-.39-1.1-.36-2.77-1.21-3.67-.87-.95-2.32-1.27-3.56-1.18-1.07.08-1.98.5-2.97.82-.71.23-1.77.87-2.56.6-1.47-.49-1.7-2.86-.43-3.66.44-.27,1-.28,1.47-.47.48-.15.89-.37,1.38-.48.89-.24,1.78-.44,2.67-.68,3.09-.85,6.14-1.96,9.19-2.97,1.55-.49,3.15-.79,4.69-1.32,1.3-.46,2.58.27,2.69,1.72.17,2.17-2.99,2-4.39,2.53-1.8.66-3.47,1.45-3.81,3.53-.2,1.29.34,2.86.66,4.11.37,1.98,1.04,3.95,1.67,5.93Z"/>
    <path class="cls-2" d="M181.38,307.61c.63.98.38,2.16-.46,2.85-1.15.89-2.43,1.68-3.61,2.39-1.09.7-2.11,1.41-3.17,2.14-1.13.78-2.12,1.76-3.27,2.51-1.38.85-2.92,2.06-4.64,1.48-1.3-.42-2.02-1.54-2.81-2.61-.21-.31-.55-.73-.81-1.11-.41-.53-.65-1.17-1.05-1.75-1.36-2.04-2.81-4.08-4.21-6.04-1.21-1.69-2.11-3.5-3.37-5.11-1.12-1.55-2.65-3.18-2.47-5.27.15-1.98,1.89-2.76,3.32-3.76,1.44-.99,2.88-1.98,4.39-2.87,1.15-.75,2.27-1.47,3.4-2.25.93-.64,2.06-1.77,3.26-1.94,1.54-.25,2.93,1.62,1.86,2.91-.47.57-1.35.98-1.96,1.4-1.39.91-2.75,1.8-4.12,2.74-1.16.8-2.35,1.57-3.38,2.43-1.98,1.67-1.94,3.86-.36,5.86.72.97,1.75,1.73,2.95,1.86,1.32.15,2.42-.6,3.44-1.31.89-.61,1.71-1.33,2.6-1.79.93-.49,1.84.1,2.31.93.43.77.45,1.61-.2,2.21-.91.88-1.96,1.7-2.96,2.45-1.18.86-2.17,2.05-2.01,3.61.12.98.86,1.98,1.53,2.73,1.02,1.12,2.85,1.27,4.2.89,1.51-.38,2.49-1.52,3.72-2.31.91-.58,1.77-1.17,2.67-1.69.88-.56,1.63-1.23,2.24-1.8.96-.66,2.22-.88,2.98.22Z"/>
    <path class="cls-2" d="M198.24,282.09c.76-.39,1.93-.23,2.44.53.51.75.56,2.05.55,2.91-.03,1.33-.23,2.8-.68,4.05-.61,1.77-1.84,2.97-2.89,4.42-.4.54-.68,1-1.2,1.43-.47.37-.98.65-1.48.93-.95.56-1.82,1.13-2.88,1.49-1.52.52-3.02.94-4.64.94-4.46,0-8.88-2.56-11.59-5.93-2.94-3.61-3.98-8.4-2.87-12.89.42-1.66.88-3.12,1.88-4.51,1.4-1.92,3.21-3.5,5.4-4.49,1.51-.69,4-1.59,5.26.01.46.55.59,1.37.21,2.02-.49.84-1.35.77-2.17.9-2.19.34-3.77,1.19-5.22,2.85-1.48,1.69-2.22,3.94-2.26,6.19-.13,4.94,3.92,9.76,8.46,11.28,2.89.96,7.32.99,9.63-1.31,1.63-1.62,3.01-3.78,3.13-6.12.09-1.4-.82-4,.92-4.72l.03.03Z"/>
    <path class="cls-2" d="M215.55,257.09c1.06.49,1.48,1.62,1.13,2.65-.49,1.37-1.15,2.72-1.77,3.95-.54,1.17-1.03,2.32-1.53,3.5-.54,1.26-.84,2.62-1.42,3.87-.71,1.46-1.36,3.31-3.12,3.73-1.32.34-2.53-.22-3.77-.7-.34-.15-.86-.32-1.28-.5-.63-.22-1.18-.63-1.83-.91-2.24-1-4.55-1.93-6.79-2.84-1.93-.77-3.65-1.82-5.58-2.5-1.78-.71-3.94-1.26-4.91-3.12-.93-1.75.11-3.34.79-4.95s1.37-3.22,2.16-4.77c.57-1.25,1.13-2.45,1.67-3.72.44-1.03.79-2.6,1.71-3.39,1.17-1.04,3.34-.21,3.13,1.46-.09.73-.61,1.55-.9,2.24-.69,1.52-1.36,2.99-2.01,4.52-.55,1.3-1.14,2.59-1.55,3.86-.78,2.47.43,4.3,2.84,5.13,1.13.43,2.4.52,3.48-.01,1.19-.58,1.71-1.8,2.2-2.95.42-1,.73-2.04,1.24-2.91.52-.91,1.6-.9,2.45-.45.77.42,1.24,1.12,1.02,1.97-.3,1.23-.74,2.49-1.19,3.65-.53,1.36-.73,2.9.24,4.12.63.76,1.79,1.21,2.76,1.49,1.46.39,3.08-.45,4.03-1.5,1.07-1.13,1.29-2.61,1.9-3.94.46-.98.87-1.94,1.35-2.86.44-.94.72-1.91.93-2.72.46-1.07,1.41-1.93,2.63-1.41Z"/>
    <path class="cls-2" d="M214.9,227.6c3.05.42,5.62,2.46,6.68,5.42,1.08,3.13.37,7.06-.97,10.03-1.11,2.58-3.54,4.67-6.31,5.21-1.73.35-5.71.3-5.15-2.52.27-1.31,1.72-1.19,2.77-1.17,1.21.04,2.36-.09,3.37-.71,2.23-1.29,3.25-4.38,3.37-6.71.1-2.55-1.25-5.51-4.23-5.54-1.85,0-3.25,1.65-4.28,2.98-1.37,1.7-2.7,3.41-3.98,5.12-1.23,1.59-2.44,3.36-4.25,4.32-2.13,1.13-5.19.5-6.95-1.05-2.25-1.91-3.09-5.3-2.74-8.11.54-4.5,3.49-9.09,8.37-8.92,1,.05,2.31.28,2.49,1.44.29,1.55-1.04,2.04-2.28,2.2-2.31.31-3.99,1.51-4.76,3.71-.78,2.29-.56,7.35,2.94,7.25,1.98-.06,3.22-1.74,4.3-3.18,1.29-1.71,2.57-3.38,3.9-5.13.41-.57.85-.98,1.3-1.54.81-.98,1.94-1.87,3.03-2.44,1-.53,2.25-.82,3.37-.67Z"/>
  </g>
  <g>
    <path class="cls-2" d="M5.53,163.13c.69.02,1.43.17,2.06.46.89.42,1.48.96,1.89,1.54.6.83.75,1.73.75,2.29s.02,1.83.04,2.39c0,.46.06,1.5,1.5,2.06.56.12,1.1.17,1.66.21.54.04,1.12-.08,1.29.58.15.58-.06,1.12-.69,1.14-.75.02-1.48,0-2.23-.04-1.64-.1-3.3.02-4.95,0-1.54-.02-3.08.02-4.59-.02-.69-.02-1.35.04-1.83-.56-.23-.29-.25-.71-.27-1.06-.04-.46-.04-.96-.04-1.41.02-.81.04-1.64.08-2.47.04-.94.21-2.02.73-2.83.08-.17.19-.33.27-.46.02-.04.04-.08.08-.12.21-.29.6-.54.87-.77.37-.31,1.04-.5,1.54-.73.62-.12,1.18-.25,1.83-.19ZM7.61,165.79c-.75-.73-1.71-.89-2.68-.83-.54.04-1.31.06-1.77.35-.44.29-.79.83-1.04,1.29-.12.37-.27.87-.31,1.06-.17.66-.12,1.39,0,2.06.23,1.25,1,2.27,2.33,2.29h2.08c1.81-.17,2.22-1.12,2.25-1.81.02-.48.02-1.29,0-1.77-.04-.96.06-1.77-.87-2.68l.02.04Z"/>
    <path class="cls-2" d="M14.53,146.09c.29.35.31,1.1.04,1.48-.21.27-.58.33-.89.4-.37.06-.79.25-1.14.4-.42.17-.96.4-1.23.77-.52.73-.23,1.73-.33,2.56-.04.42-.04.83-.02,1.25.04.52-.02.98.19,1.46.27.6.94.77,1.46.98.33.12.69.19,1.04.29.29.08.71.15.91.39.27.31.25,1.02,0,1.35-.4.56-1.37-.08-1.85-.25-.54-.19-1.1-.27-1.64-.44-3.04-.89-5.99-1.96-8.96-3.01-.64-.23-1.62-.54-1.85-1.29-.1-.35-.15-1,.12-1.29.17-.19.42-.27.62-.37.31-.15.6-.31.89-.48,1.21-.67,2.41-1.19,3.72-1.64,1.37-.48,2.7-1,4.07-1.43.64-.21,1.29-.42,1.93-.6.29-.08.56-.17.83-.27.17-.06.58-.35.77-.35.4-.08,1-.25,1.31.12ZM9.02,149.71c-.33-.23-.75-.08-1.08.04-.27.1-.52.19-.79.27-.23.06-.46.19-.69.27-.71.27-2.47.52-2.41,1.62.04.56.75.89,1.21,1.06.6.23,1.29.44,1.91.54.58.1,1.35.48,1.91.15.4-.25.44-.94.46-1.37.04-.71.12-2.1-.5-2.58h-.02Z"/>
    <path class="cls-2" d="M10.73,128.9c1.54,0,2.95.83,3.68,2.22.75,1.48.67,3.47.21,5.03-.37,1.35-1.44,2.56-2.77,3.01-.83.29-2.81.54-2.72-.89.04-.67.77-.71,1.29-.77.6-.06,1.16-.21,1.62-.58,1.02-.79,1.31-2.39,1.21-3.55-.12-1.27-1-2.64-2.47-2.45-.92.12-1.5,1.04-1.91,1.77-.56.94-1.1,1.87-1.62,2.81-.5.87-.98,1.83-1.81,2.43-.98.71-2.54.6-3.51-.04-1.25-.79-1.89-2.41-1.91-3.82-.04-2.27,1.1-4.74,3.53-4.99.5-.04,1.16-.02,1.33.54.25.75-.37,1.08-.98,1.25-1.12.31-1.87,1.02-2.1,2.16-.23,1.18.23,3.68,1.96,3.39.98-.17,1.48-1.08,1.91-1.87.52-.94,1.04-1.85,1.58-2.81.17-.31.35-.54.54-.85.33-.54.83-1.06,1.33-1.41.46-.33,1.06-.56,1.62-.56Z"/>
    <path class="cls-2" d="M8.4,115.97c.83,0,1.66.08,2.49.1.77.02,1.73.04,2.49.04.54,0,1.19-.02,1.37.6.08.27.08.62-.06.87-.21.37-.64.33-1.02.33-1.85-.02-3.93.02-5.76-.12-.89-.06-1.75,0-2.64.04-.58.02-1.37-.25-1.93.02-.58.27-.96.92-1.1,1.52-.12.52-.06,1.02-.06,1.54,0,.37.15.98-.1,1.31-.46.62-1.62.37-1.81-.35-.06-.25.02-.52,0-.77,0-.25-.04-.48-.02-.73.02-.46.06-.92.08-1.37.06-1.6,0-3.22-.02-4.82,0-.81.1-1.62.08-2.43-.02-.69.52-1.18,1.23-1.02,1.06.25.5,1.73.54,2.47.04.96.17,1.87,1.1,2.35.58.29,1.41.27,2.06.31,1,.12,2.04.1,3.08.1Z"/>
    <path class="cls-2" d="M15.05,94.32c.57.09.93.58.91,1.12-.05.73-.18,1.46-.31,2.14-.1.64-.18,1.26-.26,1.9-.09.68-.05,1.38-.15,2.06-.14.8-.2,1.78-.99,2.22-.59.35-1.25.24-1.91.18-.19-.02-.46-.04-.68-.07-.33-.02-.65-.15-1-.19-1.21-.17-2.45-.31-3.65-.44-1.03-.11-2.01-.38-3.03-.44-.95-.1-2.07-.07-2.79-.83-.69-.72-.4-1.62-.29-2.49.11-.87.22-1.73.39-2.59.11-.68.21-1.34.3-2.02.07-.56.03-1.36.36-1.86.42-.66,1.58-.56,1.71.28.06.36-.08.83-.13,1.2-.12.82-.25,1.63-.35,2.45-.09.7-.2,1.4-.22,2.07-.04,1.29.8,2.01,2.06,2.08.6.05,1.22-.08,1.67-.48.5-.44.58-1.1.66-1.72.07-.54.07-1.08.2-1.57.13-.51.65-.65,1.12-.55.43.1.75.37.76.81.03.63-.02,1.3-.07,1.92-.07.73.04,1.49.68,1.95.4.28,1.03.34,1.53.34.76,0,1.42-.64,1.73-1.27.36-.69.27-1.43.38-2.15.09-.53.15-1.05.26-1.56.09-.51.09-1.02.08-1.44.07-.58.41-1.12,1.07-1.04Z"/>
    <path class="cls-2" d="M21.58,74.04c.24.28.21.51.09.84-.1.38-.16.76-.31,1.13-.24.64-.42,1.33-.65,1.97-.14.43-.33.92-.51,1.34l-.08.26c-.07.35-.26.7-.35,1l-.59,1.64c-.45,1.16-.78,2.37-1.16,3.56-.2.66-.38,1.74-1.14,1.99-.55.19-1.26-.17-1.8-.33-1.34-.4-2.64-.96-3.98-1.41-.76-.23-1.47-.46-2.19-.73-.41-.16-.84-.32-1.27-.46-.3-.1-.6-.18-.9-.25s-.55-.25-.85-.35c-.47-.16-.94-.33-1.41-.51-.33-.13-.78-.37-.83-.73-.06-.35.22-.85.5-1.04.26-.18.53-.13.8-.09,1.73.4,3.4,1.17,5.04,1.84.68.27,1.4.48,2.11.65.57.14,1.11.41,1.69.52.82.16,1.65-.15,2.27-.69.84-.75,1.13-1.77,1.47-2.78.1-.25.47-1.62.59-1.84.34-.7.52-1.51.77-2.24.08-.26.18-.49.27-.74.21-.63.33-1.27.56-1.9.12-.36.31-.75.68-.92.38-.16.93-.04,1.2.27ZM10.78,79.27c-.4-.13-.8-.24-1.37-.43-.4-.11-.77-.25-1.13-.42-.8-.22-1.67-.44-2.13-1.17-.49-.82-.05-1.64.22-2.45.26-.79.28-.85.58-1.63.03-.08.34-.96.37-1.04.17-.51.29-1.2.65-1.56.53-.53,1.6-.21,1.57.56-.01.37-.24.78-.35,1.11l-.63,1.76-.21.76c-.23,1.09-.63,1.57.26,1.93.55.14.91.23,1.36-.14.36-.3.52-1.12.76-1.7.17-.45.29-.95.51-1.41.24-.45.74-.46,1.14-.28.38.17.61.47.52.87-.14.61-.31,1.19-.5,1.76-.22.67-.47,1.29-.12,1.69.13.13.32.28.56.43.89.08,1.11-.38,1.37-.9.23-.49.32-1.03.44-1.54.05-.16.09-.34.14-.5.07-.15.19-.38.24-.53.11-.34.2-.66.31-.99.17-.51.58-.97,1.18-.77.51.19.75.71.63,1.21-.18.67-.44,1.32-.69,1.94-.05.16-.1.32-.18.47-.2.61-.27,1.27-.49,1.87-.28.72-.52,1.65-1.33,1.9-.62.21-1.22-.01-1.8-.18-.22-.05-.49-.12-.68-.18-.16-.03-1.05-.39-1.2-.46Z"/>
    <path class="cls-2" d="M28.24,59.45c.26,0,.65-.13,1,.21.36.88-.12,1.42-.86,1.47-.88.07-2.15.16-2.9.21-1.04.1-2.03.07-2.59,1.1-.08.15-.22.35-.3.48-.65,1.14.37,2.08,1.11,2.55.31.2,1.39.72,1.59,1.03.24.33.26.72,0,1.05-.17.21-.49.44-.77.38-.15-.04-.27-.15-.38-.22-.25-.15-.53-.25-.79-.38-.66-.31-1.29-.71-1.92-1.07-.65-.37-1.23-.82-1.87-1.21-.91-.54-1.86-1.06-2.77-1.61-.89-.53-1.83-.95-2.68-1.48-.3-.19-.58-.41-.86-.63-.38-.34-.45-.81-.36-1.31.12-.67.54-1.27.85-1.86.37-.7,1.29-2.18,1.76-2.83.54-.74,1.24-1.42,2.09-1.78,1.08-.42,2.17-.1,3.16.34.91.42,2.1,1.27,2.68,2.11,1.01,1.46.56,3.34,1.48,3.53.71.14,1.92-.05,2.64-.1.3-.02.37-.03.65-.01l.04.02ZM22.16,57.63c-.77-1.5-2.72-2.49-4.34-1.93-.61.23-1.07.78-1.4,1.31-.28.44-1.09,1.7-1.17,2.25-.19,1.3,1.23,2.12,2.21,2.63.59.31,1.63.96,2.35.88.66-.06,1.46-.58,2.06-1.63.3-.52.67-1.17.7-1.81.02-.61-.16-1.24-.42-1.77l.02.06Z"/>
    <path class="cls-2" d="M20.66,42.09c-.14-.37-.07-.39-.2-.78-.11-.27-.06-.67.13-.92.15-.2,0,0,.16-.22.16-.22.2-.19.37-.42.18-.23.55-.1.59.22.09.33.05.38.1.73.05.35,0,.05.04.4.09.33.02.38.09.75.05.35,0,.1.05.45.07.29.04.74-.15.99-.06.08-.02-.01-.08.07-.19.25-.55.24-.64-.05-.12-.36-.08-.14-.19-.51l-.27-.7ZM33.88,53.48c-.61.19-.83-.63-1.31-.79-.2-.15-.36-.35-.56-.5-.33-.25-1.12-.83-1.55-1.13-.33-.25-.66-.5-.99-.76-.65-.49-1.26-1.06-1.97-1.47-.55-.31-.97-.79-1.5-1.12-.26-.17-.53-.4-.8-.61-.33-.25-.83-.63-1.15-.9-.15-.14-.31-.29-.47-.41-.25-.19-.59-.4-.79-.65-.54-.67.5-1.69,1.19-1.39.44.18.74.54,1.09.83.38.32.96.73,1.36,1.03.65.49,1.24,1.05,1.89,1.54.78.59,1.58,1.12,2.35,1.73.68.55,1.37,1.09,2.02,1.67.32.27.65.49,1,.71.39.24.9.47.99.96.1.49-.4,1.11-.85,1.26l.04-.02Z"/>
    <path class="cls-2" d="M47.19,38.74c-.05.46-.56,1-1.02,1.07-.34.04-.65-.18-.91-.36-.31-.22-.73-.38-1.09-.53-.41-.18-.95-.4-1.41-.33-.88.14-1.39,1.06-2.05,1.57-.32.26-.62.56-.9.87-.34.4-.71.67-.9,1.16-.24.62.11,1.21.33,1.72.15.32.35.62.53.94.15.27.4.6.36.93-.03.41-.55.9-.96.95-.68.12-.91-1.03-1.13-1.49-.25-.52-.59-.97-.85-1.47-1.51-2.78-2.84-5.63-4.18-8.49-.29-.62-.76-1.53-.39-2.22.18-.32.61-.81,1-.82.25-.01.48.1.7.18.32.12.65.21.97.3,1.32.39,2.54.88,3.79,1.48,1.31.64,2.61,1.21,3.89,1.88.6.31,1.2.62,1.79.95.26.15.51.28.78.4.16.07.66.16.79.3.34.22.88.53.83,1.02ZM40.74,37.38c-.07-.4-.47-.59-.79-.74-.26-.12-.5-.24-.75-.37-.21-.12-.46-.19-.68-.3-.69-.31-2.11-1.39-2.85-.57-.37.43-.11,1.16.1,1.6.26.59.6,1.22.97,1.74.34.49.61,1.3,1.25,1.46.46.1.97-.35,1.3-.64.53-.47,1.58-1.39,1.48-2.17h-.01Z"/>
    <path class="cls-2" d="M68.15,20.35c.74,1.35.68,2.99-.2,4.3-.94,1.36-2.74,2.24-4.32,2.59-1.37.32-2.93-.04-3.97-.99-.65-.59-1.82-2.21-.52-2.82.61-.28.99.34,1.29.77.34.5.74.92,1.29,1.15,1.18.52,2.73,0,3.7-.64,1.06-.72,1.84-2.14.98-3.35-.55-.74-1.63-.82-2.47-.84-1.09-.05-2.17-.07-3.24-.08-1.01-.02-2.08.02-3-.43-1.09-.52-1.74-1.94-1.64-3.11.1-1.47,1.22-2.82,2.45-3.51,1.97-1.12,4.7-1.3,6.08.72.28.42.57,1.01.16,1.43-.54.58-1.13.19-1.56-.26-.81-.84-1.79-1.16-2.9-.81-1.15.36-3.13,1.96-2.05,3.34.61.78,1.66.78,2.56.79,1.07.01,2.12.03,3.22.05.35,0,.64.05,1.01.07.63.03,1.33.23,1.88.49.51.24,1,.66,1.27,1.16Z"/>
    <path class="cls-2" d="M86.32,17.64c-.24.39-.95.64-1.39.51-.32-.11-.5-.45-.66-.72-.18-.34-.49-.67-.74-.96-.29-.34-.68-.78-1.12-.92-.86-.26-1.71.33-2.53.49-.41.09-.8.22-1.19.37-.48.2-.93.29-1.32.64-.49.45-.43,1.13-.47,1.69-.01.35.04.71.05,1.08.01.3.09.72-.09.99-.21.36-.89.56-1.28.43-.66-.2-.35-1.33-.35-1.84,0-.57-.09-1.13-.1-1.7-.11-3.16-.04-6.3.03-9.46.01-.68,0-1.71.64-2.16.3-.21.9-.45,1.26-.29.23.1.39.31.55.47.24.25.49.47.74.7,1.01.94,1.89,1.92,2.74,3.02.89,1.15,1.8,2.25,2.65,3.42.4.55.8,1.09,1.18,1.65.17.25.34.48.52.7.11.14.52.44.58.62.2.35.55.87.29,1.28ZM81.14,13.55c.11-.39-.16-.74-.38-1.01-.18-.22-.34-.43-.51-.67-.13-.2-.32-.37-.47-.57-.48-.59-1.28-2.18-2.3-1.78-.52.22-.61.99-.63,1.48-.03.64,0,1.36.09,1.99.09.59-.03,1.43.47,1.86.36.3,1.03.12,1.45,0,.68-.18,2.03-.55,2.29-1.29v-.02Z"/>
    <path class="cls-2" d="M108.31,12.83c.3.26.41.73.25,1.1-.15.33-.38.38-.73.44-.37.06-.76.17-1.13.21l-2.11.19c-.46.03-.92.14-1.4.18l-1.16.13c-.51.1-1.09.14-1.38.17-.56.04-1.14.11-1.7.13-1.24.1-2.48.29-3.71.45-.68.1-1.74.36-2.28-.21-.4-.42-.36-1.21-.45-1.77-.19-1.38-.23-2.8-.38-4.2-.1-.74-.19-1.51-.25-2.27-.03-.46-.04-.89-.11-1.35-.03-.31-.09-.62-.14-.93-.05-.31,0-.61-.04-.92-.05-.5-.09-.99-.12-1.49-.02-.35-.01-.86.32-1.08.29-.18.86-.14,1.15.04.27.16.34.42.41.69.36,1.74.35,3.58.42,5.35.04.73.14,1.45.28,2.14.09.6.09,1.2.24,1.77.2.81.83,1.44,1.58,1.77.59.25,1.16.31,1.73.31.23-.02.46-.03.7-.06.31-.01.6-.05.91-.08.66-.07,1.43-.14,2.09-.21.21,0,.81-.09,1.29-.06.31-.03.64-.09.99-.15.27-.05,1.39-.11,1.66-.14.66-.07,1.33-.27,1.99-.35.39-.04.79-.07,1.09.19ZM107.49,1.94c.05.68.15,1.36.19,2.07l.03.6c-.03.53.05,1.06.07,1.56s0,1.09-.12,1.52-.24.9-.51,1.29c-.21.34-.79.8-1.18,1.05-.49.33-1.12.63-1.68.71-.6.09-1.55.17-2.14.13-.9-.05-1.79-.3-2.45-.8-.39-.29-.73-.69-.97-1.04-.23-.37-.39-.73-.54-1.15-.3-.78-.32-1.6-.43-2.34-.01-.1-.02-.21-.01-.29-.02-.15-.06-.75-.07-.81-.02-.15-.03-.29-.05-.41l-.11-.97c-.05-.43-.08-.89-.04-1.33.08-1.01,1.66-1.23,1.9-.21.09.39.11.78.11,1.18.07.83.08,1.52.18,2.37.05.43.04.89.15,1.32.15.59.26,1.25.72,1.74.23.23.45.51.8.66.44.2,1.04.34,1.58.31,1-.07,2.12-.44,2.61-1.21.44-.74.36-1.09.4-1.86,0-.36-.07-.83-.12-1.26-.02-.17-.05-.48-.07-.64-.03-.25-.02-.52-.05-.79-.05-.66-.21-1.29-.24-1.96-.04-.37-.1-.89.23-1.13.33-.22.86-.33,1.24-.16.33.17.4.4.44.75.04.39.12.72.14,1.11Z"/>
    <path class="cls-2" d="M127.42,6.16c.2,1.15-.02,2.4-.28,3.52-.18,1.88-1.06,3.6-2.77,4.52-.24.14-.51.28-.77.38-.43.17-.77.41-1.24.47-.95.14-1.86.24-2.82.02-.69-.15-1.41-.28-2.14-.35-.54-.05-1.53.08-1.81-.53-.2-.52-.04-1.28,0-1.82.04-.48.09-.97.2-1.46.24-.94.2-1.88.4-2.82.15-.67.22-1.38.31-2.08.09-.72.21-1.48.23-2.21.03-.79.01-1.63.26-2.44.26-.75.77-1.07,1.56-1.04.44.02.89.07,1.34.13,1.03.12,2.09.39,3.08.76.73.28,1.28.64,1.85,1.2.61.56,1.18.95,1.57,1.7.38.64.85,1.4.98,2.14l.03-.08ZM125.44,8.7c.15-1.32.16-2.76-.62-3.9-.28-.76-1.2-1.39-1.81-1.8-.84-.58-1.99-.86-2.94-.3-.71.41-1.18,1.14-1.44,1.91-.12.34-.19.65-.22.98-.07.54-.19,1.07-.24,1.61-.1.99-.23,1.98-.37,2.95-.13.95-.14,1.89.52,2.62.64.69,1.75.94,2.66.8,1.06-.17,2.14-.52,3-1.21,1.05-.88,1.33-2.34,1.48-3.64h-.02Z"/>
    <path class="cls-2" d="M143.17,19.53c-.42.18-1.15,0-1.43-.36-.2-.27-.16-.65-.14-.97.04-.38-.03-.83-.07-1.21-.05-.44-.12-1.03-.41-1.39-.56-.7-1.6-.68-2.37-1.01-.39-.15-.79-.26-1.2-.36-.51-.1-.93-.28-1.45-.21-.65.1-.99.69-1.33,1.14-.21.29-.36.61-.56.92-.16.26-.33.64-.63.77-.37.18-1.05-.03-1.3-.36-.43-.53.45-1.3.74-1.72.33-.47.56-.99.86-1.46,1.68-2.68,3.49-5.24,5.31-7.82.39-.56.96-1.42,1.74-1.44.37,0,1,.13,1.21.47.13.21.15.47.19.7.05.34.14.66.22.99.32,1.34.49,2.64.58,4.03.09,1.45.24,2.87.29,4.31.03.68.05,1.35.06,2.02,0,.3.01.59.04.87.02.18.18.66.13.84-.03.4-.03,1.03-.47,1.23ZM141.16,13.25c.31-.26.28-.7.25-1.05-.03-.29-.04-.55-.05-.83,0-.24-.06-.49-.08-.73-.07-.75.16-2.52-.91-2.76-.55-.11-1.06.48-1.34.88-.38.52-.77,1.12-1.03,1.7-.26.53-.82,1.17-.65,1.8.13.45.78.67,1.2.81.67.23,1.99.68,2.62.21v-.02Z"/>
    <path class="cls-2" d="M162.34,23.16c-.2.55-.54.96-.91,1.41-.31.38-.64.68-1.09.85-.31.12-.7.33-1.07.38-.15.02-.27-.02-.41-.02-.25,0-.49.01-.76,0-1.07,0-2.06-.25-3.01-.72-.58-.29-1.11-.62-1.66-.92-1.03-.58-2.22-.91-3.12-1.71-.35-.31-.61-.74-.44-1.22.17-.52.5-1.01.71-1.48.43-.97,1.1-1.84,1.59-2.79.25-.46.57-.92.77-1.41.15-.34.28-.67.44-.99.34-.74.71-1.48,1.07-2.21.3-.6.64-1.19.96-1.75.3-.52.73-.82,1.35-.8.75.07,1.53.53,2.2.86.47.23.98.46,1.44.74.45.27.96.55,1.33.92.34.35.51.79.75,1.21.15.26.31.55.39.84.23.74.15,1.66-.3,2.29-.28.37-.79.65-.93,1.09-.11.32.1.63.27.9.42.79.95,1.68.99,2.6,0,.65-.3,1.41-.56,1.97v-.05ZM160.44,22.79c.45-.77.55-1.86.21-2.71-.39-.94-1.49-1.62-2.35-2.09-.43-.26-.88-.39-1.33-.59-.35-.15-.69-.39-1.04-.52-.67-.24-1.79-.1-2.19.54-.5.87-1.15,1.8-1.15,2.84,0,1.13.8,2.04,1.66,2.65.98.74,2.28,1.29,3.52,1.33.55.02,1.26-.02,1.76-.27.46-.26.68-.73.94-1.16v-.03ZM156.21,12.55c-.42.84-.86,1.69-.14,2.53.34.35.74.57,1.17.79.49.27,1.05.59,1.6.75,1.23.33,2.34-.37,2.42-1.7.07-1.22-1.14-2.24-2.16-2.67-.97-.43-2.3-.84-2.92.32h.03Z"/>
    <path class="cls-2" d="M177.36,39.46c-.34.13-.54.02-.82-.2-.33-.23-.66-.41-.96-.67-.53-.44-1.11-.84-1.64-1.28-.36-.28-.76-.62-1.09-.93l-.21-.17c-.3-.19-.58-.48-.82-.67l-1.35-1.11c-.94-.82-1.96-1.54-2.96-2.29-.55-.41-1.51-.94-1.49-1.75,0-.58.59-1.12.92-1.58.83-1.12,1.8-2.16,2.67-3.27.47-.63.93-1.22,1.42-1.82.28-.33.58-.68.87-1.04.19-.25.37-.5.54-.76.18-.26.42-.44.61-.68.31-.39.63-.77.96-1.15.23-.27.61-.61.97-.53.35.06.73.49.81.82.08.3-.05.54-.19.78-.96,1.49-2.25,2.81-3.44,4.12-.48.55-.93,1.15-1.33,1.76-.33.48-.76.91-1.06,1.42-.43.72-.41,1.61-.11,2.37.42,1.05,1.28,1.67,2.12,2.32.2.18,1.37.99,1.54,1.18.54.56,1.25,1,1.85,1.48.21.17.4.34.61.5.52.41,1.08.74,1.59,1.17.29.23.6.55.63.94.02.41-.28.89-.66,1.04ZM176.08,27.52c.26-.33.5-.67.87-1.14.24-.34.5-.64.78-.92.48-.68.98-1.42,1.82-1.61.94-.19,1.56.51,2.23,1.03.66.51.7.55,1.33,1.1.07.05.79.64.86.7.42.33,1.03.67,1.25,1.14.32.67-.34,1.58-1.06,1.28-.34-.14-.65-.48-.93-.7l-1.45-1.19-.65-.46c-.94-.58-1.26-1.12-1.9-.41-.31.47-.53.77-.33,1.33.16.44.88.87,1.34,1.29.36.31.8.6,1.15.96.34.37.18.85-.13,1.17-.29.3-.64.42-1,.2-.53-.34-1.02-.69-1.49-1.06-.56-.44-1.05-.88-1.55-.69-.17.08-.37.21-.59.38-.37.82-.02,1.17.39,1.6.39.38.86.65,1.3.94.13.1.29.2.42.3.12.12.29.31.42.41.28.22.55.41.83.62.42.33.71.88.33,1.37-.35.41-.92.47-1.36.18-.56-.39-1.1-.86-1.59-1.3-.13-.1-.26-.21-.38-.32-.51-.4-1.11-.68-1.6-1.09-.58-.51-1.37-1.05-1.34-1.9.01-.65.42-1.15.78-1.64.12-.19.27-.42.4-.58.09-.14.73-.86.85-.98Z"/>
    <path class="cls-2" d="M199.21,59.38c-.45.38-.95.57-1.48.79-.45.18-.89.28-1.37.21-.34-.05-.77-.05-1.12-.2-.14-.06-.23-.15-.35-.22-.22-.13-.44-.23-.66-.38-.94-.52-1.67-1.23-2.27-2.1-.36-.53-.66-1.08-1-1.61-.62-1.01-1.49-1.88-1.89-3.02-.16-.45-.17-.94.21-1.28.4-.37.93-.63,1.34-.94.85-.63,1.86-1.07,2.75-1.65.44-.28.95-.53,1.36-.85.3-.23.58-.45.87-.64.66-.48,1.34-.95,2.02-1.4.55-.38,1.14-.73,1.69-1.06.52-.31,1.04-.36,1.56-.04.62.43,1.08,1.2,1.5,1.82.29.43.63.88.9,1.35.26.45.57.94.72,1.45.12.47.06.94.06,1.42,0,.3,0,.63-.07.93-.16.76-.67,1.52-1.38,1.85-.43.19-1.01.18-1.35.49-.25.22-.22.6-.2.92-.02.89.01,1.93-.41,2.75-.32.57-.95,1.08-1.45,1.45l.02-.04ZM197.72,58.13c.77-.45,1.39-1.35,1.5-2.26.11-1.01-.51-2.15-1.03-2.98-.25-.44-.57-.77-.87-1.17-.23-.3-.41-.68-.66-.96-.47-.54-1.51-.96-2.18-.6-.86.51-1.88,1.01-2.39,1.92-.56.99-.3,2.17.15,3.13.49,1.13,1.36,2.25,2.42,2.88.47.28,1.12.6,1.66.63.53,0,.95-.3,1.39-.55v-.03ZM199.04,47.12c-.77.53-1.57,1.05-1.36,2.14.12.47.36.86.63,1.26.3.48.63,1.03,1.03,1.44.91.89,2.23.82,2.95-.3.66-1.03.1-2.51-.58-3.39-.63-.85-1.6-1.86-2.7-1.15h.03Z"/>
    <path class="cls-2" d="M214.1,70.75c-.53-.06-1.06-.11-1.58-.1-.2,0-.44-.07-.66-.09-.38-.03-.76-.07-1.12-.11-.86-.09-1.75-.14-2.61-.32-.43-.1-.84-.23-1.32-.24-.58-.01-1.16.07-1.69.29-.87.35-1.78.61-2.64.98-.34.16-.68.31-1,.5-.29.18-.68.42-1.03.31-.42-.13-.86-.77-.76-1.21.11-.42.54-.61.89-.75.33-.13.64-.29.98-.42.39-.15.77-.35,1.14-.56.45-.27.98-.4,1.47-.65.42-.22.82-.6,1.13-.97.77-.88,1.47-1.88,2.11-2.88.37-.58.74-1.23,1.14-1.8.26-.37.58-.72.85-1.09.2-.27.37-.6.61-.81.26-.23.59-.27.88-.08.45.28.59.69.4,1.17-.12.33-.35.59-.53.88-.23.36-.44.73-.71,1.05-.48.61-.94,1.14-1.32,1.81-.24.43-.56.78-.55,1.3,0,.39.19.76.47,1.02.52.49,1.21.45,1.88.51.81.07,1.61.18,2.41.27.29.03.57.1.87.15.37.06.77.18,1.03.45.26.27.4.78.15,1.12-.21.28-.62.28-.94.25h.07Z"/>
    <path class="cls-2" d="M209.57,101.64c-.29.15-.96.29-1.22.01-.35-.35-.33-1.04-.38-1.52-.06-.56-.15-1.13-.21-1.69-.14-1.24-.39-2.46-.6-3.7-.12-.68-.45-1.72.1-2.29.4-.42,1.2-.43,1.75-.54,1.39-.25,2.79-.33,4.18-.56.76-.11,1.5-.22,2.26-.32.46-.05.91-.07,1.37-.14.31-.05.61-.11.92-.18.3-.07.61-.03.91-.07.49-.07.99-.13,1.49-.18.35-.03.86-.04,1.09.28.21.28.19.86.02,1.15-.15.25-.41.36-.69.42-1.72.45-3.56.49-5.33.63-.73.07-1.42.19-2.13.34-.57.13-1.18.13-1.74.3-.8.25-1.4.9-1.71,1.66-.44,1.14-.16,2.28-.01,3.43.08.66.18,1.32.25,1.98.05.35.05.75-.3.93l-.03.05Z"/>
    <path class="cls-2" d="M208.79,119.54c-.29-.35-.31-1.1-.04-1.48.21-.27.58-.33.89-.4.38-.06.79-.25,1.14-.4.42-.17.96-.4,1.23-.77.52-.73.23-1.73.33-2.56.04-.42.04-.83.02-1.25-.04-.52.02-.98-.19-1.46-.27-.6-.94-.77-1.45-.98-.33-.12-.69-.19-1.04-.29-.29-.08-.71-.15-.91-.39-.27-.31-.25-1.02,0-1.35.39-.56,1.37.08,1.85.25.54.19,1.1.27,1.64.44,3.03.89,5.99,1.96,8.96,3.01.64.23,1.62.54,1.85,1.29.1.35.14,1-.13,1.29-.16.19-.41.27-.62.37-.31.15-.6.31-.89.48-1.2.67-2.41,1.19-3.72,1.64-1.37.48-2.7,1-4.07,1.43-.64.21-1.29.42-1.93.6-.29.08-.56.17-.83.27-.17.06-.58.35-.77.35-.4.08-1,.25-1.31-.12ZM214.3,115.92c.33.23.75.08,1.08-.04.27-.1.52-.19.79-.27.23-.06.46-.19.69-.27.71-.27,2.47-.52,2.41-1.62-.04-.56-.75-.89-1.21-1.06-.6-.23-1.29-.44-1.91-.54-.58-.1-1.35-.48-1.91-.15-.39.25-.44.94-.46,1.37-.04.71-.12,2.1.5,2.58h.02Z"/>
    <path class="cls-2" d="M217.89,126.02c.4-.02.79.04,1.19.06.25.1.6,0,.87,0h1.12c.44,0,.89.02,1.33.1.98.19,1.02,1.79,0,1.91-.39.04-.79,0-1.18-.02-.71-.04-1.41-.04-2.12-.08-.33-.02-.66-.02-1-.02-.37,0-.75-.06-1.12-.04-.66.02-1.37-.04-2.02.06-.85.15-1.74.35-2.49.79-.39.23-.81.48-1.1.83-.37.46-.64,1.04-.77,1.62-.25,1.08.02,2.22,1,2.85.87.54,1.98.67,2.99.71.71.04,1.43-.02,2.14.06.77.1,1.56.06,2.33.08.27,0,.54.02.81.02.66,0,1.31-.08,1.97-.08.37,0,.81.06,1.08.37s.33.87.13,1.23c-.19.33-.42.35-.77.35-.4.02-.77.08-1.16.06-.69-.02-1.37.02-2.06,0-.46-.02-.92-.1-1.37-.15-.5-.04-.98.04-1.47-.02-.75-.08-1.46-.02-2.2-.04-.62,0-1.29-.17-1.89-.35-.56-.17-1.1-.42-1.6-.75-.44-.29-.77-.79-1.04-1.23-.35-.56-.65-1.18-.83-1.83-.19-.62-.12-1.37.04-2.02.27-.98.83-2.04,1.56-2.77.19-.21.5-.35.73-.52.25-.19.52-.31.81-.42.58-.23,1.16-.44,1.77-.58,1.08-.27,2.16-.17,3.26-.19.35,0,.69-.06,1.04-.08l.04.06Z"/>
    <path class="cls-2" d="M209.95,153.19c-.23.12-.5.44-.98.31-.75-.58-.6-1.29.02-1.71.73-.5,1.79-1.21,2.41-1.62.85-.6,1.73-1.06,1.71-2.25,0-.17.02-.42.02-.56,0-1.31-1.35-1.62-2.22-1.66-.37-.02-1.56.06-1.89-.1-.37-.17-.58-.5-.52-.92.04-.27.21-.62.48-.71.15-.04.31,0,.44,0,.29,0,.58-.04.87-.06.73-.06,1.47-.02,2.2-.02s1.47.1,2.22.12c1.06.02,2.14,0,3.2.02,1.04.02,2.06-.08,3.06-.04.35.02.71.06,1.06.12.5.1.79.48.96.96.23.64.17,1.37.19,2.04.02.79-.04,2.54-.12,3.33-.11.92-.38,1.85-.94,2.58-.73.89-1.83,1.16-2.91,1.27-1,.08-2.45-.06-3.37-.5-1.6-.77-2.14-2.62-3.03-2.33-.69.23-1.64,1-2.24,1.39-.25.17-.31.21-.56.33h-.04ZM216.13,151.76c1.41.91,3.6.81,4.72-.48.41-.5.54-1.21.56-1.83.02-.52.1-2.02-.1-2.54-.48-1.23-2.12-1.23-3.22-1.18-.67.02-1.89-.02-2.47.4-.54.37-.98,1.23-.98,2.43,0,.6,0,1.35.29,1.91.29.54.75,1,1.25,1.33l-.04-.04Z"/>
    <path class="cls-2" d="M208.79,172.44c-.29-.35-.31-1.1-.04-1.48.21-.27.58-.33.89-.4.38-.06.79-.25,1.14-.4.42-.17.96-.4,1.23-.77.52-.73.23-1.73.33-2.56.04-.42.04-.83.02-1.25-.04-.52.02-.98-.19-1.46-.27-.6-.94-.77-1.45-.98-.33-.12-.69-.19-1.04-.29-.29-.08-.71-.15-.91-.4-.27-.31-.25-1.02,0-1.35.39-.56,1.37.08,1.85.25.54.19,1.1.27,1.64.44,3.03.89,5.99,1.95,8.96,3.01.64.23,1.62.54,1.85,1.29.1.35.14,1-.13,1.29-.16.19-.41.27-.62.37-.31.15-.6.31-.89.48-1.2.67-2.41,1.19-3.72,1.64-1.37.48-2.7,1-4.07,1.43-.64.21-1.29.42-1.93.6-.29.08-.56.17-.83.27-.17.06-.58.35-.77.35-.4.08-1,.25-1.31-.12ZM214.3,168.82c.33.23.75.08,1.08-.04.27-.1.52-.19.79-.27.23-.06.46-.19.69-.27.71-.27,2.47-.52,2.41-1.62-.04-.56-.75-.89-1.21-1.06-.6-.23-1.29-.44-1.91-.54-.58-.1-1.35-.48-1.91-.15-.39.25-.44.94-.46,1.37-.04.71-.12,2.1.5,2.58h.02Z"/>
  </g>
  <path class="cls-1" d="M118.94,168.24c-1.56.16-2.9.13-4.21.67-.91.37-1.85.68-2.85.74-.89.06-1.69-.13-2.36-.77-.83-.8-.91-1.52-.15-2.4.67-.77,1.35-1.54,2.27-2.16-3.52-1.34-2.81-3.51-1.2-5.47-1.7-1.61-1.76-2.09-.5-3.95-4.2-2.94-6.33-7.4-8.63-11.74-2.45-4.63-3.37-9.79-5.01-14.7-.99-2.98-1.81-6.04-2.99-8.94-1.33-3.26-1.96-6.68-2.87-10.04-.68-2.52-1.53-5.02-1.99-7.58-.72-3.98-1.48-7.97-.78-12.07.35-2.06.35-4.15.75-6.22.47-2.43,1.63-4.56,2.38-6.86,1.77-5.43,5.01-10.05,8.43-14.54.48-.63.93-1.27,1.37-1.92,1.38-2.1,3.32-3.33,5.8-3.64,1.42-.18,2.79-.68,4.27-.58.54.04,1.22-.2,1.66-.54,1.36-1.04,2.88-1.02,4.44-.91.26.02.54.08.79.02,3.28-.86,5.82.31,8.18,2.61,3.54,3.46,6.26,7.37,7.83,12.1,2.07,6.27,3.24,12.69,3.7,19.26.08,1.17.69,2.32.66,3.47-.12,4.78.28,9.55-.63,14.34-.57,2.99-1.37,5.98-1.51,9.08-.11,2.38-.81,4.73-1.51,7.04-.16.52-.21,1.02-.27,1.54-.17,1.37-.3,2.77-1.11,3.95-.49.7-.31,1.54-.62,2.26-2.08,4.75-3.44,9.78-5.89,14.38-1.76,3.32-3.73,6.47-6.14,9.35-.89,1.06-.85,1.36.08,2.5.42.52.79,1.07.99,1.7.35,1.11.39,2.1-.74,2.97-1.36,1.04-1.34,1.45-.53,3.02.24.47.61.87.82,1.35.59,1.34.75,2.83-.26,3.92-1.67,1.81-1.48,3.87-1.13,5.93.6,3.52.77,7.04.64,10.59-.02.45-.17.9-.23,1.35-.08.65-.28,1.33-.19,1.95.62,3.97.73,7.99.8,11.96.05,2.99.36,5.99.21,9.01-.12,2.51-.1,5.08.05,7.63.14,2.41.58,4.81.45,7.24-.08,1.6.61,3.07.88,4.61.61,3.36,1.06,6.74,1.58,10.12.51,3.3,1.04,6.61,1.6,9.91.96,5.62,1.53,11.28.09,17-.76,3.03-1.92,5.7-4.03,7.98-.5.54-1.01,1.01-1.7,1.3-4.15,1.71-7.97.67-11.27-1.9-1.64-1.27-2.61-3.29-3.1-5.54-1.1-5.08-.29-10.05.42-15.03.71-4.98,1.13-9.99,1.62-14.99.47-4.75,1.03-9.51,1.99-14.2.2-.96.25-1.95.35-2.93.51-5.02,1.39-10,1.84-15.03.49-5.5.44-11,.57-16.51.09-3.61-.22-7.16-.45-10.74-.05-.81-.09-1.72.14-2.52.33-1.14.04-2.2-.1-3.3-.1-.77-.45-1.19-1.17-1.38-.38-.1-.78-.18-1.13-.35-.55-.27-.61-.66-.11-1.06.43-.34.9-.49,1.47-.39.78.14,1.56.22,2.35.28,2.04.17,4.3-.65,5.87-2.23ZM114.28,148.85c-.02.19-.07.38-.05.56.02.19.13.42.36.34.22-.08.14-.32.03-.47-.11-.16-.26-.29-.39-.43.67-2.05.05-4.15.16-6.22.18-3.59.08-7.2.12-10.81.03-2.88.5-5.77.4-8.62-.2-5.93.15-11.85-.22-17.78-.24-3.91-.1-7.85-.28-11.76-.17-3.59-.2-7.2-.65-10.78-.18-1.4-.37-2.86.17-4.27.16-.41.24-.92.16-1.35-.3-1.54-.41-3.08-.52-4.65-.24-3.53-1.44-6.88-2.4-10.27-.09-.3-.13-.66-.69-.75-.54.87-1.27,1.72-1.47,2.81-.44,2.45-1.1,4.87-1.15,7.39-.02.79-.01,1.61-.25,2.35-.67,2.04-.51,4.12-.54,6.2-.04,2.69.43,5.33.85,7.99.48,3.09.75,6.22,1.18,9.32.61,4.35.7,8.74,1.2,13.09.21,1.81.59,3.62.03,5.43-.04.11.02.26.04.39.32,1.48.59,2.96.84,4.45.25,1.51-.08,2.99.15,4.53.97,6.48.82,13.08,2.02,19.54.24,1.28.49,2.55.87,3.79ZM117.41,171.18c-1.28.69-2.15,1.14-3.16,1.2-.56.03-.89.39-.77.92.32,1.45-.12,2.87-.05,4.31.16,3.27.51,6.53.44,9.82-.03,1.36-.09,2.74-.1,4.11-.02,3.47.11,6.93-.24,10.4-.24,2.4-1.04,4.72-.83,7.18.16,1.89-.14,3.78-.41,5.66-.77,5.31-1.57,10.62-2.37,15.92-.07.45-.16.91-.33,1.33-.36.93-.27,1.93-.45,2.86-.37,1.95-.05,3.9-.27,5.85-.29,2.65-1.18,5.22-1,7.94.22,3.42-.92,6.71-1.16,10.09-.18,2.56-.39,5.12-.12,7.66.45,4.18,2.67,6.98,6.74,8.33,2.12.71,3.98-.22,5.93-.62.27-.06.51-.4.72-.65,2.33-2.64,3.66-5.76,4.15-9.21.59-4.18.33-8.37-.06-12.57-.1-1.1-.79-1.88-.86-2.95-.27-4.12-1.44-8.12-1.63-12.26-.02-.46-.14-.91-.23-1.36-.51-2.56-.94-5.15-1.57-7.68-.5-2.06-.65-4.16-.73-6.22-.2-5.55-.11-11.12-.14-16.68-.01-2.29-.04-4.58-.3-6.87-.3-2.54-.49-5.1-.48-7.65,0-3.39.45-6.77.18-10.19-.22-2.8-.97-5.51-.9-8.69ZM113.67,154.23c-.28-.81-.4-1.25-.58-1.65-1.69-3.71-2.87-7.62-4.11-11.49-1.49-4.62-2.78-9.29-4.17-13.94-.47-1.57-1.13-3.1-1.4-4.71-.73-4.25-2.05-8.41-2.11-12.78-.04-2.62-.74-5.18-.68-7.85.05-2,.01-4.07-.29-6.06-.45-2.93-.42-5.88-.54-8.81-.18-4.52.18-9,1.04-13.5.91-4.78,2.28-9.24,5.16-13.24-2.39,1.34-4.71,2.77-6.5,4.85-1.62,1.87-3.19,3.79-4.45,5.96-1.09,1.88-2.42,3.73-2.99,5.75-1.21,4.25-2.97,8.41-3.03,12.94-.03,2.16-.31,4.31.13,6.48.72,3.51,1.21,7.05,2.26,10.53,1.39,4.57,2.5,9.22,4.05,13.76,1.57,4.58,2.84,9.27,4.21,13.92,1.67,5.66,4.26,10.86,7.7,15.64,1.48,2.05,3.59,3.19,6.29,4.18ZM113.9,57.76c2.15,1.46,3.81,3.37,5.6,5.08,1.38,1.31,2.78,2.79,3.71,4.56,1.75,3.36,2.85,6.93,3.12,10.69.14,1.96.42,3.92.73,5.82.62,3.76.8,7.54,1.17,11.31.52,5.17.09,10.35-.38,15.5-.31,3.38-.82,6.76-1.22,10.14-.81,6.8-2.65,13.34-4.56,19.87-.81,2.77-1.88,5.47-2.68,8.24-.35,1.22-.75,2.39-1.48,3.4-.49.67-.64,1.34-.64,2.15.94.05,1.26-.59,1.65-1.08,2.3-2.89,4.19-6.05,5.82-9.33,1.55-3.1,2.86-6.32,4.18-9.53,2.63-6.4,4.31-13.07,5.36-19.9.41-2.66.44-5.4,1.11-7.98,1.25-4.81.96-9.7.67-14.5-.27-4.41-.71-8.89-1.92-13.23-.45-1.62-.9-3.29-1.15-4.97-.36-2.45-1.39-4.64-2.36-6.86-1.53-3.48-4.01-6.26-6.6-8.99-2.52-2.65-7.71-2.2-9.88-.87-.09.06-.12.22-.25.48ZM108.72,60.77c-.8,0-1.15.33-1.4.7-1.12,1.69-2.45,3.26-3.04,5.27-1.53,5.27-3.17,10.46-2.81,16.12.16,2.57.16,5.23-.03,7.85-.05.77-.14,1.54,0,2.35.47,2.51.63,5.08.73,7.6.17,4.12.46,8.21,1.12,12.27.19,1.18-.1,2.37.15,3.51.49,2.15,1.04,4.3,1.74,6.39.46,1.37.47,2.87,1.08,4.15,1.06,2.21,1.52,4.59,2.2,6.89.65,2.19,1.74,4.21,2.24,6.44.02.08.21.11.32.16.28-.18.2-.46.19-.71-.12-5.91-1.1-11.74-1.62-17.61-.34-3.92-.48-7.86-.86-11.78-.54-5.55-.83-11.12-1.61-16.64-.38-2.66-1.2-5.28-1.25-7.95-.07-3.85-.39-7.68.26-11.56.74-4.44.59-9.03,2.56-13.46ZM115.87,141.45c.48-.3.62-.66.64-1.05.32-5.18,1.23-10.29,1.75-15.44.51-5.02,1.09-10.03,1.68-15.04.31-2.67.27-5.36.61-8.03.23-1.87.19-3.79.47-5.66.85-5.63.98-11.28.19-16.89-.58-4.08-1.15-8.19-2.51-12.13-.96-2.81-2.85-4.81-5.23-6.43-.2-.14-.45-.3-.72-.09-.24.19-.24.46-.18.71.09.38.23.76.31,1.14.68,3.67,1.58,7.3,1.88,11.04.31,3.8.23,7.6.41,11.39.25,5.54.67,11.06.53,16.63-.12,4.68.45,9.36.18,14.06-.2,3.51.4,6.99.06,10.54-.37,3.84-.23,7.73-.46,11.6-.07,1.14-.31,2.43.39,3.64ZM117.29,148.64c.88-.56,1.03-1.22,1.24-1.82,1.03-3.04,2.07-6.08,3.06-9.14.55-1.68,1.11-3.35,1.52-5.07.91-3.83,1.46-7.73,2.05-11.62.47-3.05,1.13-6.1,1.19-9.16.08-4.07.64-8.1.5-12.19-.12-3.33-.37-6.64-.8-9.94-.45-3.38-1.05-6.74-1.32-10.14-.29-3.65-1.11-7.11-2.7-10.4-.32-.66-.59-1.35-1.3-1.98.15,1.91.52,3.55.98,5.17.81,2.84.41,5.89,1.4,8.71.08.22-.03.51-.07.77-.21,1.35-.36,2.67-.11,4.06.28,1.61.27,3.29,0,4.89-.31,1.82-.32,3.64-.5,5.46-.3,2.93-.31,5.88-.7,8.82-.43,3.22-.91,6.47-.89,9.74,0,.66-.11,1.3-.2,1.95-.27,1.93-.63,3.89-.69,5.79-.12,3.83-.99,7.53-1.37,11.3-.28,2.72-.45,5.46-.95,8.16-.19,1.01-.11,2.07-.38,3.1-.28,1.06-.1,2.19.05,3.53ZM118.21,166.15c-1.56-1.74-4.68-1.69-6.21-.04-.34.37-.86.8-.5,1.34.31.48.94.5,1.43.27,1.65-.77,3.35-1.35,5.28-1.57ZM114.79,158.7c1,.55,1.75.91,2.45,1.36.84.53,1.45.24,2.06-.38.66-.66.2-1.16-.16-1.71-.5-.76-1.11-1.05-1.97-.55-.67.39-1.36.73-2.38,1.27ZM116.08,161.71c-.6-.46-.94-.76-1.32-1.01-.8-.52-1.71-.67-2.63-.52-.62.1-1.11.54-1.09,1.22.02.54.57.74,1,.8,1.29.16,2.59.29,4.04-.48ZM111.4,157.15c.53.43,2.88.14,3.39-.42.31-.34.11-.72-.2-.77-1.03-.19-2.08-.22-3.01.38-.29.19-.44.48-.18.81Z"/>
  <path class="cls-1" d="M170.04,143.45c-.54.22-1.1.5-1.54.88-1.8,1.53-3.7,2.99-5.31,4.71-2.43,2.59-4.66,5.38-6.98,8.07-.14.17-.37.26-.56.39.04-.24.04-.51.13-.73,1.59-3.83,2.85-7.74,3.87-11.78.85-3.38.98-6.77,1.14-10.19.05-1.03-.21-2.1-.46-3.12-.3-1.24-.83-1.44-2.03-.93-1.21.52-1.81,1.51-2.04,2.73-.54,2.78-1.06,5.57-1.54,8.36-.52,3.01-.37,5.9,1.45,8.54.28.41.14,1.26-.06,1.81-1.12,3.03-2.3,6.04-3.51,9.03-.67,1.65-1.42,3.26-2.17,4.87-.15.32-.49.55-.74.82-.06-.31-.13-.62-.18-.93-.03-.19-.01-.4-.03-.59-.22-3.35-.41-6.71-.68-10.06-.13-1.62-.77-3.07-1.84-4.29-.98-1.11-2.09-1.07-3,.05-1.05,1.31-1.03,3.43-.03,4.77.75,1.01,1.74,1.29,2.93,1.31.32,0,.82.42.92.75.14.47-.02,1.02-.05,1.54-.41-.14-.85-.21-1.21-.42-.97-.56-1.86-1.27-2.86-1.75-1.25-.59-2.5.29-2.45,1.59.09,2.63,3.37,4.97,5.91,4.14.76-.25.99,0,1.03.63.09,1.25.07,2.51.2,3.75.2,1.86-.3,3.49-1.26,5.06-1.79,2.92-3.5,5.89-5.27,8.83-.51.84-1.08,1.65-1.65,2.46-.14.2-.38.34-.58.51.02-.27,0-.56.06-.82,1.61-6.6.42-12.65-3.46-18.22-.26-.38-.27-1.11-.12-1.58.74-2.18,1.65-4.31,2.37-6.5,1-3.06,1.87-6.16,2.84-9.23.49-1.56.77-3.3,1.68-4.58,1.71-2.41,3.85-4.5,5.72-6.8.98-1.21,1.8-2.57,2.6-3.92.25-.41.33-1.01.27-1.51-.12-1.05-.81-1.32-1.65-.68-.52.4-.99.88-1.42,1.37-1.39,1.58-2.76,3.19-4.14,4.77-.12.14-.3.23-.46.34-.04-.11-.12-.23-.1-.33.28-1.14.33-2.43.92-3.37,1.14-1.83,2.81-3.34,3.87-5.2,1.6-2.79,2.9-5.75,4.23-8.69.2-.43-.1-1.09-.17-1.65-.52.16-1.2.17-1.53.51-1.24,1.27-2.36,2.65-3.54,3.98-.25.28-.56.51-.85.76-.07-.41-.26-.85-.18-1.23.12-.56.38-1.13.69-1.62.68-1.05,1.54-2,2.13-3.09,1.3-2.42,2.53-4.9,3.68-7.39.21-.44-.08-1.11-.14-1.68-.57.23-1.29.31-1.66.72-.76.81-1.28,1.84-1.99,2.7-.38.46-.96.77-1.45,1.15-.06-.57-.15-1.14-.18-1.71-.07-1.71-.04-3.43-.2-5.13-.04-.45-.63-1.14-1.03-1.19-.4-.05-1.17.49-1.29.9-.75,2.74-1.53,5.52.46,8.12.45.59.4,4.71-.03,5.32-.05.07-.19.08-.29.12-.43-1.23-.88-2.46-1.3-3.7-.08-.25-.02-.55-.14-.77-.31-.57-.57-1.29-1.07-1.61-.47-.3-1.22-.24-1.83-.17-.2.02-.51.58-.49.88.24,3.62.93,7.06,3.79,9.68.39.36.84,1,.79,1.45-.24,1.89-.65,3.76-1.03,5.64-.05.22-.26.53-.44.57-.16.04-.49-.2-.58-.4-.47-1.08-.9-2.18-1.3-3.29-.36-.99-.65-2-1.01-2.98-.3-.82-.99-1.02-1.77-.9-.88.14-.97.89-.9,1.52.23,2.29.34,4.62.9,6.84.37,1.46,1.18,3.06,2.29,4,1.05.88,1.37,1.57,1.1,2.77-.2.9-.29,1.82-.5,2.72-.07.32-.34.6-.52.9-.15-.28-.36-.54-.44-.83-.39-1.39-.72-2.8-1.14-4.19-.28-.91-1.04-1.14-1.9-1.04-.86.09-1.56.49-1.64,1.43-.32,3.56.28,6.86,3.08,9.36.71.63.97,1.19.71,2.03-.91,2.89-1.85,5.77-2.74,8.66-1.23,3.99-3.75,7.5-4.36,11.72-.06.43-.4.83-.59,1.25-1.61,3.47-3.2,6.94-4.83,10.39-.21.44-.54.92-.95,1.16-1.42.87-1.77,2.22-1.86,3.72-.05.79.14,1.62-.06,2.36-.75,2.86-1.51,5.73-2.45,8.53-1.36,4.06-2.68,8.12-3.51,12.34-.66,3.35-1.64,6.64-2.49,9.95l-2.15,1.58c-.02.21-.2.41-.31.62-.18-.17-.4-.31-.52-.52-1.41-2.38-2.85-4.74-4.2-7.15-2.06-3.67-3.81-7.5-6.31-10.94-1.25-1.72-2.1-3.82-2.73-5.87-.53-1.73-.57-3.64-.66-5.48-.08-1.72.35-1.99,2.06-1.94.5.02,1.11-.1,1.48-.39,1.12-.91,2.32-1.81,3.17-2.94.77-1.02,1.25-2.32,1.62-3.57.35-1.21-.53-3.02-1.43-3.46-1.04-.51-2.47-.06-3.36,1.35-1.04,1.66-1.88,3.45-2.79,5.2-.21.41-.33.86-.53,1.27-.07.15-.25.25-.38.38-.07-.11-.19-.22-.19-.33-.08-2.38-.82-4.77.87-7.04,1.53-2.05,2.81-4.31,3.97-6.59.61-1.2.86-2.62,1.06-3.98.14-.94-.29-1.89-1.28-2.22-.99-.33-1.43.54-1.76,1.24-.74,1.54-1.36,3.13-2.06,4.69-.12.27-.38.47-.58.7-.03-.25-.07-.51-.07-.76-.04-2.11-.03-4.22-.1-6.33-.06-1.67-.4-3.27-1.69-4.5-1.5-1.43-2.53-1.2-3.21.72-1.04,2.92.12,6.31,2.82,7.88.68.4.94.8.89,1.55-.12,1.57-.19,3.15-.29,4.73-.02.25-.11.5-.17.74-.2-.23-.47-.43-.6-.7-.7-1.49-1.23-3.08-2.09-4.47-.59-.95-1.51-1.82-2.48-2.39-1.1-.65-2.07.06-1.83,1.3.75,3.85,2.19,7.36,5.75,9.5.83.5,1.25.99,1.3,1.98.16,2.76.47,5.52.64,8.28.07,1.06-.08,2.13-.12,3.2-.58-.85-1.26-1.66-1.73-2.56-2.59-4.96-5.03-10.01-7.73-14.91-1.92-3.48-3.58-7.05-4.73-10.84-1.23-4.03-2.29-8.11-3.53-12.13-1.22-3.94.54-7.06,2.62-10.09.26-.38,1.1-.69,1.5-.55.35.12.64.93.64,1.43-.01,1.31-.38,2.64-.27,3.93.13,1.48.46,2.99,1.03,4.36.61,1.45,2.09,1.49,2.9.13.51-.87.81-1.93.95-2.93.13-.96.44-1.14,1.25-.73.18.09.37.15.55.23,1.06.5,1.91.11,2.7-.6.77-.69,1-1.54.63-2.5-.28-.74-.58-1.47-.93-2.17-.34-.68-.16-.92.57-1.02.91-.12,1.86-.22,2.68-.57,1.43-.62,1.78-1.92.71-3.03-.83-.85-1.98-1.5-3.1-1.94-.82-.32-1.17-.28-.41-1.13.74-.82,1.41-1.77,1.82-2.78.22-.55,0-1.45-.35-2-.17-.27-1.11-.25-1.6-.08-.71.26-1.33.78-1.99,1.2.24-.86.47-1.71.73-2.56.13-.44.43-.85.47-1.3.07-.7.11-1.45-.06-2.12-.21-.81-.89-1.06-1.48-.41-.83.91-1.51,1.96-2.29,2.92-.3.36-.68.89-1.06.91-1.89.12-1.93.06-2.37,1.9-.15.63-.19.94-.96.54-1.57-.82-2.23-.48-2.53,1.24-.1.56-.03,1.19.13,1.73.24.81-.13,1.09-.81,1.23-.32.06-.66.09-.97.17-1.97.51-2.44,2.04-1.04,3.52.62.66,1.78,1.19,1.87,1.88.09.72-.82,1.57-1.28,2.36-.48.83-.95,1.66-1.42,2.49-.25-.95-.5-1.9-.76-2.85-.8-2.99-1.62-5.96-1.28-9.14.2-1.88,0-3.8-.02-5.71,0-.33,0-.67.08-.98.06-.21.27-.39.42-.58.06.18.11.37.18.55.31.87.54,1.78.95,2.59.2.39.76.59,1.15.88.25-.35.63-.67.73-1.06.19-.76.21-1.56.31-2.34.03-.26.1-.51.15-.76.28.13.57.25.83.41.17.1.28.28.45.38.83.53,1.54,1.81,2.69.95,1.06-.8.39-1.95.03-2.91-.35-.91-.85-1.77-1.28-2.65.92-.19,1.84-.38,2.75-.57.06-.01.13-.04.19-.06.88-.29,1.5-.76,1.5-1.82,0-1.05-.59-1.66-1.46-1.86-1.13-.27-2.32-.32-3.48-.44-.43-.04-.87-.02-1.3-.03.16-.42.3-.85.5-1.26.62-1.31,1.29-2.59,1.88-3.92.34-.77.42-1.73-.4-2.11-.6-.28-1.6-.24-2.17.1-.81.48-1.37,1.37-2.06,2.07-.15.16-.38.24-.57.36-.01-.19,0-.38-.05-.56-.4-1.45-.74-2.92-1.25-4.33-.17-.47-.77-.78-1.18-1.17-.42.45-1.07.83-1.23,1.36-.43,1.44-.7,2.93-.95,4.42-.12.71-.21,1.06-.9.43-.53-.49-1.08-.96-1.63-1.44-.75-.65-1.56-.99-2.51-.38-.97.62-.92,1.56-.69,2.47.37,1.5,1.39,2.48,2.73,3.22.66.37,1.21.94,1.81,1.42-.84.23-1.67.45-2.51.68-1.13.31-2.31.5-3.36.99-.47.22-.97,1.07-.9,1.55.07.5.75,1.14,1.29,1.3.78.24,1.67.1,2.52.12.25,0,.5.04.75.06-.09.27-.14.56-.26.82-.7,1.48-1.48,2.93-2.07,4.45-.17.43.05,1.27.39,1.55.34.29,1.17.32,1.6.1.73-.37,1.38-.97,1.96-1.58.77-.8,1.44-1.71,2.18-2.55.15-.17.42-.23.64-.35.07.23.21.46.21.7.01,2.83-.02,5.66.01,8.48.02,1.38.02,2.78.27,4.12.52,2.78,1.23,5.53,1.83,8.3.13.62.12,1.27.17,1.91-.51-.38-1.04-.75-1.54-1.15-2.81-2.3-4.36-5.6-6.55-8.39-2.56-3.27-5.39-6.19-9.7-7-.65-.12-1.79-.16-1.95.16-.31.59-.13,1.47-.02,2.21.05.35.4.66.63.98,2.42,3.37,5.76,5.78,8.92,8.35.98.8,2.31,1.52,3.52,1.58,1.58.08,2.37.95,3.25,1.91.45.49.33.77-.35.85-1.76.22-3.52.59-5.28.71-3.72.24-7.27,1.2-10.77,2.38-.55.19-1.14.45-1.55.84-.44.42-.91,1.02-.95,1.56-.02.3.8.82,1.32.95,2.56.63,5.13,1.19,7.71,1.7.56.11,1.18,0,1.77-.06,3.86-.42,7.21-1.97,10.15-4.49,1.2-1.03,1.65-.9,2.19.59.47,1.3.88,2.63,1.23,3.97,2.33,9.07,6.1,17.52,10.71,25.64,1.27,2.23,2.41,4.54,3.59,6.82.11.21.07.49.1.73-.17-.02-.38.02-.5-.07-3.06-2.05-6.14-4.07-9.13-6.21-.57-.4-.89-1.27-1.13-1.99-1.01-3.06-1.92-6.16-2.94-9.22-.33-.99-.8-1.97-1.36-2.84-.76-1.19-1.64-1.12-2.12.17-.31.84-.5,1.8-.41,2.68.17,1.67.58,3.31.89,4.96-1.07-1.01-2.17-1.99-3.19-3.05-.33-.34-.55-.89-.61-1.36-.23-1.88-.17-3.82-.6-5.64-.42-1.77-1.27-3.44-2.02-5.12-.36-.82-1.21-1.18-1.96-.76-.41.23-.59,1.05-.68,1.63-.08.5.03,1.06.19,1.56.51,1.56,1.1,3.09,1.63,4.64.14.4.2.83.29,1.25-.38-.24-.76-.46-1.12-.71-.21-.15-.36-.41-.58-.53-2.14-1.14-4.25-2.32-6.44-3.36-.88-.42-1.87-.28-2.38.74-.47.94-.18,1.89.52,2.54,1.45,1.33,3.11,2.41,5.17,1.52,1.36-.59,2.39-.3,3.4.61.59.53,1.23.99,1.79,1.56.22.23.27.63.39.96-.32.02-.65.12-.95.05-1.53-.35-3.05-.74-4.57-1.12-.97-.24-1.66.12-2.16.95-.48.81-.55,1.58.06,2.38.92,1.21,1.88,2.03,3.63,1.83,1.87-.21,3.67-.43,5.21-1.58.87-.65,1.46-.42,2.16.32,1.45,1.53,3,2.96,4.5,4.44.18.18.35.37.52.56-.29,0-.58.04-.86-.02-1.6-.36-3.18-.92-4.8-1.07-1.85-.17-2.52,1.1-1.6,2.69.78,1.34,1.92,2.27,3.52,2.15,1.56-.12,3.16-.31,4.63-.81,1.57-.53,2.73-.25,4.01.7,3.02,2.22,6.16,4.29,9.22,6.47,1.92,1.36,3.74,2.8,4.88,4.99,1.09,2.1,2.45,4.06,3.67,6.09.16.26.2.59.3.89-.31.04-.65.17-.94.1-1.34-.32-2.66-.84-4.02-1-1.08-.12-1.54-.67-2.1-1.47-1.43-2.04-2.96-4.02-4.56-5.92-1-1.19-2.39-1.85-3.98-1.92-.37-.02-.88.06-1.06.3-.14.19.02.78.24,1.03,1.08,1.23,2.22,2.41,3.35,3.61,1.1,1.17,2.2,2.33,3.31,3.49-1.25-.27-2.55-.42-3.73-.86-1.72-.65-3.37-1.5-5.02-2.31-2.55-1.26-5.09-1.27-7.58.1-.45.25-1,.82-1,1.23,0,.44.53,1.06.98,1.28,1.6.76,3.28,1.38,4.92,2.05,1.49.61,3.1.59,4.42-.13,1.75-.95,3.41-.67,5.15-.35.9.17,1.79.43,2.68.68.15.04.27.18.41.28-.13.13-.26.27-.4.39-1.62,1.34-3.26,2.65-4.86,4.01-1.05.9-2.07,1.84-3.06,2.8-.24.24-.52.86-.43.95.28.28.72.48,1.13.55.29.05.63-.15.95-.24,2.15-.63,4.31-1.22,6.44-1.91,2.6-.85,4.94-2.19,6.86-4.16,1.66-1.71,2.71-1.61,4.01.43.28.44.52.91.78,1.38,2.1,3.81,4.22,7.6,6.27,11.43.68,1.27,1.19,2.64,1.75,3.97.06.15-.04.37-.07.56-.15-.07-.34-.1-.45-.21-.46-.47-.86-1-1.34-1.45-1.73-1.61-3.36-3.37-5.25-4.76-2.13-1.56-4.5-2.74-7.33-2.43-1.02.11-2.18.22-2.45,1.27-.17.67.28,1.64.72,2.31.91,1.37,2,2.61,3,3.92,1.39,1.82,3.04,3.28,5.27,3.99,1.19.38,2.38.77,3.56,1.16.18.06.34.18.51.28-.14.18-.25.41-.43.52-1.56.98-3.2,1.85-4.7,2.92-1.86,1.33-3.77,2.67-5.37,4.29-1.51,1.53-2.68,3.4-3.95,5.16-.26.36-.29.88-.43,1.32.48-.01,1.02.11,1.44-.07,1.57-.67,3.13-1.38,4.64-2.17,1.26-.66,2.59-1.3,3.64-2.23,2.42-2.14,4.68-4.45,7.02-6.68.16-.16.41-.23.61-.34,0,.19.06.39,0,.57-.57,1.96-1.14,3.91-1.73,5.86-1.64,5.43-3.06,10.9-3.21,16.62-.11,4.15-.25,8.3-.45,12.44-.1,2.02.18,3.94.91,5.81.13.33.45.58.68.87.15-.38.42-.75.44-1.13.02-.58-.16-1.17-.22-1.76-.17-1.56-.5-3.14-.45-4.7.16-5.14.34-10.28.76-15.39.19-2.24.94-4.44,1.47-6.65-.21,2.81-.32,5.63-.67,8.42-.72,5.79-.71,11.57-.08,17.36.09.83.42,1.65.71,2.44.08.22.45.34.69.51.03-.25.11-.5.1-.75-.24-3.61-.87-7.24-.66-10.82.46-7.82,1.35-15.61,2.08-23.42.1-1.11.28-2.21.45-3.3.03-.17.2-.31.31-.47.09.19.24.38.25.58.25,4.01.65,8.02.69,12.04.06,6.46-.1,12.91-.23,19.37-.05,2.37-.28,4.73-.41,7.1-.02.32-.03.67.07.96.08.21.34.47.54.48.19.02.53-.22.58-.4.18-.63.34-1.28.36-1.93.11-3.62.15-7.24.26-10.86.1-3.1.42-6.19.36-9.28-.11-5.4-.44-10.79-.66-16.18-.05-1.12-.07-2.24-.06-3.36,0-.27.17-.54.26-.81.08.23.2.46.25.7.34,1.74.74,3.48,1,5.23.82,5.66,2.02,11.28,1.82,17.06-.07,2.03.26,4.06.38,6.1.06,1.11.11,2.23.1,3.34-.03,1.51-.13,3.02-.17,4.54,0,.21.2.42.31.63.22-.12.59-.19.64-.36.17-.55.33-1.14.31-1.71-.1-3.55-.43-7.11-.33-10.66.16-5.78-.58-11.43-1.58-17.09-.48-2.73-.85-5.47-1.26-8.21,2.7,5.08,3.46,10.67,3.89,16.25.4,5.25.26,10.54.3,15.81.02,2.1-.18,4.21-.16,6.32.01.74-.53,2.09.62,2.12,1.11.02.76-1.34.77-2.12.06-5.34,0-10.69.09-16.03.12-7.32-.67-14.47-3.52-21.29-.07-.17-.05-.37-.08-.56.21.06.46.06.61.18,1.34,1.07,2.66,2.15,3.98,3.24,1.78,1.47,3.52,2.98,5.33,4.41.58.46,1.36,1.29,2.03.52.35-.41.21-1.52-.08-2.15-.49-1.05-1.16-2.08-1.96-2.93-2.56-2.71-5.72-4.64-8.94-6.47-.69-.39-1.32-.86-1.99-1.3.8-.14,1.62-.47,2.4-.38,3.35.37,6.29-.78,8.93-2.57,1.25-.85,2.15-2.29,3-3.6.62-.95.22-1.87-.86-2.18-.91-.27-1.95-.41-2.87-.25-3.14.56-5.78,2.15-8.03,4.39-.89.88-1.83,1.71-2.78,2.53-.16.14-.47.11-.7.16-.03-.25-.13-.51-.08-.73.09-.38.26-.75.44-1.09,1.95-3.66,3.89-7.34,5.91-10.96.43-.77,1.18-1.39,1.84-2.02.79-.75,1.59-.94,2.65-.28.68.42,1.63.58,2.46.58,3.24,0,6.27-.82,8.94-2.7,1.72-1.21,3.4-2.51,5.04-3.83.41-.33.94-1.01.83-1.33-.14-.42-.82-.84-1.34-.94-2.55-.51-5.1-.5-7.61.35-3.21,1.1-6.19,2.61-8.8,4.8-.15.13-.41.11-.63.16.07-.18.11-.37.21-.53,1.62-2.8,3.21-5.61,4.88-8.37,1.06-1.75,2.21-3.44,3.38-5.11.66-.94,1.5-1.78,2.8-1.43,2.5.68,4.9.4,7.39-.25,3.03-.8,5.95-1.7,8.4-3.76.4-.33.89-.56,1.34-.83,1.24-.74,1.47-1.42.61-2.54-.45-.58-1.17-1.07-1.87-1.32-2.22-.8-4.46-.57-6.52.52-2.79,1.47-5.51,3.1-8.26,4.66-.22.12-.45.22-.68.33.1-.27.16-.56.31-.8,1.83-2.9,3.66-5.8,5.53-8.67.43-.65.96-1.26,1.54-1.79.81-.75,1.63-1.79,2.58-1.97.58-.11,1.43,1.16,2.16,1.8.15.13.29.27.45.39,1.73,1.45,3.3,1.6,5.27.51.82-.45,1.69-.91,1.59-2.03-.1-1.09-.77-1.84-1.8-2.14-1.32-.39-2.67-.68-4.01-.99-.66-.15-.94-.35-.45-1.02.74-1.01,1.53-1.54,2.95-1.46,3.19.18,6.23-.26,7.7-3.79.64-1.54.24-2.3-1.36-2.33-2.42-.04-4.47.68-6.15,2.57-1.84,2.06-3.88,3.95-5.85,5.9-.16.16-.43.21-.65.3.03-.17.01-.37.09-.51,2.27-4.31,4.53-8.61,6.82-12.91.7-1.31,1.9-1.65,3.3-1.82,1.42-.17,2.97-.29,4.2-.94,5.36-2.83,8.22-7.62,9.77-13.28.34-1.24-.73-1.95-1.97-1.45ZM86.69,152.07c.17.15.36.3.51.46h0c-.15-.16-.35-.3-.51-.46ZM91.81,128.3c0,.06.02.12.03.19-.01-.07-.02-.13-.03-.19-.25.17-.65.29-.73.52.08-.23.48-.35.73-.52ZM128.06,202.76c-1.57,2.74-3.27,5.42-4.87,8.14-2.03,3.47-4.03,6.96-6.04,10.44-.13.22-.23.45-.32.64-.14.03-.2.04-.26.05,0-.18-.06-.37-.01-.54.61-2.29,1.25-4.57,1.84-6.87.66-2.55,1.25-5.12,1.91-7.66.61-2.35,1.27-4.7,1.92-7.04.7-2.54,1.41-5.08,2.13-7.61.1-.37.31-.71.48-1.06.16.4.42.8.46,1.21.09.92.08,1.84.09,2.77.03,1.88.7,3.45,2.14,4.7,1.27,1.09,1.37,1.39.53,2.84ZM137.24,188.26c-1.91,2.91-3.83,5.82-5.76,8.72-.2.31-.49.56-.73.84-.07-.35-.14-.71-.15-.72.49-5.04-.65-9.49-1.92-13.92-.18-.64-.28-1.46-.04-2.04,1.13-2.73,2.38-5.42,3.6-8.11.1-.21.33-.36.5-.54.07.22.18.45.19.67.11,2.78.3,5.54,1.95,7.93.55.81,1.11,1.63,1.79,2.33,1.59,1.66,1.79,2.98.57,4.84Z"/>
</svg>