<?xml version="1.0" encoding="UTF-8"?>
<svg id="Capa_1" data-name="Capa 1" xmlns="http://www.w3.org/2000/svg" viewBox="0 0 252.79 239.11">
  <defs>
    <style>
      .cls-1 {
        fill: #fff;
      }
    </style>
  </defs>
  <path class="cls-1" d="M32.04,114.76c.62-2.43,1.82-4.07,4.13-4.07l129.41-.08c11.92,0,20.89-10.15,21.2-21.25.31-11.2-8.51-22.34-20.64-22.38l-116.06-.36c-9.95-.03-18.94-1.14-27.94-4.79C9.47,56.71.83,45.59.25,31.67-.14,22.22.02,13.04.11,3.45.13,1.33,2.83.3,4.86.3L161.24,0c49.89-.09,90.64,37.23,91.53,86.75.88,48.88-38.88,89.46-88.7,89.41l-81.08-.08-12.48,45.01c-2.67,9.61-10.94,16.28-20.41,17.95l-44.09.06c-1.02,0-2.79-.74-3.35-1.39s-1.06-2.74-.78-3.83l30.15-119.13Z"/>
</svg>