<?xml version="1.0" encoding="UTF-8"?>
<svg id="Capa_1" data-name="Capa 1" xmlns="http://www.w3.org/2000/svg" viewBox="0 0 247.55 199.69">
  <defs>
    <style>
      .cls-1 {
        fill: #231f20;
      }
    </style>
  </defs>
  <g>
    <path class="cls-1" d="M89.52,193.12c-.14,0-.26-.06-.33-.18s-.08-.25,0-.39c1.39-1.13,2.41-2.84,3.07-5.13.25-.85.51-1.85.79-2.99.25-.97.54-1.98.88-3.03.31-.98.71-1.85,1.2-2.62.18-.26.48-.53.88-.81.42-.29.73-.43.94-.43.29,0,.43.15.43.45.03.07.02.13-.02.18-.04.05-.11.09-.21.12-.1.03-.17.04-.22.05-.05,0-.11.02-.19.03-.46.13-.96.76-1.49,1.89-.54,1.11-.95,2.21-1.24,3.3-.3,1.11-.47,1.89-.51,2.32.13-.04.43-.15.88-.33.26-.12.55-.23.86-.33.94-.34,1.64-.25,2.1.27.42.54.65,1.22.69,2.05.04.83-.08,1.61-.35,2.36-.29.75-.72,1.38-1.3,1.91-.6.54-1.26.81-1.97.81-.64,0-1.07-.25-1.3-.77-.21-.47-.22-1.04-.04-1.69.17-.56.58-.9,1.22-1,.16-.01.27.02.33.09.06.07.1.21.1.42,0,.24-.17.49-.51.77-.34.26-.46.51-.35.73.31.67.81.78,1.49.33.63-.41,1.13-1.08,1.51-2.01.3-.75.39-1.4.28-1.97-.14-.64-.31-1.05-.49-1.22-.18-.14-.4-.22-.65-.22-.45,0-1.08.2-1.91.61-.33.24-.58.51-.77.81-.22.37-.43.78-.61,1.24-.24.58-.46,1.05-.67,1.42-.25.52-.5.97-.75,1.34-.14.21-.57.71-1.28,1.49-.27.09-.45.14-.53.14Z"/>
    <path class="cls-1" d="M99.45,197.39c-.01-.47.29-1.2.9-2.18.6-.96,1.15-1.44,1.65-1.44.2,0,.37.03.52.1.15.07.23.14.23.24,0,.18-.12.4-.35.66-.24.25-.54.47-.92.66-.21.1-.45.39-.71.86-.28.5-.41.88-.41,1.16,0,.67.12,1.1.35,1.29s.59.08,1.06-.32c.68-1.05,1.16-1.94,1.44-2.67.3-.73.54-1.65.71-2.75.17-.98.34-1.83.51-2.54l-.59.51c-.55.47-1.16.81-1.83,1-.69.24-1.27.22-1.72-.05-.45-.27-.68-.93-.68-1.98,0-1.38.26-2.93.79-4.66.05-.16.1-.33.14-.53.17-.6.33-.9.49-.9.21,0,.34.06.39.17.05.11.06.29.02.54-.05.39-.24,1.24-.55,2.54-.3,1.23-.45,2.2-.45,2.89s.2,1.08.59,1.22c.39.14.94,0,1.63-.41.6-.35,1.1-.89,1.49-1.61.39-.73.67-1.45.83-2.14.18-.8.39-1.56.61-2.28.25-.83.54-1.47.86-1.93.42-.03.63.11.63.39,0,.16-.08.53-.26,1.12-.17.64-.29,1.09-.37,1.34-.39,1.55-.84,3.63-1.34,6.23-.63,3.64-1.7,6.1-3.2,7.37-.66.54-1.23.56-1.73.06s-.73-1.13-.73-1.95Z"/>
    <path class="cls-1" d="M115.18,191.53c0-.92.48-1.7,1.45-2.36.25-.21.77-.43,1.57-.67.81-.24,1.52-.35,2.12-.35.22,0,.41-.07.55-.22.06,0,.13-.06.21-.17.07-.11.13-.22.17-.33.04-.11.05-.17.04-.19.01-.01,0-.03-.04-.06-.04-.03-.1-.05-.18-.08-.08-.03-.17-.06-.27-.09-.1-.03-.2-.07-.29-.1-.1-.03-.19-.06-.29-.08-.09-.02-.17-.04-.24-.06-.07-.02-.11-.04-.12-.05-.83-.28-1.24-.83-1.24-1.65,0-.22.09-.55.28-.98.18-.42.4-.63.65-.63.07,0,.17.14.31.41-.04.03-.04.07,0,.13s.04.18,0,.35c-.03.18-.1.36-.22.54,0,.39.07.66.22.81s.43.22.85.22.83-.07,1.18-.22c.09-.01.17-.09.24-.22.07-.13.13-.3.2-.52.07-.22.12-.37.18-.46.92-2.43,1.63-4.06,2.12-4.92.85-1.47,1.84-2.27,2.95-2.4,1.43,0,2.23.69,2.4,2.06.01.62-.17,1.27-.56,1.95-.39.68-.92,1.33-1.6,1.95-1.28,1.15-2.71,2.14-4.29,2.97-.47.24-.83.56-1.08.96-.25.41-.37.72-.37.94,0,.18,0,.3.03.35.02.05.09.11.21.18,1.74,1.06,3.09,1.76,4.03,2.08,1.82.6,2.85.14,3.09-1.38.03-.13-.01-.31-.11-.53-.1-.22-.15-.35-.15-.39,0-.26.14-.46.43-.59.39-.03.63.11.71.41.08.25.12.55.12.9,0,1.04-.48,1.88-1.44,2.52-.01.07-.23.14-.65.24-.39.12-.65.18-.77.18-.39,0-.86-.09-1.42-.26-.6-.2-1.08-.39-1.44-.57-.03.01-.18-.06-.47-.23-.29-.17-.58-.33-.88-.51s-.46-.27-.47-.27c-.39-.26-.69-.43-.88-.5s-.44-.11-.73-.11c-.01.05-.18.3-.51.75-.38.5-.58.76-.61.79-.52.52-.87.86-1.04,1-.27.24-.65.47-1.12.69-.49.25-.98.37-1.47.37-.38,0-.7-.16-.96-.48s-.39-.7-.39-1.15ZM116.05,191.39c0,.25.08.45.25.6.16.15.38.23.64.23.54,0,1.19-.36,1.97-1.08.79-.72,1.3-1.38,1.55-1.98-1.02-.01-1.89.12-2.61.41-1.19.48-1.79,1.09-1.79,1.83ZM127.92,177.98c-.39,0-.89.26-1.49.79-.62.54-1.11,1.3-1.47,2.28-.07.11-.37.79-.9,2.05-.5,1.22-.75,1.84-.75,1.87.75-.25,1.68-.81,2.81-1.67,1.13-.88,1.89-1.58,2.3-2.1.18-.21.33-.5.44-.86.11-.36.17-.72.18-1.07,0-.35-.09-.66-.28-.91-.19-.25-.47-.38-.84-.36Z"/>
    <path class="cls-1" d="M133.29,192.08c-1.04.08-1.61-.37-1.71-1.36-.09-.86-.04-1.79.16-2.77.16-1.01.66-1.95,1.51-2.83.87-.86,1.7-1.08,2.5-.63.1.06.27.24.49.51.24.28.37.47.41.57.13-.16.43-.41.88-.75.25,0,.42.12.51.37l.04.1-.24.47-.37.83c-.18.42-.29.83-.31,1.22,0,.01,0,.04-.01.09s-.02.12-.04.22c-.02.1-.04.2-.05.3-.04.21-.07.52-.1.94-.09,1.42.2,2.08.86,2.01l.2-.06.71-.81s.05,0,.11.02c.06.01.11.03.17.04.05.01.11.03.16.05.05.02.09.05.12.09.03.04.03.08.02.12,0,.07-.09.26-.26.59-.34.66-.83.98-1.47.98-.41-.06-.73-.24-.96-.54-.24-.3-.48-.75-.73-1.37l-.16-.63c-.26.51-.6.98-1.02,1.4-.55.52-1.02.8-1.42.83ZM134.35,185.49c-.63.21-1.11.74-1.44,1.57-.31.85-.47,1.7-.47,2.56,0,.51.06.88.18,1.12.12.24.29.34.53.31.47-.05,1.05-.6,1.75-1.65.62-.96,1-1.84,1.16-2.65,0-.05-.02-.15-.06-.28-.04-.14-.08-.27-.12-.38-.04-.12-.07-.18-.08-.18-.3-.58-.79-.71-1.45-.41Z"/>
    <path class="cls-1" d="M140.11,190.54c.03-.63.17-1.45.43-2.46.42-1.61.63-2.5.63-2.65,0-.3-.1-.55-.29-.76s-.31-.36-.33-.46c0-.41.15-.61.45-.61,1.24,0,1.45,1.53.61,4.6l-.08.28-.24.96c-.13.48-.18.9-.16,1.26.09,1.04.56,1.26,1.42.67.76-.54,1.49-1.42,2.18-2.64.3-.52.53-1.02.69-1.47.39-1.26.79-2.2,1.2-2.83.08-.09.2-.22.36-.37s.27-.24.3-.24.13.01.28.04l.24.02c0,.17-.02.32-.06.43-.03.08-.1.28-.23.6s-.21.57-.27.74c-.24.7-.38,1.13-.43,1.32-.25.79-.4,1.24-.45,1.36.13,1.18.23,1.95.3,2.32.07.34.16.51.27.51.09,0,.3-.14.63-.43.34-.29.56-.43.67-.43.29,0,.43.1.43.31,0,.04-.03.15-.08.34s-.1.32-.14.38c-.52.54-1.04.83-1.54.88-.5.05-.87-.18-1.09-.69l-.02-.14c-.27-1.34-.44-1.97-.49-1.91-.05,0-.15.07-.29.22-.12.22-.41.69-.88,1.4-.5.68-1.07,1.14-1.71,1.38-.64.24-1.19.18-1.65-.16-.46-.34-.68-.93-.65-1.77Z"/>
    <path class="cls-1" d="M149.67,191.82c0-.52.21-1.63.63-3.3.42-1.7.63-2.9.63-3.6,0-.33-.04-.55-.11-.66-.07-.11-.2-.17-.38-.17-.12,0-.28.04-.48.11s-.32.11-.34.11c-.14.03-.29,0-.43-.08-.14-.08-.22-.16-.22-.24,0-.16.23-.31.69-.47.47-.16.83-.24,1.08-.24.31,0,.56.13.73.4.17.27.26.61.26,1.01v.86c0,.26.07.39.2.39l.39-.39c.25-.25.39-.39.41-.43.12-.12.23-.22.33-.29.29-.29.55-.48.79-.57.55-.25,1.06-.29,1.53-.14.07.03.25.16.55.39.3.24.45.37.45.41,0,.18-.1.37-.3.55-.2.18-.37.28-.5.28-.17,0-.35-.1-.55-.31-.18-.22-.33-.33-.45-.33-.33,0-.87.41-1.63,1.24-.1.06-.29.29-.57.69-.25.37-.4.62-.45.75-.01.04-.06.12-.14.25s-.14.24-.18.33c-.14.33-.37,1.09-.67,2.3-.08.17-.15.47-.23.89s-.13.67-.19.75c-.07.14-.2.22-.41.22-.2,0-.32-.04-.36-.11-.05-.07-.07-.27-.07-.6Z"/>
    <path class="cls-1" d="M157.65,192.08c-1.04.08-1.61-.37-1.71-1.36-.09-.86-.04-1.79.16-2.77.16-1.01.66-1.95,1.51-2.83.87-.86,1.7-1.08,2.5-.63.1.06.27.24.49.51.24.28.37.47.41.57.13-.16.43-.41.88-.75.25,0,.42.12.51.37l.04.1-.24.47-.37.83c-.18.42-.29.83-.31,1.22,0,.01,0,.04-.01.09s-.02.12-.04.22c-.02.1-.04.2-.05.3-.04.21-.07.52-.1.94-.09,1.42.2,2.08.86,2.01l.2-.06.71-.81s.05,0,.11.02c.06.01.11.03.17.04.05.01.11.03.16.05.05.02.09.05.12.09.03.04.03.08.02.12,0,.07-.09.26-.26.59-.34.66-.83.98-1.47.98-.41-.06-.73-.24-.96-.54-.24-.3-.48-.75-.73-1.37l-.16-.63c-.26.51-.6.98-1.02,1.4-.55.52-1.02.8-1.42.83ZM158.71,185.49c-.63.21-1.11.74-1.44,1.57-.31.85-.47,1.7-.47,2.56,0,.51.06.88.18,1.12.12.24.29.34.53.31.47-.05,1.05-.6,1.75-1.65.62-.96,1-1.84,1.16-2.65,0-.05-.02-.15-.06-.28-.04-.14-.08-.27-.12-.38-.04-.12-.07-.18-.08-.18-.3-.58-.79-.71-1.45-.41Z"/>
  </g>
  <g>
    <path class="cls-1" d="M195.44,168.55c-.47,1.02-1.2,1.14-1.96,1.16-2.38.09-4.76-.01-7.13-.21-7.53-.62-15.06-.82-22.61-.6-3.59.11-7.18.15-10.78.07-5.01-.11-10.02-.1-15.04-.14-1.97-.02-3.95,0-5.92-.05-7.39-.22-14.79-.23-22.17.14-8.51.43-17,.08-25.5-.12-4.35-.11-8.69-.67-13.04-.35-3.84.29-7.68.34-11.53.42-.6.01-1.22.1-1.81-.12-.36-.13-.57-.43-.48-.84.07-.32.37-.28.62-.27,4,.19,7.99.06,11.97-.25,3.04-.23,6.06-.05,9.1.11,2.38.12,4.76.14,7.13.23,6.07.25,12.14.36,18.22.32,2.73-.02,5.46-.27,8.19-.35,5.97-.19,11.94-.28,17.91-.1,3.94.12,7.89.1,11.84.14,4.2.05,8.4.14,12.6.12,4.15-.02,8.3-.2,12.45-.22,6.53-.04,13.06.14,19.56.74,2.17.2,4.34.29,6.52.08.54-.05,1.1.03,1.86.06Z"/>
    <path class="cls-1" d="M199.95,169.97c-.65-.05-1.04-.47-1-1.05.05-.67.55-1.21,1.09-1.2.65.02,1.36.79,1.3,1.4-.05.5-.73.91-1.4.85Z"/>
    <path class="cls-1" d="M52.65,169.97c-.65-.05-1.04-.47-1-1.05.05-.67.55-1.21,1.09-1.2.65.02,1.36.79,1.3,1.4-.05.5-.73.91-1.4.85Z"/>
  </g>
  <g>
    <path class="cls-1" d="M15.11,155.1c-.03.89-.7,1.52-1.52,1.59-1.11.06-2.25,0-3.3-.06-.98-.03-1.94-.03-2.92-.03-1.05,0-2.09.19-3.14.16-1.24-.06-2.73.03-3.55-1.08-.63-.82-.6-1.84-.63-2.85,0-.29-.03-.7-.03-1.05-.03-.51.1-1.02.1-1.55.03-1.87,0-3.77-.03-5.61-.03-1.59.19-3.11.1-4.66-.03-1.46-.29-3.14.73-4.38.95-1.17,2.38-.92,3.71-.92s2.66,0,4,.1c1.05.03,2.06.06,3.11.06.86,0,2.06-.22,2.89.19,1.08.51,1.14,2.28-.1,2.63-.54.16-1.27.03-1.84.03-1.27-.03-2.51-.06-3.78-.06-1.08,0-2.16-.03-3.17.06-1.97.19-2.89,1.59-2.76,3.52.03.92.35,1.84,1.05,2.44.76.67,1.78.67,2.73.67.83,0,1.65-.1,2.41,0,.79.09,1.11.86,1.05,1.59-.06.67-.41,1.21-1.08,1.3-.95.16-1.97.22-2.92.25-1.11.03-2.25.35-2.82,1.4-.35.67-.32,1.62-.22,2.38.16,1.14,1.24,2.03,2.25,2.38,1.11.41,2.22.13,3.33.16.83.03,1.62.03,2.41.1.79.03,1.55-.06,2.19-.16.89,0,1.78.41,1.78,1.43Z"/>
    <path class="cls-1" d="M38.58,155.83c-.06.83-.98,1.27-1.71,1.08-1.3-.32-2.03-1.84-2.63-2.92-.41-.73-.86-1.4-1.33-2.06-.51-.7-.73-1.55-1.59-1.94-1.84-.82-2.7,1.49-3.52,2.67-.73,1.08-1.27,2.28-2.13,3.3-.6.73-1.71,1.33-2.63.76-.76-.48-.29-1.4.1-1.93.6-.89,1.33-1.78,1.94-2.7.32-.48.57-.98.86-1.49.57-.98,1.3-1.97,1.74-3.05.64-1.52.16-2.98-.48-4.38-.6-1.3-1.43-2.44-2.19-3.65-.32-.54-.54-1.11-.83-1.68-.32-.6-.73-1.21-1.02-1.84-.73-1.62,1.56-2.03,2.47-1.05.32.32.44.67.64,1.05.22.41.51.79.73,1.21.44.83,1.02,1.55,1.49,2.38.73,1.27,2.22,2.41,3.49,1.05.76-.79,1.21-1.94,1.84-2.82.41-.6.73-1.27,1.11-1.9.51-.82.86-1.52,1.94-1.52.7,0,1.3.25,1.27,1.02-.03.54-.32.98-.57,1.43-.41.76-.79,1.55-1.24,2.32-.7,1.21-1.55,2.31-2.13,3.52-.41.89-1.02,1.84-1.14,2.79-.16,1.24.44,2.13,1.05,3.14.76,1.27,1.46,2.6,2.28,3.84.38.54.76,1.11,1.17,1.62.38.48,1.05,1.05.98,1.75l.03.03Z"/>
    <path class="cls-1" d="M84.11,156.65l-.73.29c-.63.28-1.21.54-1.81.7-.63.16-1.27.35-1.9.41-.64.1-1.3.06-1.94.06-.73,0-1.46.06-2.16-.03-.73-.06-1.43-.32-2.16-.48-.7-.16-1.4-.38-2.09-.6-.67-.22-1.4-.32-2.09-.57s-1.33-.6-2-.86l-2.03-.83-1.17-.51c-.73-.32-1.59-.22-2.19.29h-.03c-.38.32-.98.79-1.59,1.14-.82.48-2.79.92-2.82.92l-.41.09c-1.59.25-3.27.16-4.73-.41-2.13-.86-3.52-1.97-4.98-3.68-.7-.83-1.3-2.19-1.59-3.17-.32-1.14-.54-2.48-.6-3.62-.03-1.17.16-2.38.44-3.49.25-1.21.86-2.09,1.36-3.11.19-.41.41-.76.73-1.05.38-.35.86-.6,1.21-1.02.67-.76,1.55-1.3,2.51-1.71,2.03-.86,4.35-.95,6.57-.6,2.16.32,3.62,1.9,5.2,3.33.41.38.83.76,1.08,1.3.29.44.38,1.05.6,1.55.54,1.33.7,2.67.7,4.09,0,1.33.19,2.76-.25,4.03-.1.32-.29.73-.44,1.14-.32.67,0,1.49.7,1.78l.7.29,1.94.76,1.9.76c.67.22,1.27.54,1.93.73.64.22,1.3.48,1.94.6.7.19,1.4.22,2.06.32.67.06,1.36.19,2.03.19.7-.03,1.36-.13,2.06-.25.67-.13,1.3-.35,1.97-.6.35-.13.7-.29,1.02-.44.51-.25,1.11-.16,1.49.25,0,0,0,.03.03.03.54.67.32,1.65-.44,1.97ZM61.71,140.98c-.79-1.3-2.16-2.31-3.52-2.95-3.05-1.46-6.34-.03-8.44,2.25-1.05,1.17-1.71,2.57-1.68,4.15.03,1.43.06,2.98.44,4.35,0,.03.03.03.03.1.44,1.21,1.9.83,2.09.76.67-.22,1.33-.38,2-.51.67-.1,1.33-.16,2-.16.67.03,1.33.22,2,.35.67.1,1.3.19,1.97.38.35.03.67.13,1.02.22,1.14.32,2.35-.29,2.66-1.46.25-.95.38-1.97.38-2.92.13-1.52-.13-3.24-.95-4.57ZM58.35,152.12l-.6-.16c-.67-.13-1.33-.19-1.97-.25-.7-.06-1.4-.1-2.06-.03h-.03c-.41.1-.98.25-1.02.25v.03c-.76.32-.73,1.43,0,1.74.29.13.64.25,1.02.35l.76.13c.41.13,1.05-.03,1.49-.06l.41-.09c.32-.06,1.4-.41,2.06-.7.51-.29.44-1.02-.06-1.21ZM85.15,137.65c-.03,1.05,0,2.92-.06,4l-.06.92c-.13.79-.1,1.81-.16,2.57s-.19,1.65-.44,2.28c-.25.64-.51,1.33-.98,1.87-.38.48-1.33,1.08-1.97,1.4-.79.41-1.84.79-2.7.83-.92.03-2.35,0-3.24-.16-1.36-.22-2.66-.79-3.58-1.65-.54-.51-.98-1.17-1.3-1.75-.29-.6-.48-1.17-.63-1.84-.32-1.24-.22-2.66-.25-3.81,0-.16,0-.32.03-.44,0-.22.03-1.97.03-2.06v-2.13c0-.67.03-1.36.16-2.03.29-1.52,2.73-1.59,2.92,0,.06.6.03,1.21-.03,1.81-.03,1.27-.1,3.14-.1,4.44,0,.67-.1,1.55,0,2.22.13.92.16,1.93.76,2.76.32.38.57.98,1.08,1.27.63.38,1.55.67,2.38.7,1.52.06,3.3-.41,4.16-1.49.79-1.05.73-1.59.92-2.76.06-.54.03-1.46.03-2.13v-1.81c0-.38.06-.79.06-1.21.03-1.02-.1-2-.03-3.01,0-.57,0-1.36.54-1.68.54-.28,1.36-.35,1.9-.03.48.32.54.67.54,1.21,0,.6.06,1.11.03,1.71Z"/>
    <path class="cls-1" d="M93.97,156.5c-.79-.57,0-1.59-.25-2.32,0-.38.1-.76.1-1.14,0-.63-.03-2.12-.06-2.92v-1.9c0-1.24.13-2.51-.03-3.74-.13-.95.06-1.9-.03-2.86-.03-.48,0-1.02,0-1.52,0-.64,0-1.59.03-2.22.03-.32.06-.63.06-.95,0-.48-.06-1.08.06-1.55.32-1.27,2.51-.95,2.79.16.19.7.03,1.4,0,2.09-.03.76,0,1.84,0,2.6,0,1.24-.13,2.47-.13,3.71,0,1.49.1,2.95.06,4.44-.03,1.33-.06,2.67-.16,4-.03.64,0,1.24.06,1.87.06.7.25,1.52-.25,2.1-.51.57-1.71.54-2.32.13l.06.03Z"/>
    <path class="cls-1" d="M120.24,150.63c0,2.35-1.27,4.5-3.39,5.61-2.25,1.14-5.3,1.02-7.68.32-2.06-.57-3.9-2.19-4.6-4.22-.44-1.27-.83-4.28,1.36-4.16,1.02.06,1.08,1.17,1.17,1.97.1.92.32,1.78.89,2.47,1.21,1.55,3.65,2,5.42,1.84,1.94-.19,4.03-1.52,3.74-3.77-.19-1.4-1.59-2.28-2.7-2.92-1.43-.86-2.85-1.68-4.28-2.47-1.33-.76-2.79-1.49-3.71-2.76-1.08-1.49-.92-3.87.06-5.36,1.21-1.9,3.68-2.89,5.84-2.92,3.46-.06,7.23,1.68,7.61,5.39.06.76.03,1.78-.82,2.03-1.14.38-1.65-.57-1.9-1.49-.48-1.71-1.55-2.86-3.3-3.2-1.81-.35-5.61.35-5.17,2.98.25,1.49,1.65,2.25,2.86,2.92,1.43.79,2.82,1.59,4.28,2.41.48.25.83.54,1.3.82.82.51,1.62,1.27,2.16,2.03.51.7.86,1.62.86,2.48Z"/>
    <path class="cls-1" d="M128.21,156.5c-.79-.57,0-1.59-.25-2.32,0-.38.1-.76.1-1.14,0-.63-.03-2.12-.06-2.92v-1.9c0-1.24.13-2.51-.03-3.74-.13-.95.06-1.9-.03-2.86-.03-.48,0-1.02,0-1.52,0-.64,0-1.59.03-2.22.03-.32.06-.63.06-.95,0-.48-.06-1.08.06-1.55.32-1.27,2.51-.95,2.79.16.19.7.03,1.4,0,2.09-.03.76,0,1.84,0,2.6,0,1.24-.13,2.47-.13,3.71,0,1.49.1,2.95.06,4.44-.03,1.33-.06,2.67-.16,4-.03.64,0,1.24.06,1.87.06.7.25,1.52-.25,2.1-.51.57-1.71.54-2.32.13l.06.03Z"/>
    <path class="cls-1" d="M148.54,147.07c0,1.27-.13,2.54-.16,3.81-.03,1.17-.06,2.63-.06,3.81,0,.83.03,1.81-.92,2.09-.41.13-.95.13-1.33-.1-.57-.32-.51-.98-.51-1.55.03-2.82-.03-6,.19-8.79.1-1.36,0-2.66-.06-4.03-.03-.89.38-2.09-.03-2.95-.41-.89-1.4-1.46-2.32-1.68-.79-.19-1.55-.09-2.35-.09-.57,0-1.49.22-2-.16-.95-.7-.57-2.47.54-2.76.38-.1.79.03,1.17,0,.38,0,.73-.06,1.11-.03.7.03,1.4.1,2.09.13,2.44.1,4.92,0,7.36-.03,1.24,0,2.47.16,3.71.13,1.05-.03,1.81.79,1.55,1.87-.38,1.62-2.63.76-3.78.83-1.46.06-2.85.25-3.58,1.68-.44.89-.41,2.16-.48,3.14-.19,1.52-.16,3.11-.16,4.69Z"/>
    <path class="cls-1" d="M179,155.1c-.03.89-.7,1.52-1.52,1.59-1.11.06-2.25,0-3.3-.06-.98-.03-1.94-.03-2.92-.03-1.05,0-2.09.19-3.14.16-1.24-.06-2.73.03-3.55-1.08-.63-.82-.6-1.84-.63-2.85,0-.29-.03-.7-.03-1.05-.03-.51.1-1.02.1-1.55.03-1.87,0-3.77-.03-5.61-.03-1.59.19-3.11.1-4.66-.03-1.46-.29-3.14.73-4.38.95-1.17,2.38-.92,3.71-.92s2.66,0,4,.1c1.05.03,2.06.06,3.11.06.86,0,2.06-.22,2.89.19,1.08.51,1.14,2.28-.1,2.63-.54.16-1.27.03-1.84.03-1.27-.03-2.51-.06-3.78-.06-1.08,0-2.16-.03-3.17.06-1.97.19-2.89,1.59-2.76,3.52.03.92.35,1.84,1.05,2.44.76.67,1.78.67,2.73.67.83,0,1.65-.1,2.41,0,.79.09,1.11.86,1.05,1.59-.06.67-.41,1.21-1.08,1.3-.95.16-1.97.22-2.92.25-1.11.03-2.25.35-2.82,1.4-.35.67-.32,1.62-.22,2.38.16,1.14,1.24,2.03,2.25,2.38,1.11.41,2.22.13,3.33.16.83.03,1.62.03,2.41.1.79.03,1.55-.06,2.19-.16.89,0,1.78.41,1.78,1.43Z"/>
    <path class="cls-1" d="M202.06,151.45c.6.25,1.08,1.02.89,1.68-.19.67-.92,1.33-1.43,1.74-.79.64-1.75,1.24-2.7,1.59-1.33.51-2.63.38-4,.48-.51.03-.92.09-1.43,0-.44-.1-.86-.25-1.27-.41-.79-.29-1.55-.51-2.28-.95-1.05-.64-2.03-1.3-2.82-2.25-2.19-2.6-2.85-6.44-2.22-9.68.67-3.49,2.95-6.44,6.12-7.99,1.17-.57,2.25-1.02,3.55-1.11,1.81-.13,3.62.16,5.27.95,1.14.54,2.89,1.55,2.57,3.08-.1.54-.51,1.02-1.08,1.11-.73.13-1.11-.41-1.59-.83-1.27-1.11-2.54-1.62-4.22-1.65-1.71-.03-3.39.64-4.73,1.71-2.95,2.35-3.77,7.07-2.44,10.47.86,2.16,3.01,4.76,5.49,4.98,1.75.16,3.68-.1,5.11-1.17.86-.64,1.93-2.44,3.2-1.78v.03Z"/>
    <path class="cls-1" d="M225.41,155.1c-.03.89-.7,1.52-1.52,1.59-1.11.06-2.25,0-3.3-.06-.98-.03-1.94-.03-2.92-.03-1.05,0-2.09.19-3.14.16-1.24-.06-2.73.03-3.55-1.08-.63-.82-.6-1.84-.63-2.85,0-.29-.03-.7-.03-1.05-.03-.51.1-1.02.1-1.55.03-1.87,0-3.77-.03-5.61-.03-1.59.19-3.11.1-4.66-.03-1.46-.29-3.14.73-4.38.95-1.17,2.38-.92,3.71-.92s2.66,0,4,.1c1.05.03,2.06.06,3.11.06.86,0,2.06-.22,2.89.19,1.08.51,1.14,2.28-.1,2.63-.54.16-1.27.03-1.84.03-1.27-.03-2.51-.06-3.78-.06-1.08,0-2.16-.03-3.17.06-1.97.19-2.89,1.59-2.76,3.52.03.92.35,1.84,1.05,2.44.76.67,1.78.67,2.73.67.83,0,1.65-.1,2.41,0,.79.09,1.11.86,1.05,1.59-.06.67-.41,1.21-1.08,1.3-.95.16-1.97.22-2.92.25-1.11.03-2.25.35-2.82,1.4-.35.67-.32,1.62-.22,2.38.16,1.14,1.24,2.03,2.25,2.38,1.11.41,2.22.13,3.33.16.83.03,1.62.03,2.41.1.79.03,1.55-.06,2.19-.16.89,0,1.78.41,1.78,1.43Z"/>
    <path class="cls-1" d="M247.55,150.63c0,2.35-1.27,4.5-3.39,5.61-2.25,1.14-5.3,1.02-7.68.32-2.06-.57-3.9-2.19-4.6-4.22-.44-1.27-.83-4.28,1.36-4.16,1.02.06,1.08,1.17,1.17,1.97.1.92.32,1.78.89,2.47,1.21,1.55,3.65,2,5.42,1.84,1.94-.19,4.03-1.52,3.74-3.77-.19-1.4-1.59-2.28-2.7-2.92-1.43-.86-2.85-1.68-4.28-2.47-1.33-.76-2.79-1.49-3.71-2.76-1.08-1.49-.92-3.87.06-5.36,1.21-1.9,3.68-2.89,5.84-2.92,3.46-.06,7.23,1.68,7.61,5.39.06.76.03,1.78-.82,2.03-1.14.38-1.65-.57-1.9-1.49-.48-1.71-1.55-2.86-3.3-3.2-1.81-.35-5.61.35-5.17,2.98.25,1.49,1.65,2.25,2.86,2.92,1.43.79,2.82,1.59,4.28,2.41.48.25.83.54,1.3.82.82.51,1.62,1.27,2.16,2.03.51.7.86,1.62.86,2.48Z"/>
  </g>
  <g>
    <path class="cls-1" d="M148.55,123.41c0,1.13-.61,2.16-1.63,2.69-1.08.55-2.54.49-3.68.15-.99-.27-1.87-1.05-2.21-2.02-.21-.61-.4-2.05.65-1.99.49.03.52.56.56.94.05.44.15.85.43,1.19.58.75,1.75.96,2.6.88.93-.09,1.93-.73,1.8-1.81-.09-.67-.76-1.1-1.29-1.4-.69-.41-1.37-.81-2.05-1.19-.64-.37-1.34-.71-1.78-1.32-.52-.72-.44-1.86.03-2.57.58-.91,1.77-1.38,2.8-1.4,1.66-.03,3.47.81,3.65,2.59.03.37.02.85-.4.97-.55.18-.79-.27-.91-.72-.23-.82-.75-1.37-1.58-1.54-.87-.17-2.69.17-2.48,1.43.12.72.79,1.08,1.37,1.4.68.38,1.35.76,2.05,1.16.23.12.4.26.62.4.4.24.78.61,1.04.97.24.33.41.77.41,1.19Z"/>
    <path class="cls-1" d="M161.7,126.2c-.26.21-.81.23-1.08.03-.2-.15-.24-.43-.29-.65-.05-.27-.18-.58-.29-.84-.12-.3-.29-.7-.56-.9-.53-.38-1.26-.17-1.87-.24-.3-.03-.61-.03-.91-.01-.38.03-.72-.01-1.07.14-.44.2-.56.69-.72,1.07-.09.24-.14.5-.21.76-.06.21-.11.52-.29.67-.23.2-.75.18-.99,0-.41-.29.06-1,.18-1.35.14-.4.2-.81.32-1.2.65-2.22,1.43-4.38,2.21-6.56.17-.47.4-1.19.94-1.35.26-.08.73-.11.94.09.14.12.2.3.27.46.11.23.23.44.35.65.49.88.87,1.77,1.2,2.72.35,1,.73,1.98,1.05,2.98.15.47.3.94.44,1.41.06.21.12.41.2.61.05.12.26.43.26.56.06.29.18.73-.09.96ZM159.05,122.17c.17-.24.06-.55-.03-.79-.08-.2-.14-.38-.2-.58-.05-.17-.14-.33-.2-.5-.2-.52-.38-1.81-1.19-1.77-.41.03-.65.55-.78.88-.17.44-.32.94-.4,1.4-.08.43-.35.99-.11,1.4.18.29.68.32,1,.34.52.03,1.54.09,1.89-.37v-.02Z"/>
    <path class="cls-1" d="M178.6,125.18c.2.21.24.56.09.82-.14.23-.3.24-.56.26-.27.01-.56.06-.84.06l-1.55-.03c-.33-.01-.68.03-1.03.02h-.85c-.38.03-.81.01-1.02.01-.41-.01-.84-.01-1.25-.05-.91-.03-1.83.01-2.74.03-.5.01-1.29.12-1.64-.34-.26-.33-.17-.91-.18-1.32-.03-1.02.06-2.05.06-3.09-.02-.55-.02-1.11,0-1.67.02-.33.05-.65.03-.99,0-.23-.01-.46-.03-.69s.05-.44.05-.67c0-.37.02-.73.03-1.1.02-.26.06-.62.32-.76.23-.11.64-.03.84.12.18.14.21.33.24.53.12,1.29-.03,2.63-.12,3.92-.03.53-.01,1.07.03,1.58.01.44-.03.88.03,1.31.08.61.49,1.11,1,1.41.41.23.82.32,1.23.37.17,0,.34.01.52.01.23.02.44.02.67.02.49,0,1.05.01,1.54.01.15.01.59,0,.94.06.23,0,.47-.01.73-.03.2-.02,1.02.03,1.22.03.49,0,.99-.09,1.48-.09.29,0,.58.02.78.23ZM178.87,117.19c-.02.5,0,1-.03,1.52l-.03.44c-.06.38-.05.78-.08,1.14-.03.37-.09.79-.21,1.1-.12.3-.24.64-.47.9-.18.23-.64.52-.94.67-.38.2-.87.36-1.28.38-.44.01-1.14,0-1.57-.08-.65-.11-1.28-.37-1.72-.78-.26-.24-.47-.56-.62-.84-.14-.29-.23-.56-.3-.88-.15-.59-.11-1.19-.12-1.73,0-.08,0-.15.02-.21,0-.11.02-.55.02-.59v-1.02c0-.32.01-.65.08-.97.14-.73,1.31-.76,1.4,0,.03.29.02.58-.01.87-.02.61-.06,1.11-.06,1.74,0,.32-.05.65,0,.97.06.44.09.93.38,1.32.15.18.29.41.53.55.3.18.73.33,1.13.35.73.03,1.58-.15,1.99-.67.38-.5.35-.76.44-1.32.03-.26.01-.61.01-.93v-.47c0-.18.03-.38.03-.58.01-.49-.05-.96-.02-1.45,0-.27,0-.65.26-.81.26-.14.65-.17.91-.01.23.15.26.32.26.58,0,.29.03.53.02.82Z"/>
    <path class="cls-1" d="M192.25,119.37c.23.82.15,1.75.05,2.59,0,1.38-.52,2.69-1.7,3.48-.17.12-.35.24-.53.33-.3.15-.53.35-.87.43-.68.17-1.34.3-2.05.21-.52-.06-1.05-.11-1.58-.11-.4,0-1.11.17-1.35-.26-.18-.37-.12-.93-.12-1.32,0-.35,0-.72.05-1.08.11-.7.01-1.38.09-2.08.06-.5.06-1.02.08-1.54.01-.53.05-1.09.01-1.63-.03-.58-.11-1.19.02-1.8.14-.56.49-.84,1.07-.87.32-.02.65-.02.99,0,.76.01,1.55.14,2.3.33.55.15.97.38,1.43.75.49.37.93.61,1.26,1.13.32.44.72.96.87,1.49l.02-.06ZM190.99,121.36c.01-.97-.08-2.02-.73-2.8-.26-.53-.97-.93-1.45-1.19-.65-.37-1.51-.49-2.16-.01-.49.35-.78.91-.91,1.49-.06.26-.09.49-.09.73-.01.39-.06.79-.06,1.19,0,.73-.03,1.46-.06,2.18-.03.7.03,1.38.56,1.87.52.46,1.34.56,1.99.39.76-.2,1.52-.53,2.1-1.1.7-.71.81-1.79.82-2.75h-.01Z"/>
    <path class="cls-1" d="M205.18,126.2c-.26.21-.81.23-1.08.03-.2-.15-.24-.43-.29-.65-.05-.27-.18-.58-.29-.84-.12-.3-.29-.7-.56-.9-.53-.38-1.26-.17-1.87-.24-.3-.03-.61-.03-.91-.01-.38.03-.72-.01-1.07.14-.44.2-.56.69-.72,1.07-.09.24-.14.5-.21.76-.06.21-.11.52-.29.67-.23.2-.75.18-.99,0-.41-.29.06-1,.18-1.35.14-.4.2-.81.32-1.2.65-2.22,1.43-4.38,2.21-6.56.17-.47.4-1.19.94-1.35.26-.08.73-.11.94.09.14.12.2.3.27.46.11.23.23.44.35.65.49.88.87,1.77,1.2,2.72.35,1,.73,1.98,1.05,2.98.15.47.3.94.44,1.41.06.21.12.41.2.61.05.12.26.43.26.56.06.29.18.73-.09.96ZM202.53,122.17c.17-.24.06-.55-.03-.79-.08-.2-.14-.38-.2-.58-.05-.17-.14-.33-.2-.5-.2-.52-.38-1.81-1.19-1.77-.41.03-.65.55-.78.88-.17.44-.32.94-.4,1.4-.08.43-.35.99-.11,1.4.18.29.68.32,1,.34.52.03,1.54.09,1.89-.37v-.02Z"/>
    <path class="cls-1" d="M219.36,122.84c.05.43-.05.81-.14,1.22-.08.35-.2.65-.44.91-.17.18-.35.44-.58.59-.09.06-.18.08-.27.12-.17.08-.32.17-.5.24-.7.35-1.43.5-2.21.5-.47,0-.93-.05-1.38-.06-.87-.05-1.75.12-2.6-.11-.33-.09-.64-.29-.68-.65-.06-.4,0-.82-.02-1.2-.03-.78.12-1.57.14-2.34.02-.38.08-.79.05-1.17-.02-.27-.03-.53-.03-.79-.02-.59-.02-1.2-.02-1.8,0-.49.03-.99.06-1.46.03-.44.21-.78.62-.96.52-.2,1.17-.15,1.72-.15.38,0,.79-.02,1.19.01.38.03.81.05,1.17.17.33.12.59.35.88.55.18.12.38.26.53.43.4.41.64,1.03.55,1.6-.06.33-.3.69-.26,1.02.03.24.27.38.47.5.53.38,1.17.79,1.49,1.38.21.43.26,1.02.27,1.48l-.02-.03ZM217.99,123.22c.05-.65-.24-1.4-.75-1.84-.56-.49-1.51-.58-2.22-.61-.37-.03-.7.03-1.07.05-.27.02-.58-.03-.85,0-.52.06-1.2.52-1.26,1.07-.05.73-.17,1.55.17,2.24.37.75,1.19,1.08,1.95,1.2.88.17,1.92.11,2.74-.27.37-.17.82-.43,1.07-.75.21-.32.21-.7.24-1.07h-.01ZM211.89,117.87c0,.69-.02,1.38.73,1.7.34.12.67.14,1.02.14.41.01.88.05,1.29-.03.91-.18,1.42-1,1.04-1.9-.35-.82-1.48-1.1-2.28-1.05-.78.03-1.78.2-1.81,1.16h.02Z"/>
    <path class="cls-1" d="M231.41,125.35c.08.23.11.73-.12.88-.29.21-.79.12-1.14.11-.41-.01-.84-.01-1.25-.03-.91-.03-1.83.01-2.74.03-.5.02-1.29.14-1.64-.32-.26-.33-.18-.91-.2-1.32-.03-1.03.06-2.05.05-3.09,0-.56,0-1.11.02-1.67.02-.33.05-.67.05-1,0-.23-.02-.46-.03-.69-.02-.23.05-.44.05-.67,0-.37.01-.73.03-1.09.02-.26.06-.62.32-.76.23-.12.64-.05.84.11.17.14.21.33.23.55.14,1.29-.03,2.63-.12,3.93-.03.53-.01,1.05.02,1.58.03.43-.03.87.03,1.29.09.61.5,1.11,1.02,1.42.78.44,1.63.36,2.48.38.49.01.97.01,1.46.03.26,0,.55.05.64.32l.03.03Z"/>
    <path class="cls-1" d="M243.71,125.56c-.02.43-.34.73-.73.76-.53.03-1.08,0-1.58-.03-.47-.01-.93-.01-1.4-.01-.5,0-1,.09-1.51.08-.59-.03-1.31.01-1.7-.52-.3-.4-.29-.88-.3-1.37,0-.14-.02-.33-.02-.5-.01-.24.05-.49.05-.75.02-.9,0-1.81-.01-2.69-.02-.76.09-1.49.05-2.24-.02-.7-.14-1.51.35-2.1.46-.56,1.14-.44,1.78-.44s1.28,0,1.92.05c.5.01.99.03,1.49.03.41,0,.99-.11,1.38.09.52.24.55,1.09-.05,1.26-.26.08-.61.01-.88.01-.61-.01-1.2-.03-1.81-.03-.52,0-1.04-.01-1.52.03-.94.09-1.38.76-1.32,1.69.02.44.17.88.5,1.17.37.32.85.32,1.31.32.4,0,.79-.05,1.16,0,.38.05.53.41.5.76-.03.32-.2.58-.52.62-.46.08-.94.11-1.4.12-.53.02-1.08.17-1.35.67-.17.32-.15.77-.11,1.14.08.55.59.97,1.08,1.14.53.2,1.07.06,1.6.08.4.01.78.01,1.16.04.38.02.75-.03,1.05-.08.43,0,.85.2.85.69Z"/>
  </g>
  <g>
    <path class="cls-1" d="M10.27,118.89c-.02.5-.12,1.05-.34,1.51-.3.65-.7,1.08-1.13,1.38-.61.44-1.26.55-1.67.55s-1.34.02-1.75.03c-.34,0-1.1.05-1.51,1.1-.09.41-.12.81-.15,1.22-.03.4.06.82-.43.94-.43.11-.82-.05-.84-.5-.02-.55,0-1.08.03-1.63.08-1.2-.01-2.42,0-3.62.02-1.13-.01-2.25.02-3.36.02-.5-.03-.99.41-1.34.21-.17.52-.18.78-.2.34-.03.7-.03,1.04-.03.59.01,1.2.03,1.81.06.68.03,1.48.15,2.07.53.12.06.24.14.33.2.03.01.06.03.09.06.21.15.4.44.56.64.23.27.36.76.53,1.13.09.46.18.87.14,1.34ZM8.32,120.41c.53-.55.65-1.25.61-1.96-.03-.4-.05-.96-.26-1.29-.21-.32-.61-.58-.94-.76-.27-.09-.64-.2-.78-.23-.49-.12-1.02-.09-1.51,0-.91.17-1.66.73-1.67,1.7v1.52c.12,1.32.82,1.63,1.32,1.64.35.01.94.01,1.29,0,.7-.03,1.29.05,1.96-.64h-.03Z"/>
    <path class="cls-1" d="M22.71,125.48c-.26.21-.81.23-1.08.03-.2-.15-.24-.43-.29-.65-.05-.27-.18-.58-.29-.84-.12-.3-.29-.7-.56-.9-.53-.38-1.26-.17-1.87-.24-.3-.03-.61-.03-.91-.01-.38.03-.72-.01-1.07.14-.44.2-.56.69-.72,1.07-.09.24-.14.5-.21.76-.06.21-.11.52-.29.67-.23.2-.75.18-.99,0-.41-.29.06-1,.18-1.35.14-.4.2-.81.32-1.2.65-2.22,1.43-4.38,2.21-6.56.17-.47.4-1.19.94-1.35.26-.08.73-.11.94.09.14.12.2.3.27.46.11.23.23.44.35.65.49.88.87,1.77,1.2,2.72.35,1,.73,1.98,1.05,2.98.15.47.3.94.44,1.41.06.21.12.41.2.61.05.12.26.43.26.56.06.29.18.73-.09.96ZM20.06,121.45c.17-.24.06-.55-.03-.79-.08-.2-.14-.38-.2-.58-.05-.17-.14-.33-.2-.5-.2-.52-.38-1.81-1.19-1.77-.41.03-.65.55-.78.88-.17.44-.32.94-.4,1.4-.08.43-.35.99-.11,1.4.18.29.68.32,1,.34.52.03,1.54.09,1.89-.37v-.02Z"/>
    <path class="cls-1" d="M35.27,122.7c0,1.13-.61,2.16-1.63,2.69-1.08.55-2.54.49-3.68.15-.99-.27-1.87-1.05-2.21-2.02-.21-.61-.4-2.05.65-1.99.49.03.52.56.56.94.05.44.15.85.43,1.19.58.75,1.75.96,2.6.88.93-.09,1.93-.73,1.8-1.81-.09-.67-.76-1.1-1.29-1.4-.69-.41-1.37-.81-2.05-1.19-.64-.37-1.34-.71-1.78-1.32-.52-.72-.44-1.86.03-2.57.58-.91,1.77-1.38,2.8-1.4,1.66-.03,3.47.81,3.65,2.59.03.37.02.85-.4.97-.55.18-.79-.27-.91-.72-.23-.82-.75-1.37-1.58-1.54-.87-.17-2.69.17-2.48,1.43.12.72.79,1.08,1.37,1.4.68.38,1.35.76,2.05,1.16.23.12.4.26.62.4.4.24.78.61,1.04.97.24.33.41.77.41,1.19Z"/>
    <path class="cls-1" d="M44.71,120.99c0,.61-.06,1.22-.08,1.83-.01.56-.03,1.26-.03,1.83,0,.4.02.87-.44,1-.2.06-.46.06-.64-.05-.27-.15-.24-.47-.24-.75.02-1.35-.02-2.88.09-4.22.05-.65,0-1.28-.03-1.93-.02-.43.18-1-.02-1.41-.2-.43-.67-.7-1.11-.81-.38-.09-.75-.05-1.13-.05-.27,0-.71.11-.96-.08-.46-.33-.27-1.19.26-1.32.18-.05.38.02.56,0,.18,0,.35-.03.53-.01.33.01.67.05,1,.06,1.17.05,2.36,0,3.53-.01.59,0,1.19.08,1.78.06.5-.01.87.38.75.9-.18.77-1.26.36-1.81.39-.7.03-1.37.12-1.72.81-.21.43-.2,1.03-.23,1.51-.09.73-.08,1.49-.08,2.25Z"/>
    <path class="cls-1" d="M60.83,124.84c-.02.43-.34.73-.73.76-.53.03-1.08,0-1.58-.03-.47-.01-.93-.01-1.4-.01-.5,0-1,.09-1.51.08-.59-.03-1.31.01-1.7-.52-.3-.4-.29-.88-.3-1.37,0-.14-.02-.33-.02-.5-.01-.24.05-.49.05-.75.02-.9,0-1.81-.01-2.69-.02-.76.09-1.49.05-2.24-.02-.7-.14-1.51.35-2.1.46-.56,1.14-.44,1.78-.44s1.28,0,1.92.05c.5.01.99.03,1.49.03.41,0,.99-.11,1.38.09.52.24.55,1.09-.05,1.26-.26.08-.61.01-.88.01-.61-.01-1.2-.03-1.81-.03-.52,0-1.04-.01-1.52.03-.94.09-1.38.76-1.32,1.69.02.44.17.88.5,1.17.37.32.85.32,1.31.32.4,0,.79-.05,1.16,0,.38.05.53.41.5.76-.03.32-.2.58-.52.62-.46.08-.94.11-1.4.12-.53.02-1.08.17-1.35.67-.17.32-.15.77-.11,1.14.08.55.59.97,1.08,1.14.53.2,1.07.06,1.6.08.4.02.78.02,1.16.05.38.02.75-.03,1.05-.08.43,0,.85.2.85.69Z"/>
    <path class="cls-1" d="M76.72,125.36c-.14.23-.3.26-.56.26-.29.02-.56.06-.85.05-.5-.01-1.02.02-1.52,0-.34,0-.72-.01-1.05-.05h-.2c-.26.03-.55-.01-.78-.01l-1.28-.03c-.91-.05-1.83,0-2.74.02-.5.01-1.29.14-1.64-.34-.26-.33-.17-.91-.18-1.32-.03-1.02.06-2.05.06-3.09-.02-.58-.02-1.13,0-1.69.02-.32.03-.65.03-.99,0-.23-.01-.46-.03-.69s.05-.44.05-.67c0-.37.02-.73.03-1.09.02-.26.08-.62.32-.75.23-.12.64-.05.84.11.18.14.21.33.24.53.12,1.29-.03,2.63-.12,3.93-.03.53-.01,1.08.03,1.61.03.43-.03.87.03,1.29.08.61.49,1.11,1,1.41.72.41,1.49.38,2.27.38.2.02,1.23-.05,1.42-.01.56.08,1.17.01,1.73.01.2,0,.38.02.58.02.49,0,.96-.06,1.45-.05.27,0,.59.05.79.26.2.23.24.64.09.9ZM70.6,119.06c0-.3-.01-.61-.01-1.05-.02-.3,0-.59.03-.88-.03-.61-.08-1.26.32-1.75.46-.53,1.13-.41,1.75-.41s.65,0,1.26.03c.06,0,.75.02.81.02.4,0,.9-.08,1.23.09.49.24.52,1.07-.03,1.22-.26.08-.59.01-.85.01l-1.37-.03-.58.03c-.81.09-1.23-.08-1.28.62.03.41.04.68.41.91.29.18.9.11,1.35.14.35.02.73-.01,1.1.03.37.06.49.41.46.73-.03.3-.18.53-.49.56-.46.05-.9.06-1.34.06-.52,0-1-.03-1.2.3-.06.12-.12.29-.17.49.15.64.52.69.94.75.4.05.79-.01,1.17-.05.12,0,.26-.01.38-.01.12.01.3.05.43.05.26,0,.5-.01.76-.01.4,0,.81.18.81.64-.01.4-.32.69-.7.72-.5.03-1.02,0-1.51-.03-.12,0-.24,0-.37-.01-.47,0-.94.11-1.42.09-.56-.03-1.26.01-1.63-.49-.29-.38-.27-.85-.29-1.29-.02-.17-.03-.36-.03-.52-.01-.12.03-.82.05-.94Z"/>
    <path class="cls-1" d="M88.79,124.63c.09.17.32.37.23.71-.43.55-.94.44-1.25-.01-.37-.53-.88-1.31-1.19-1.77-.44-.62-.78-1.26-1.64-1.25-.12,0-.3-.01-.41-.01-.96,0-1.19.99-1.22,1.63-.01.27.05,1.14-.08,1.38-.12.27-.37.43-.67.38-.2-.03-.46-.15-.52-.35-.03-.11,0-.23,0-.32,0-.21-.03-.43-.05-.64-.05-.53-.02-1.08-.02-1.61s.08-1.08.09-1.63c.02-.78,0-1.57.02-2.34.02-.76-.06-1.51-.03-2.24.01-.26.05-.52.09-.78.08-.36.35-.58.7-.7.47-.17,1-.12,1.49-.14.58-.01,1.86.03,2.43.09.67.08,1.35.27,1.89.69.65.53.85,1.34.93,2.13.06.73-.05,1.8-.36,2.46-.56,1.17-1.92,1.57-1.7,2.22.17.5.73,1.2,1.02,1.64.12.18.15.23.24.41v.03ZM87.74,120.11c.67-1.04.59-2.63-.35-3.45-.37-.3-.88-.39-1.34-.41-.38-.01-1.48-.08-1.86.08-.9.35-.9,1.55-.87,2.36.02.49-.02,1.38.29,1.81.27.39.9.71,1.78.71.44,0,.99,0,1.4-.21.4-.21.73-.55.97-.91l-.03.03Z"/>
    <path class="cls-1" d="M94.95,125.51c-.38-.27,0-.76-.12-1.11,0-.18.05-.37.05-.55,0-.3-.02-1.02-.03-1.4v-.91c0-.59.06-1.2-.01-1.79-.06-.46.03-.91-.02-1.37-.02-.23,0-.49,0-.73,0-.3,0-.76.02-1.07.01-.15.03-.3.03-.46,0-.23-.03-.52.03-.75.15-.61,1.2-.46,1.34.08.09.33.02.67,0,1-.02.37,0,.88,0,1.25,0,.59-.06,1.19-.06,1.78,0,.72.05,1.42.03,2.13-.02.64-.03,1.28-.08,1.92-.01.3,0,.59.03.9.03.33.12.73-.12,1-.24.27-.82.26-1.11.06h.03ZM95.72,112.77c.15-.24.2-.21.37-.46.11-.18.37-.34.59-.34h.2c.2,0,.2.03.41.03s.3.27.14.44c-.15.2-.2.2-.38.38s-.03.01-.21.2c-.15.2-.21.18-.4.38-.18.18-.06.05-.24.23-.14.17-.41.35-.64.35-.08,0,0-.02-.08-.02-.23,0-.38-.21-.26-.39.15-.23.05-.11.21-.33l.29-.47Z"/>
    <path class="cls-1" d="M109.84,125.48c-.26.21-.81.23-1.08.03-.2-.15-.24-.43-.29-.65-.05-.27-.18-.58-.29-.84-.12-.3-.29-.7-.56-.9-.53-.38-1.26-.17-1.87-.24-.3-.03-.61-.03-.91-.01-.38.03-.72-.01-1.07.14-.44.2-.56.69-.72,1.07-.09.24-.14.5-.21.76-.06.21-.11.52-.29.67-.23.2-.75.18-.99,0-.41-.29.06-1,.18-1.35.14-.4.2-.81.32-1.2.65-2.22,1.43-4.38,2.21-6.56.17-.47.4-1.19.94-1.35.26-.08.73-.11.94.09.14.12.2.3.27.46.11.23.23.44.35.65.49.88.87,1.77,1.2,2.72.35,1,.73,1.98,1.05,2.98.15.47.3.94.44,1.41.06.21.12.41.2.61.05.12.26.43.26.56.06.29.18.73-.09.96ZM107.19,121.45c.17-.24.06-.55-.03-.79-.08-.2-.14-.38-.2-.58-.05-.17-.14-.33-.2-.5-.2-.52-.38-1.81-1.19-1.77-.41.03-.65.55-.78.88-.17.44-.32.94-.4,1.4-.08.43-.35.99-.11,1.4.18.29.68.32,1,.34.52.03,1.54.09,1.89-.37v-.02Z"/>
  </g>
  <path class="cls-1" d="M129.27,64.69c-.88.09-1.65.07-2.39.38-.52.21-1.05.38-1.62.42-.51.03-.96-.07-1.34-.44-.47-.45-.52-.86-.09-1.36.38-.44.76-.87,1.29-1.23-2-.76-1.6-1.99-.68-3.1-.97-.91-1-1.19-.29-2.24-2.39-1.67-3.59-4.2-4.9-6.67-1.39-2.63-1.91-5.56-2.84-8.35-.56-1.69-1.03-3.43-1.7-5.08-.75-1.85-1.11-3.79-1.63-5.7-.39-1.43-.87-2.85-1.13-4.31-.41-2.26-.84-4.53-.44-6.85.2-1.17.2-2.35.43-3.53.27-1.38.93-2.59,1.35-3.9,1.01-3.08,2.85-5.71,4.79-8.26.27-.36.53-.72.78-1.09.78-1.19,1.88-1.89,3.29-2.07.81-.1,1.59-.39,2.42-.33.31.02.69-.11.94-.31.77-.59,1.64-.58,2.52-.52.15.01.31.05.45,0,1.87-.49,3.31.18,4.64,1.48,2.01,1.97,3.56,4.19,4.45,6.87,1.18,3.56,1.84,7.21,2.1,10.94.05.66.39,1.32.37,1.97-.07,2.71.16,5.43-.36,8.15-.32,1.7-.78,3.39-.86,5.16-.06,1.35-.46,2.69-.85,4-.09.29-.12.58-.15.87-.1.78-.17,1.57-.63,2.24-.28.4-.17.88-.35,1.28-1.18,2.7-1.95,5.55-3.34,8.17-1,1.88-2.12,3.67-3.48,5.31-.5.6-.48.77.04,1.42.24.29.45.61.56.96.2.63.22,1.19-.42,1.68-.77.59-.76.82-.3,1.71.14.26.35.49.46.76.33.76.43,1.61-.14,2.23-.95,1.03-.84,2.2-.64,3.37.34,2,.44,4,.37,6.01,0,.26-.1.51-.13.77-.05.37-.16.75-.11,1.11.35,2.25.41,4.54.45,6.79.03,1.7.2,3.4.12,5.12-.07,1.43-.05,2.88.03,4.33.08,1.37.33,2.73.26,4.11-.05.91.34,1.74.5,2.62.34,1.91.6,3.83.9,5.75.29,1.88.59,3.76.91,5.63.55,3.19.87,6.41.05,9.65-.43,1.72-1.09,3.24-2.29,4.53-.29.31-.57.58-.97.74-2.36.97-4.53.38-6.4-1.08-.93-.72-1.48-1.87-1.76-3.15-.63-2.88-.16-5.71.24-8.54.4-2.83.64-5.67.92-8.52.27-2.7.59-5.4,1.13-8.07.11-.55.14-1.11.2-1.66.29-2.85.79-5.68,1.05-8.54.28-3.13.25-6.25.33-9.38.05-2.05-.13-4.07-.26-6.1-.03-.46-.05-.97.08-1.43.19-.65.02-1.25-.06-1.88-.06-.44-.26-.68-.66-.78-.22-.06-.44-.1-.64-.2-.31-.15-.35-.38-.06-.6.24-.19.51-.28.84-.22.44.08.89.13,1.34.16,1.16.1,2.44-.37,3.33-1.26ZM126.62,53.67c-.01.11-.04.21-.03.32.01.11.08.24.2.19.13-.05.08-.18.02-.27-.06-.09-.15-.16-.22-.24.38-1.17.03-2.36.09-3.54.1-2.04.05-4.09.07-6.14.02-1.64.28-3.28.23-4.89-.11-3.37.09-6.73-.12-10.1-.14-2.22-.06-4.46-.16-6.68-.09-2.04-.11-4.09-.37-6.12-.1-.79-.21-1.63.1-2.43.09-.24.14-.53.09-.77-.17-.87-.23-1.75-.29-2.64-.14-2-.82-3.91-1.36-5.83-.05-.17-.07-.37-.39-.43-.31.49-.72.98-.83,1.59-.25,1.39-.62,2.77-.66,4.2-.01.45,0,.92-.14,1.33-.38,1.16-.29,2.34-.31,3.52-.02,1.53.25,3.03.48,4.54.27,1.76.43,3.53.67,5.29.34,2.47.4,4.96.68,7.44.12,1.03.34,2.05.02,3.09-.02.06,0,.15.03.22.18.84.33,1.68.48,2.53.14.86-.04,1.7.09,2.57.55,3.68.47,7.43,1.15,11.1.13.73.28,1.45.5,2.15ZM128.4,66.35c-.72.39-1.22.65-1.8.68-.32.02-.5.22-.44.52.18.82-.07,1.63-.03,2.45.09,1.86.29,3.71.25,5.58-.02.77-.05,1.56-.06,2.33-.01,1.97.07,3.94-.14,5.91-.14,1.36-.59,2.68-.47,4.08.09,1.07-.08,2.15-.23,3.21-.44,3.02-.89,6.03-1.35,9.04-.04.26-.09.51-.18.75-.2.53-.15,1.1-.25,1.62-.21,1.11-.03,2.21-.15,3.32-.17,1.51-.67,2.96-.57,4.51.13,1.94-.52,3.81-.66,5.73-.1,1.45-.22,2.91-.07,4.35.26,2.38,1.52,3.96,3.83,4.73,1.2.4,2.26-.13,3.37-.35.16-.03.29-.23.41-.37,1.32-1.5,2.08-3.27,2.36-5.23.34-2.38.19-4.75-.04-7.14-.06-.62-.45-1.07-.49-1.68-.15-2.34-.82-4.61-.93-6.96-.01-.26-.08-.52-.13-.77-.29-1.46-.54-2.92-.89-4.36-.29-1.17-.37-2.36-.41-3.53-.11-3.15-.06-6.31-.08-9.47,0-1.3-.02-2.6-.17-3.9-.17-1.44-.28-2.9-.27-4.35,0-1.93.25-3.84.1-5.79-.12-1.59-.55-3.13-.51-4.94ZM126.27,56.73c-.16-.46-.22-.71-.33-.94-.96-2.11-1.63-4.33-2.34-6.52-.85-2.62-1.58-5.28-2.37-7.92-.27-.89-.64-1.76-.79-2.67-.41-2.42-1.16-4.78-1.2-7.26-.02-1.49-.42-2.94-.38-4.46.03-1.13,0-2.31-.16-3.44-.25-1.67-.24-3.34-.31-5-.1-2.57.1-5.11.59-7.67.52-2.72,1.29-5.25,2.93-7.52-1.36.76-2.67,1.57-3.69,2.75-.92,1.06-1.81,2.15-2.53,3.38-.62,1.07-1.37,2.12-1.7,3.27-.69,2.42-1.69,4.78-1.72,7.35-.02,1.23-.18,2.45.07,3.68.41,2,.69,4,1.29,5.98.79,2.6,1.42,5.24,2.3,7.82.89,2.6,1.61,5.27,2.39,7.91.95,3.21,2.42,6.17,4.37,8.88.84,1.16,2.04,1.81,3.57,2.37ZM126.4,1.93c1.22.83,2.16,1.91,3.18,2.88.78.75,1.58,1.58,2.11,2.59.99,1.91,1.62,3.94,1.77,6.07.08,1.11.24,2.23.41,3.3.35,2.14.45,4.28.67,6.42.29,2.94.05,5.88-.22,8.8-.18,1.92-.46,3.84-.69,5.76-.46,3.87-1.5,7.58-2.59,11.29-.46,1.57-1.07,3.11-1.52,4.68-.2.69-.43,1.36-.84,1.93-.28.38-.36.76-.37,1.22.53.03.71-.33.94-.61,1.3-1.64,2.38-3.44,3.31-5.3.88-1.76,1.62-3.59,2.37-5.41,1.49-3.64,2.45-7.43,3.05-11.31.23-1.51.25-3.07.63-4.53.71-2.73.55-5.51.38-8.23-.15-2.5-.41-5.05-1.09-7.51-.26-.92-.51-1.87-.65-2.82-.2-1.39-.79-2.63-1.34-3.89-.87-1.98-2.28-3.56-3.75-5.11-1.43-1.51-4.38-1.25-5.61-.5-.05.03-.07.12-.14.27ZM123.46,3.64c-.46,0-.66.19-.79.4-.64.96-1.39,1.85-1.73,2.99-.87,2.99-1.8,5.94-1.6,9.16.09,1.46.09,2.97-.01,4.46-.03.44-.08.88,0,1.33.27,1.42.36,2.89.41,4.32.09,2.34.26,4.66.64,6.97.11.67-.06,1.35.09,1.99.28,1.22.59,2.44.99,3.63.26.78.27,1.63.61,2.36.6,1.25.86,2.61,1.25,3.92.37,1.24.99,2.39,1.28,3.66,0,.04.12.06.18.09.16-.1.11-.26.11-.4-.07-3.35-.63-6.67-.92-10-.2-2.23-.27-4.46-.49-6.69-.31-3.15-.47-6.31-.92-9.45-.21-1.51-.68-3-.71-4.52-.04-2.18-.22-4.36.15-6.57.42-2.52.33-5.13,1.45-7.65ZM127.52,49.46c.28-.17.35-.37.36-.6.18-2.94.7-5.84.99-8.77.29-2.85.62-5.7.95-8.54.18-1.52.16-3.04.35-4.56.13-1.06.11-2.15.27-3.22.48-3.2.56-6.41.11-9.59-.33-2.32-.65-4.65-1.42-6.89-.55-1.59-1.62-2.73-2.97-3.65-.11-.08-.26-.17-.41-.05-.14.11-.14.26-.1.41.05.22.13.43.17.65.39,2.08.9,4.15,1.07,6.27.17,2.16.13,4.32.23,6.47.14,3.15.38,6.28.3,9.45-.07,2.66.26,5.32.1,7.99-.11,1.99.23,3.97.03,5.99-.21,2.18-.13,4.39-.26,6.59-.04.65-.18,1.38.22,2.07ZM128.33,53.55c.5-.32.59-.69.7-1.03.59-1.73,1.17-3.46,1.74-5.19.31-.95.63-1.91.86-2.88.51-2.18.83-4.39,1.17-6.6.26-1.73.64-3.47.67-5.2.05-2.31.36-4.6.28-6.92-.07-1.89-.21-3.77-.46-5.65-.25-1.92-.6-3.83-.75-5.76-.16-2.07-.63-4.04-1.53-5.91-.18-.37-.33-.77-.74-1.12.08,1.09.29,2.02.56,2.93.46,1.62.23,3.34.8,4.95.04.12-.02.29-.04.44-.12.77-.2,1.52-.06,2.31.16.91.16,1.87,0,2.78-.18,1.03-.18,2.07-.28,3.1-.17,1.67-.18,3.34-.4,5.01-.24,1.83-.51,3.67-.51,5.53,0,.38-.06.74-.12,1.11-.16,1.09-.36,2.21-.39,3.29-.07,2.17-.56,4.28-.78,6.42-.16,1.55-.25,3.1-.54,4.64-.11.58-.06,1.17-.22,1.76-.16.6-.06,1.24.03,2.01ZM128.85,63.5c-.89-.99-2.66-.96-3.53-.02-.19.21-.49.45-.29.76.18.27.54.28.81.15.94-.44,1.9-.77,3-.89ZM126.91,59.27c.57.31,1,.52,1.39.77.47.3.82.14,1.17-.21.37-.37.11-.66-.09-.97-.29-.43-.63-.6-1.12-.31-.38.22-.77.42-1.35.72ZM127.64,60.98c-.34-.26-.54-.43-.75-.57-.46-.3-.97-.38-1.49-.3-.35.06-.63.31-.62.69,0,.31.33.42.57.45.73.09,1.47.17,2.3-.27ZM124.98,58.39c.3.24,1.63.08,1.93-.24.18-.19.06-.41-.11-.44-.59-.11-1.18-.12-1.71.22-.17.11-.25.27-.1.46Z"/>
  <path class="cls-1" d="M158.29,50.6c-.31.12-.62.28-.87.5-1.02.87-2.1,1.7-3.02,2.68-1.38,1.47-2.65,3.05-3.96,4.59-.08.1-.21.15-.32.22.02-.14.02-.29.08-.41.9-2.17,1.62-4.4,2.2-6.69.48-1.92.56-3.85.65-5.79.03-.59-.12-1.19-.26-1.77-.17-.71-.47-.82-1.16-.53-.69.29-1.03.86-1.16,1.55-.31,1.58-.6,3.16-.87,4.75-.29,1.71-.21,3.35.83,4.85.16.23.08.72-.03,1.03-.64,1.72-1.31,3.43-1.99,5.13-.38.94-.8,1.85-1.23,2.77-.08.18-.28.31-.42.46-.03-.18-.08-.35-.1-.53-.02-.11,0-.22-.02-.34-.13-1.91-.23-3.81-.38-5.71-.07-.92-.44-1.74-1.05-2.44-.55-.63-1.19-.61-1.7.03-.6.74-.59,1.95-.02,2.71.43.57.99.73,1.67.74.18,0,.47.24.52.42.08.27-.01.58-.03.87-.23-.08-.48-.12-.69-.24-.55-.32-1.06-.72-1.63-.99-.71-.33-1.42.17-1.39.9.05,1.5,1.91,2.83,3.35,2.35.43-.14.56,0,.59.36.05.71.04,1.42.11,2.13.11,1.06-.17,1.98-.72,2.88-1.02,1.66-1.99,3.35-2.99,5.02-.29.48-.62.94-.94,1.39-.08.12-.22.19-.33.29,0-.15,0-.32.03-.46.91-3.75.24-7.19-1.97-10.35-.15-.21-.16-.63-.07-.89.42-1.24.94-2.45,1.34-3.69.57-1.74,1.06-3.5,1.61-5.24.28-.89.44-1.88.95-2.6.97-1.37,2.19-2.56,3.25-3.86.56-.69,1.02-1.46,1.48-2.22.14-.24.19-.58.16-.86-.07-.6-.46-.75-.94-.38-.29.23-.56.5-.81.78-.79.9-1.57,1.81-2.35,2.71-.07.08-.17.13-.26.19-.02-.06-.07-.13-.06-.18.16-.65.18-1.38.52-1.92.65-1.04,1.6-1.9,2.2-2.95.91-1.58,1.65-3.27,2.4-4.93.11-.25-.06-.62-.1-.94-.3.09-.68.1-.87.29-.7.72-1.34,1.51-2.01,2.26-.14.16-.32.29-.48.43-.04-.23-.15-.48-.1-.7.07-.32.22-.64.39-.92.39-.6.88-1.13,1.21-1.76.74-1.38,1.44-2.78,2.09-4.2.12-.25-.04-.63-.08-.95-.32.13-.73.18-.95.41-.43.46-.72,1.05-1.13,1.54-.22.26-.55.44-.82.65-.03-.32-.09-.65-.1-.97-.04-.97-.02-1.95-.12-2.91-.03-.26-.36-.65-.59-.67-.23-.03-.67.28-.73.51-.43,1.56-.87,3.14.26,4.61.26.33.23,2.68-.01,3.02-.03.04-.11.05-.16.07-.25-.7-.5-1.4-.74-2.1-.05-.14-.01-.31-.08-.44-.18-.33-.33-.73-.61-.92-.26-.17-.69-.14-1.04-.09-.12.01-.29.33-.28.5.14,2.05.53,4.01,2.15,5.5.22.2.48.57.45.82-.14,1.08-.37,2.14-.58,3.2-.03.13-.15.3-.25.33-.09.02-.28-.12-.33-.22-.26-.61-.51-1.24-.74-1.87-.21-.56-.37-1.14-.57-1.7-.17-.46-.56-.58-1.01-.51-.5.08-.55.5-.51.87.13,1.3.19,2.63.51,3.88.21.83.67,1.74,1.3,2.27.6.5.78.89.62,1.57-.11.51-.17,1.04-.28,1.55-.04.18-.19.34-.29.51-.09-.16-.2-.3-.25-.47-.22-.79-.41-1.59-.65-2.38-.16-.51-.59-.65-1.08-.59-.49.05-.89.28-.93.81-.18,2.02.16,3.9,1.75,5.32.4.36.55.68.4,1.15-.52,1.64-1.05,3.28-1.56,4.92-.7,2.27-2.13,4.26-2.48,6.66-.04.25-.22.47-.33.71-.91,1.97-1.82,3.94-2.74,5.9-.12.25-.31.52-.54.66-.81.49-1,1.26-1.05,2.11-.03.45.08.92-.03,1.34-.43,1.63-.86,3.25-1.39,4.85-.77,2.31-1.52,4.61-1.99,7.01-.38,1.9-.93,3.77-1.42,5.65l-1.22.9c-.01.12-.11.23-.18.35-.1-.1-.23-.18-.3-.29-.8-1.35-1.62-2.69-2.39-4.06-1.17-2.09-2.16-4.26-3.59-6.21-.71-.97-1.19-2.17-1.55-3.33-.3-.98-.33-2.07-.38-3.11-.05-.98.2-1.13,1.17-1.1.28,0,.63-.05.84-.22.64-.51,1.32-1.03,1.8-1.67.44-.58.71-1.32.92-2.03.2-.69-.3-1.72-.81-1.97-.59-.29-1.41-.03-1.91.77-.59.94-1.07,1.96-1.59,2.95-.12.23-.19.49-.3.72-.04.09-.14.14-.22.21-.04-.06-.11-.13-.11-.19-.05-1.35-.47-2.71.5-4,.87-1.16,1.59-2.45,2.26-3.74.35-.68.49-1.49.6-2.26.08-.53-.17-1.07-.73-1.26-.56-.19-.81.31-1,.7-.42.87-.77,1.78-1.17,2.66-.07.15-.22.27-.33.4-.01-.14-.04-.29-.04-.43-.02-1.2-.02-2.4-.06-3.6-.03-.95-.23-1.86-.96-2.56-.85-.81-1.44-.68-1.83.41-.59,1.66.07,3.59,1.6,4.48.39.23.54.45.5.88-.07.89-.11,1.79-.16,2.69,0,.14-.06.28-.1.42-.11-.13-.27-.24-.34-.4-.4-.85-.7-1.75-1.19-2.54-.34-.54-.86-1.03-1.41-1.36-.62-.37-1.18.04-1.04.74.43,2.19,1.24,4.18,3.26,5.4.47.28.71.56.74,1.12.09,1.57.27,3.13.36,4.7.04.6-.04,1.21-.07,1.82-.33-.48-.71-.94-.98-1.46-1.47-2.82-2.86-5.69-4.39-8.47-1.09-1.98-2.03-4-2.69-6.16-.7-2.29-1.3-4.6-2-6.89-.69-2.24.31-4.01,1.49-5.73.15-.22.62-.39.85-.31.2.07.37.53.36.81,0,.75-.22,1.5-.15,2.23.08.84.26,1.7.59,2.47.35.82,1.19.85,1.65.07.29-.49.46-1.09.54-1.67.08-.55.25-.65.71-.42.1.05.21.08.31.13.6.28,1.09.06,1.53-.34.44-.39.57-.87.36-1.42-.16-.42-.33-.84-.53-1.23-.2-.39-.09-.52.32-.58.51-.07,1.05-.12,1.52-.33.81-.35,1.01-1.09.4-1.72-.47-.49-1.12-.85-1.76-1.1-.46-.18-.66-.16-.23-.64.42-.46.8-1,1.03-1.58.13-.31,0-.82-.2-1.13-.1-.15-.63-.14-.91-.04-.41.15-.76.45-1.13.68.14-.49.27-.97.41-1.46.08-.25.24-.49.27-.74.04-.4.06-.82-.04-1.2-.12-.46-.5-.6-.84-.23-.47.51-.86,1.11-1.3,1.66-.17.21-.39.5-.6.52-1.07.07-1.09.03-1.35,1.08-.09.36-.11.53-.55.31-.89-.47-1.27-.27-1.44.71-.06.32-.02.67.07.98.14.46-.08.62-.46.7-.18.04-.37.05-.55.1-1.12.29-1.38,1.16-.59,2,.35.37,1.01.67,1.06,1.07.05.41-.47.89-.73,1.34-.27.47-.54.94-.81,1.41-.14-.54-.28-1.08-.43-1.62-.46-1.7-.92-3.38-.72-5.19.11-1.07,0-2.16,0-3.24,0-.19,0-.38.04-.56.03-.12.15-.22.24-.33.03.1.06.21.1.31.17.49.3,1.01.54,1.47.11.22.43.34.65.5.14-.2.36-.38.41-.6.11-.43.12-.89.18-1.33.02-.15.06-.29.09-.43.16.08.32.14.47.23.09.06.16.16.26.22.47.3.88,1.03,1.53.54.6-.45.22-1.11.01-1.65-.2-.52-.48-1.01-.73-1.51.52-.11,1.04-.22,1.56-.32.04,0,.07-.02.11-.03.5-.17.85-.43.85-1.03,0-.6-.33-.94-.83-1.06-.64-.15-1.32-.18-1.98-.25-.24-.03-.49-.01-.74-.02.09-.24.17-.48.28-.71.35-.74.73-1.47,1.07-2.22.2-.44.24-.98-.23-1.2-.34-.16-.91-.14-1.23.05-.46.27-.78.78-1.17,1.18-.09.09-.21.14-.32.2,0-.11,0-.22-.03-.32-.23-.82-.42-1.66-.71-2.46-.1-.27-.44-.45-.67-.66-.24.25-.61.47-.7.77-.25.82-.4,1.66-.54,2.51-.07.4-.12.6-.51.25-.3-.28-.62-.55-.93-.82-.43-.37-.89-.56-1.43-.22-.55.35-.52.89-.39,1.4.21.85.79,1.41,1.55,1.83.38.21.69.53,1.03.81-.47.13-.95.26-1.42.39-.64.18-1.31.29-1.91.56-.27.12-.55.61-.51.88.04.29.43.65.73.74.44.13.95.05,1.43.07.14,0,.28.02.43.03-.05.16-.08.32-.15.47-.4.84-.84,1.66-1.18,2.53-.09.24.03.72.22.88.19.16.66.18.91.06.42-.21.78-.55,1.11-.9.44-.46.82-.97,1.24-1.45.09-.1.24-.13.36-.2.04.13.12.26.12.4,0,1.61-.01,3.21,0,4.82,0,.78,0,1.58.15,2.34.3,1.58.7,3.14,1.04,4.71.08.35.07.72.1,1.08-.29-.22-.59-.42-.87-.65-1.6-1.31-2.48-3.18-3.72-4.77-1.46-1.86-3.06-3.51-5.51-3.98-.37-.07-1.01-.09-1.11.09-.17.33-.07.84-.01,1.26.03.2.23.38.36.56,1.37,1.91,3.27,3.28,5.07,4.74.55.45,1.31.86,2,.89.89.04,1.35.54,1.85,1.08.25.28.19.43-.2.48-1,.13-2,.34-3,.4-2.11.14-4.13.68-6.12,1.35-.31.11-.65.25-.88.47-.25.24-.52.58-.54.89-.01.17.46.47.75.54,1.45.36,2.92.67,4.38.97.32.06.67,0,1-.03,2.19-.24,4.09-1.12,5.77-2.55.68-.58.94-.51,1.24.33.27.74.5,1.49.7,2.25,1.32,5.15,3.46,9.95,6.08,14.56.72,1.27,1.37,2.58,2.04,3.87.06.12.04.28.06.42-.1-.01-.21.01-.29-.04-1.74-1.16-3.49-2.31-5.19-3.53-.32-.23-.51-.72-.64-1.13-.58-1.74-1.09-3.5-1.67-5.24-.19-.56-.45-1.12-.77-1.62-.43-.67-.93-.64-1.2.1-.18.47-.28,1.02-.23,1.52.1.95.33,1.88.51,2.82-.61-.57-1.23-1.13-1.81-1.73-.19-.19-.31-.5-.35-.77-.13-1.07-.09-2.17-.34-3.2-.24-1-.72-1.96-1.15-2.91-.21-.47-.69-.67-1.12-.43-.23.13-.33.59-.39.93-.05.28.01.6.11.88.29.88.62,1.76.93,2.64.08.23.11.47.17.71-.21-.13-.43-.26-.64-.4-.12-.09-.2-.24-.33-.3-1.21-.65-2.42-1.32-3.66-1.91-.5-.24-1.06-.16-1.35.42-.27.53-.1,1.08.3,1.44.82.75,1.77,1.37,2.94.86.77-.33,1.36-.17,1.93.35.33.3.7.57,1.01.88.13.13.15.36.22.54-.18.01-.37.07-.54.03-.87-.2-1.73-.42-2.6-.63-.55-.14-.95.07-1.23.54-.27.46-.31.9.03,1.35.52.69,1.07,1.15,2.06,1.04,1.06-.12,2.08-.25,2.96-.9.5-.37.83-.24,1.23.18.82.87,1.7,1.68,2.56,2.52.1.1.2.21.3.32-.16,0-.33.02-.49-.01-.91-.2-1.81-.52-2.73-.61-1.05-.09-1.43.63-.91,1.53.44.76,1.09,1.29,2,1.22.89-.07,1.8-.18,2.63-.46.89-.3,1.55-.14,2.28.4,1.72,1.26,3.5,2.44,5.23,3.68,1.09.77,2.12,1.59,2.77,2.83.62,1.19,1.39,2.3,2.08,3.46.09.15.11.34.17.51-.18.02-.37.1-.53.06-.76-.18-1.51-.48-2.28-.57-.61-.07-.87-.38-1.19-.84-.81-1.16-1.68-2.28-2.59-3.37-.57-.68-1.36-1.05-2.26-1.09-.21,0-.5.03-.6.17-.08.11.01.44.14.59.61.7,1.26,1.37,1.9,2.05.62.66,1.25,1.32,1.88,1.98-.71-.15-1.45-.24-2.12-.49-.98-.37-1.91-.85-2.85-1.31-1.45-.71-2.89-.72-4.3.05-.26.14-.57.46-.57.7,0,.25.3.6.56.72.91.43,1.86.78,2.8,1.16.85.35,1.76.33,2.51-.07.99-.54,1.94-.38,2.92-.2.51.09,1.02.25,1.52.38.09.02.15.1.23.16-.08.07-.15.15-.23.22-.92.76-1.85,1.51-2.76,2.28-.6.51-1.18,1.04-1.74,1.59-.14.14-.29.49-.24.54.16.16.41.27.64.31.17.03.36-.08.54-.14,1.22-.36,2.45-.69,3.66-1.08,1.48-.48,2.8-1.24,3.9-2.36.95-.97,1.54-.92,2.28.25.16.25.3.52.44.78,1.19,2.16,2.4,4.32,3.56,6.49.39.72.68,1.5,1,2.25.04.08-.02.21-.04.32-.09-.04-.19-.06-.25-.12-.26-.27-.49-.57-.76-.82-.98-.92-1.91-1.91-2.98-2.7-1.21-.88-2.56-1.56-4.16-1.38-.58.06-1.24.13-1.39.72-.1.38.16.93.41,1.31.51.78,1.14,1.48,1.7,2.23.79,1.03,1.73,1.86,2.99,2.27.67.22,1.35.44,2.02.66.1.03.19.1.29.16-.08.1-.14.23-.24.3-.89.56-1.82,1.05-2.67,1.66-1.06.76-2.14,1.52-3.05,2.44-.86.87-1.52,1.93-2.24,2.93-.15.2-.17.5-.25.75.27,0,.58.06.82-.04.89-.38,1.78-.78,2.63-1.24.72-.38,1.47-.74,2.07-1.26,1.37-1.21,2.66-2.53,3.99-3.79.09-.09.23-.13.35-.2,0,.11.03.22,0,.32-.32,1.11-.65,2.22-.98,3.33-.93,3.08-1.74,6.19-1.82,9.44-.06,2.36-.14,4.71-.26,7.07-.06,1.14.1,2.24.52,3.3.07.19.26.33.39.49.09-.21.24-.43.25-.64.01-.33-.09-.66-.13-1-.1-.89-.29-1.78-.26-2.67.09-2.92.19-5.84.43-8.74.11-1.27.54-2.52.83-3.78-.12,1.6-.18,3.2-.38,4.78-.41,3.29-.4,6.57-.05,9.86.05.47.24.94.4,1.39.05.13.26.2.39.29.02-.14.06-.29.05-.43-.14-2.05-.49-4.11-.37-6.14.26-4.44.77-8.87,1.18-13.3.06-.63.16-1.25.25-1.88.01-.1.12-.18.18-.27.05.11.14.22.14.33.14,2.28.37,4.56.39,6.84.03,3.67-.06,7.33-.13,11-.03,1.34-.16,2.69-.23,4.03-.01.18-.02.38.04.55.04.12.19.27.31.27.11,0,.3-.12.33-.23.1-.36.19-.73.2-1.1.06-2.06.08-4.11.15-6.17.06-1.76.24-3.52.21-5.27-.06-3.07-.25-6.13-.38-9.19-.03-.64-.04-1.27-.03-1.91,0-.15.1-.31.15-.46.05.13.11.26.14.4.2.99.42,1.98.57,2.97.47,3.22,1.15,6.41,1.03,9.69-.04,1.15.15,2.31.21,3.46.04.63.07,1.26.05,1.9-.01.86-.08,1.72-.1,2.58,0,.12.11.24.18.36.13-.07.33-.11.36-.21.1-.31.19-.65.18-.97-.05-2.02-.24-4.04-.19-6.05.09-3.28-.33-6.49-.9-9.71-.27-1.55-.48-3.11-.72-4.66,1.53,2.88,1.97,6.06,2.21,9.23.23,2.98.15,5.99.17,8.98,0,1.2-.1,2.39-.09,3.59,0,.42-.3,1.19.35,1.2.63.01.43-.76.44-1.2.03-3.03,0-6.07.05-9.1.07-4.16-.38-8.22-2-12.09-.04-.1-.03-.21-.04-.32.12.03.26.03.35.1.76.61,1.51,1.22,2.26,1.84,1.01.84,2,1.69,3.03,2.51.33.26.77.73,1.15.3.2-.23.12-.87-.05-1.22-.28-.6-.66-1.18-1.11-1.66-1.46-1.54-3.25-2.64-5.08-3.67-.39-.22-.75-.49-1.13-.74.46-.08.92-.27,1.36-.22,1.9.21,3.57-.44,5.07-1.46.71-.48,1.22-1.3,1.7-2.04.35-.54.12-1.06-.49-1.24-.52-.15-1.11-.23-1.63-.14-1.79.32-3.28,1.22-4.56,2.49-.5.5-1.04.97-1.58,1.43-.09.08-.26.06-.4.09-.02-.14-.08-.29-.04-.42.05-.21.15-.43.25-.62,1.11-2.08,2.21-4.17,3.36-6.23.25-.44.67-.79,1.05-1.15.45-.43.9-.53,1.5-.16.39.24.93.33,1.4.33,1.84,0,3.56-.47,5.08-1.54.98-.69,1.93-1.42,2.86-2.18.23-.19.53-.57.47-.76-.08-.24-.47-.48-.76-.53-1.45-.29-2.9-.29-4.32.2-1.82.62-3.51,1.48-5,2.73-.08.07-.24.06-.36.09.04-.1.06-.21.12-.3.92-1.59,1.82-3.19,2.77-4.76.6-.99,1.26-1.95,1.92-2.9.37-.53.85-1.01,1.59-.81,1.42.39,2.78.23,4.2-.14,1.72-.46,3.38-.97,4.77-2.13.23-.19.5-.32.76-.47.7-.42.84-.81.34-1.44-.26-.33-.67-.61-1.06-.75-1.26-.45-2.53-.32-3.7.29-1.59.84-3.13,1.76-4.69,2.65-.12.07-.26.12-.38.19.06-.15.09-.32.18-.45,1.04-1.65,2.08-3.29,3.14-4.93.24-.37.55-.71.87-1.02.46-.43.92-1.02,1.47-1.12.33-.06.81.66,1.22,1.02.08.07.17.15.25.22.98.82,1.88.91,3,.29.47-.26.96-.51.9-1.16-.06-.62-.44-1.04-1.02-1.21-.75-.22-1.51-.39-2.28-.56-.38-.08-.54-.2-.26-.58.42-.58.87-.87,1.68-.83,1.81.1,3.54-.15,4.37-2.15.36-.87.14-1.31-.77-1.32-1.38-.02-2.54.39-3.5,1.46-1.05,1.17-2.2,2.24-3.32,3.35-.09.09-.25.12-.37.17.02-.1,0-.21.05-.29,1.29-2.45,2.58-4.89,3.87-7.33.39-.74,1.08-.94,1.87-1.03.81-.1,1.69-.16,2.39-.53,3.04-1.61,4.67-4.33,5.55-7.54.19-.7-.41-1.11-1.12-.82ZM110.95,55.5c.1.09.2.17.29.26h0c-.09-.09-.2-.17-.29-.26ZM113.85,42s.01.07.02.11c0-.04-.01-.07-.02-.11-.14.1-.37.16-.41.29.05-.13.27-.2.41-.29ZM134.45,84.29c-.89,1.56-1.86,3.08-2.76,4.63-1.16,1.97-2.29,3.95-3.43,5.93-.07.12-.13.26-.18.36-.08.01-.12.02-.15.03,0-.1-.03-.21,0-.31.35-1.3.71-2.6,1.04-3.9.37-1.45.71-2.91,1.08-4.35.35-1.34.72-2.67,1.09-4,.4-1.44.8-2.88,1.21-4.32.06-.21.18-.4.27-.6.09.23.24.45.26.69.05.52.05,1.05.05,1.57.01,1.07.4,1.96,1.22,2.67.72.62.78.79.3,1.61ZM139.66,76.05c-1.09,1.65-2.18,3.31-3.27,4.95-.12.17-.28.32-.42.48-.04-.2-.08-.4-.08-.41.28-2.86-.37-5.39-1.09-7.91-.1-.36-.16-.83-.02-1.16.64-1.55,1.35-3.08,2.05-4.61.05-.12.19-.21.28-.31.04.13.1.25.11.38.06,1.58.17,3.15,1.11,4.51.31.46.63.92,1.01,1.32.9.94,1.02,1.69.33,2.75Z"/>
</svg>