<?xml version="1.0" encoding="UTF-8"?>
<svg id="Capa_1" data-name="Capa 1" xmlns="http://www.w3.org/2000/svg" viewBox="0 0 232.17 233.04">
  <defs>
    <style>
      .cls-1 {
        fill: #231f20;
      }
    </style>
  </defs>
  <path class="cls-1" d="M120.76,116.35c-1.13.11-2.1.09-3.04.48-.66.27-1.34.49-2.06.54-.64.04-1.23-.09-1.71-.56-.6-.58-.66-1.1-.11-1.73.48-.56.97-1.11,1.64-1.57-2.55-.97-2.03-2.54-.87-3.95-1.23-1.16-1.28-1.51-.36-2.86-3.04-2.13-4.58-5.35-6.24-8.49-1.78-3.35-2.44-7.08-3.62-10.64-.72-2.16-1.31-4.37-2.16-6.47-.96-2.36-1.42-4.83-2.08-7.26-.49-1.83-1.1-3.63-1.44-5.49-.52-2.88-1.07-5.77-.57-8.73.25-1.49.25-3,.54-4.5.34-1.76,1.18-3.3,1.72-4.96,1.28-3.93,3.63-7.27,6.1-10.52.35-.46.68-.92.99-1.39,1-1.52,2.4-2.41,4.2-2.64,1.03-.13,2.02-.49,3.09-.42.39.03.88-.14,1.2-.39.98-.75,2.08-.74,3.22-.66.19.01.39.06.57.01,2.38-.62,4.21.22,5.92,1.89,2.56,2.51,4.53,5.34,5.66,8.76,1.5,4.53,2.34,9.18,2.67,13.94.06.85.5,1.68.48,2.51-.08,3.46.2,6.91-.46,10.38-.41,2.17-.99,4.33-1.09,6.57-.08,1.72-.59,3.42-1.09,5.09-.11.37-.15.74-.2,1.11-.12.99-.22,2.01-.8,2.86-.35.51-.22,1.12-.45,1.63-1.5,3.44-2.49,7.08-4.26,10.41-1.27,2.4-2.7,4.68-4.44,6.77-.64.77-.61.98.06,1.81.3.37.57.78.72,1.23.26.81.28,1.52-.53,2.15-.98.76-.97,1.05-.39,2.18.17.34.44.63.59.97.43.97.54,2.05-.18,2.84-1.21,1.31-1.07,2.8-.82,4.29.43,2.54.56,5.09.47,7.66-.01.33-.12.65-.17.98-.06.47-.21.96-.13,1.41.45,2.87.53,5.78.58,8.66.04,2.16.26,4.33.15,6.52-.09,1.82-.07,3.67.04,5.52.1,1.74.42,3.48.33,5.24-.06,1.16.44,2.22.64,3.34.44,2.43.77,4.88,1.15,7.32.37,2.39.75,4.79,1.16,7.17.7,4.06,1.11,8.16.07,12.3-.55,2.19-1.39,4.12-2.92,5.77-.37.39-.73.73-1.23.94-3,1.24-5.76.49-8.15-1.37-1.18-.92-1.89-2.38-2.24-4.01-.8-3.67-.21-7.27.3-10.88.51-3.61.82-7.23,1.17-10.85.34-3.44.75-6.88,1.44-10.28.14-.7.18-1.41.25-2.12.37-3.63,1.01-7.23,1.33-10.88.35-3.98.31-7.96.42-11.95.07-2.61-.16-5.18-.33-7.77-.04-.58-.07-1.24.1-1.82.24-.83.03-1.59-.08-2.39-.07-.56-.33-.86-.84-1-.28-.07-.56-.13-.82-.25-.4-.19-.44-.48-.08-.77.31-.25.65-.35,1.07-.28.56.1,1.13.16,1.7.21,1.48.12,3.11-.47,4.25-1.61ZM117.38,102.31c-.01.14-.05.27-.04.41.01.14.1.31.26.25.16-.06.1-.23.02-.34-.08-.11-.19-.21-.28-.31.48-1.49.04-3,.11-4.5.13-2.6.06-5.21.09-7.82.02-2.08.36-4.17.29-6.24-.14-4.29.11-8.58-.16-12.87-.17-2.83-.07-5.68-.2-8.51-.12-2.6-.14-5.21-.47-7.8-.13-1.01-.27-2.07.13-3.09.12-.3.17-.67.11-.98-.22-1.11-.3-2.23-.38-3.36-.17-2.55-1.04-4.98-1.73-7.43-.06-.22-.09-.47-.5-.54-.39.63-.92,1.25-1.06,2.03-.32,1.77-.79,3.53-.83,5.35-.01.57,0,1.17-.18,1.7-.49,1.47-.37,2.98-.39,4.48-.03,1.95.31,3.86.61,5.78.35,2.24.54,4.5.86,6.74.44,3.15.51,6.32.87,9.47.15,1.31.43,2.62.02,3.93-.03.08.01.19.03.28.23,1.07.43,2.14.61,3.22.18,1.09-.06,2.16.11,3.28.7,4.69.6,9.46,1.46,14.14.17.93.36,1.84.63,2.74ZM119.65,118.47c-.92.5-1.56.83-2.29.87-.41.02-.64.29-.56.66.23,1.05-.09,2.08-.04,3.12.11,2.37.37,4.72.32,7.1-.02.99-.07,1.98-.07,2.97-.02,2.51.08,5.02-.17,7.53-.18,1.74-.75,3.42-.6,5.2.12,1.37-.1,2.74-.3,4.09-.56,3.84-1.14,7.68-1.71,11.52-.05.33-.12.66-.24.96-.26.68-.2,1.4-.32,2.07-.27,1.41-.04,2.82-.2,4.23-.21,1.92-.85,3.78-.72,5.75.16,2.47-.66,4.85-.84,7.3-.13,1.85-.28,3.7-.09,5.54.33,3.03,1.93,5.05,4.88,6.03,1.53.51,2.88-.16,4.29-.45.2-.04.37-.29.52-.47,1.69-1.91,2.65-4.17,3-6.66.43-3.03.24-6.06-.05-9.09-.08-.79-.57-1.36-.62-2.14-.19-2.98-1.04-5.88-1.18-8.87-.02-.33-.1-.66-.17-.98-.37-1.86-.68-3.73-1.13-5.56-.37-1.49-.47-3.01-.53-4.5-.14-4.02-.08-8.05-.1-12.07,0-1.66-.03-3.31-.22-4.97-.21-1.83-.35-3.69-.35-5.54,0-2.46.32-4.9.13-7.37-.16-2.03-.7-3.99-.65-6.29ZM116.94,106.21c-.2-.59-.29-.9-.42-1.19-1.23-2.69-2.07-5.51-2.98-8.31-1.08-3.34-2.01-6.73-3.01-10.09-.34-1.14-.81-2.25-1.01-3.41-.53-3.08-1.48-6.09-1.53-9.25-.03-1.9-.54-3.75-.49-5.68.03-1.45.01-2.95-.21-4.38-.32-2.12-.3-4.25-.39-6.37-.13-3.27.13-6.51.75-9.77.66-3.46,1.65-6.69,3.73-9.58-1.73.97-3.41,2.01-4.71,3.51-1.17,1.35-2.31,2.74-3.22,4.31-.79,1.36-1.75,2.7-2.17,4.16-.88,3.08-2.15,6.09-2.19,9.36-.02,1.56-.23,3.12.1,4.69.52,2.54.88,5.1,1.64,7.62,1,3.31,1.81,6.68,2.93,9.96,1.14,3.32,2.05,6.71,3.05,10.08,1.21,4.1,3.08,7.86,5.57,11.32,1.07,1.48,2.6,2.31,4.55,3.03ZM117.11,36.4c1.56,1.06,2.75,2.44,4.05,3.67,1,.95,2.01,2.02,2.68,3.3,1.26,2.43,2.06,5.01,2.25,7.73.1,1.42.3,2.84.53,4.21.45,2.72.58,5.46.85,8.18.38,3.74.06,7.49-.28,11.22-.22,2.45-.59,4.9-.88,7.34-.58,4.92-1.92,9.66-3.3,14.38-.59,2.01-1.36,3.96-1.94,5.96-.25.88-.55,1.73-1.07,2.46-.35.49-.46.97-.47,1.55.68.03.91-.42,1.19-.78,1.66-2.09,3.03-4.38,4.21-6.75,1.12-2.24,2.07-4.58,3.02-6.9,1.9-4.63,3.12-9.46,3.88-14.4.3-1.92.32-3.91.81-5.77.9-3.48.7-7.02.48-10.49-.19-3.19-.52-6.43-1.39-9.57-.33-1.18-.65-2.38-.83-3.59-.26-1.77-1.01-3.36-1.71-4.96-1.11-2.52-2.9-4.53-4.77-6.51-1.82-1.92-5.58-1.59-7.15-.63-.07.04-.09.16-.18.34ZM113.36,38.58c-.58,0-.84.24-1.01.5-.81,1.22-1.78,2.36-2.2,3.81-1.11,3.81-2.29,7.57-2.03,11.67.12,1.86.11,3.78-.02,5.68-.04.56-.1,1.12,0,1.7.34,1.81.45,3.68.53,5.5.12,2.98.33,5.94.81,8.88.14.86-.07,1.72.11,2.54.35,1.56.75,3.11,1.26,4.63.33.99.34,2.08.78,3,.76,1.6,1.1,3.32,1.59,4.99.47,1.59,1.26,3.05,1.62,4.66.01.05.15.08.23.12.2-.13.14-.34.14-.51-.09-4.27-.8-8.49-1.17-12.74-.25-2.84-.35-5.69-.63-8.52-.39-4.01-.6-8.04-1.17-12.05-.27-1.93-.87-3.82-.9-5.76-.05-2.78-.28-5.56.19-8.36.54-3.21.43-6.54,1.85-9.74ZM118.53,96.95c.35-.22.45-.48.46-.76.23-3.75.89-7.44,1.27-11.17.37-3.63.79-7.26,1.22-10.88.23-1.93.2-3.88.44-5.81.17-1.35.14-2.74.34-4.1.61-4.07.71-8.16.14-12.22-.42-2.95-.83-5.93-1.81-8.78-.7-2.03-2.06-3.48-3.78-4.65-.14-.1-.33-.22-.52-.06-.17.14-.17.33-.13.52.06.28.17.55.22.83.5,2.66,1.14,5.28,1.36,7.99.22,2.75.17,5.5.29,8.25.18,4.01.49,8.01.38,12.04-.08,3.38.33,6.78.13,10.18-.15,2.54.29,5.06.04,7.63-.27,2.78-.16,5.59-.34,8.39-.05.82-.23,1.76.29,2.63ZM119.56,102.16c.63-.41.75-.88.9-1.32.75-2.2,1.49-4.4,2.22-6.61.4-1.21.8-2.43,1.1-3.67.66-2.77,1.06-5.59,1.49-8.41.34-2.2.82-4.42.86-6.63.06-2.94.46-5.86.36-8.82-.08-2.41-.27-4.8-.58-7.19-.32-2.44-.76-4.88-.95-7.34-.21-2.64-.8-5.15-1.95-7.53-.23-.47-.43-.98-.94-1.43.11,1.38.38,2.57.71,3.74.59,2.06.3,4.26,1.02,6.3.06.16-.02.37-.05.56-.15.98-.26,1.93-.08,2.94.2,1.16.2,2.38,0,3.54-.22,1.31-.23,2.64-.36,3.95-.21,2.12-.22,4.26-.51,6.38-.31,2.33-.66,4.68-.65,7.05,0,.48-.08.94-.15,1.41-.2,1.39-.45,2.81-.5,4.19-.09,2.77-.72,5.45-.99,8.18-.2,1.97-.32,3.95-.69,5.91-.14.73-.08,1.49-.28,2.24-.2.77-.07,1.58.04,2.55ZM120.23,114.83c-1.13-1.26-3.39-1.22-4.49-.03-.25.27-.62.58-.36.97.23.35.68.36,1.04.2,1.19-.55,2.43-.98,3.82-1.14ZM117.76,109.44c.73.4,1.27.66,1.77.98.6.38,1.05.17,1.49-.27.47-.48.14-.84-.12-1.23-.36-.55-.8-.76-1.43-.4-.48.28-.98.53-1.72.92ZM118.69,111.62c-.43-.33-.68-.55-.96-.73-.58-.38-1.24-.48-1.9-.38-.45.07-.8.39-.79.88.01.39.41.54.72.58.93.12,1.88.21,2.93-.35ZM115.3,108.32c.39.31,2.08.1,2.45-.3.23-.25.08-.52-.14-.56-.75-.14-1.5-.16-2.18.28-.21.14-.32.35-.13.59Z"/>
  <path class="cls-1" d="M157.74,98.4c-.39.16-.79.36-1.11.63-1.31,1.11-2.68,2.17-3.84,3.41-1.76,1.87-3.37,3.89-5.05,5.84-.1.12-.27.19-.41.28.03-.18.03-.37.1-.53,1.15-2.77,2.06-5.6,2.8-8.52.61-2.45.71-4.9.83-7.37.04-.75-.15-1.52-.33-2.26-.22-.9-.6-1.04-1.47-.67-.88.37-1.31,1.09-1.48,1.98-.39,2.01-.77,4.03-1.11,6.05-.38,2.18-.27,4.27,1.05,6.18.2.29.1.91-.04,1.31-.81,2.19-1.66,4.37-2.54,6.54-.48,1.19-1.02,2.36-1.57,3.53-.11.23-.35.4-.53.59-.04-.22-.1-.45-.13-.67-.02-.14-.01-.29-.02-.43-.16-2.43-.3-4.86-.49-7.28-.09-1.17-.56-2.22-1.33-3.11-.71-.81-1.52-.78-2.17.04-.76.95-.75,2.49-.02,3.46.54.73,1.26.94,2.12.94.23,0,.6.31.66.54.1.34-.01.74-.04,1.11-.29-.1-.61-.15-.88-.31-.7-.4-1.34-.92-2.07-1.26-.9-.42-1.81.21-1.78,1.15.07,1.91,2.44,3.6,4.27,3,.55-.18.71,0,.75.45.06.9.05,1.81.14,2.71.14,1.34-.21,2.53-.91,3.66-1.3,2.11-2.53,4.27-3.81,6.39-.37.61-.78,1.19-1.2,1.78-.1.15-.28.24-.42.37.01-.2,0-.4.04-.59,1.16-4.78.31-9.16-2.51-13.18-.19-.27-.2-.8-.08-1.14.53-1.58,1.19-3.12,1.71-4.7.73-2.21,1.35-4.46,2.06-6.68.36-1.13.56-2.39,1.21-3.32,1.24-1.74,2.79-3.26,4.14-4.92.71-.88,1.3-1.86,1.88-2.83.18-.3.24-.73.2-1.09-.09-.76-.59-.96-1.19-.49-.38.29-.72.63-1.03.99-1.01,1.14-2,2.3-3,3.45-.09.1-.22.16-.33.24-.03-.08-.09-.17-.07-.24.2-.82.24-1.76.66-2.44.83-1.32,2.03-2.42,2.8-3.76,1.16-2.02,2.1-4.16,3.06-6.29.14-.31-.07-.79-.12-1.19-.38.12-.87.12-1.11.37-.9.92-1.71,1.92-2.56,2.88-.18.2-.41.37-.61.55-.05-.3-.19-.62-.13-.89.09-.41.27-.82.5-1.17.49-.76,1.12-1.44,1.54-2.24.94-1.75,1.83-3.54,2.66-5.35.15-.32-.06-.81-.1-1.21-.41.17-.93.23-1.2.52-.55.59-.92,1.33-1.44,1.96-.28.34-.7.56-1.05.83-.04-.41-.11-.82-.13-1.24-.05-1.24-.03-2.48-.15-3.71-.03-.33-.46-.82-.75-.86-.29-.04-.85.35-.93.65-.54,1.98-1.11,3.99.34,5.88.33.42.29,3.41-.02,3.85-.04.05-.14.06-.21.09-.31-.89-.63-1.78-.94-2.68-.06-.18-.02-.4-.1-.56-.23-.41-.42-.93-.78-1.17-.34-.22-.88-.17-1.33-.12-.15.02-.37.42-.35.64.18,2.62.67,5.11,2.74,7,.28.26.61.72.57,1.05-.17,1.37-.47,2.72-.74,4.08-.03.16-.18.38-.32.41-.11.03-.36-.15-.42-.29-.34-.78-.65-1.58-.94-2.38-.26-.71-.47-1.45-.73-2.16-.22-.59-.71-.74-1.28-.65-.64.1-.7.64-.65,1.1.17,1.66.24,3.35.65,4.95.27,1.05.85,2.22,1.66,2.89.76.64.99,1.13.8,2-.14.65-.21,1.32-.36,1.97-.05.23-.24.43-.37.65-.11-.2-.26-.39-.32-.6-.28-1.01-.52-2.03-.82-3.03-.2-.66-.75-.82-1.38-.76-.63.07-1.13.36-1.19,1.03-.23,2.57.2,4.97,2.23,6.77.51.46.7.86.51,1.47-.66,2.09-1.34,4.17-1.98,6.27-.89,2.89-2.71,5.42-3.16,8.48-.05.31-.29.6-.43.9-1.16,2.51-2.31,5.02-3.5,7.52-.15.32-.39.66-.69.84-1.03.63-1.28,1.61-1.34,2.69-.03.57.1,1.17-.04,1.71-.54,2.07-1.09,4.15-1.77,6.18-.98,2.94-1.94,5.88-2.54,8.93-.48,2.42-1.18,4.8-1.8,7.2l-1.56,1.14c-.01.15-.15.3-.22.45-.13-.12-.29-.23-.38-.37-1.02-1.72-2.06-3.43-3.04-5.18-1.49-2.66-2.75-5.43-4.57-7.92-.91-1.24-1.52-2.76-1.97-4.25-.38-1.25-.42-2.63-.48-3.96-.06-1.25.25-1.44,1.49-1.4.36.01.8-.07,1.07-.28.81-.66,1.68-1.31,2.29-2.13.55-.74.91-1.68,1.17-2.58.26-.88-.38-2.19-1.03-2.5-.75-.37-1.79-.04-2.43.98-.75,1.2-1.36,2.5-2.02,3.76-.15.29-.24.62-.38.92-.05.11-.18.18-.27.27-.05-.08-.13-.16-.14-.24-.06-1.73-.59-3.45.63-5.09,1.11-1.48,2.03-3.12,2.87-4.77.44-.87.62-1.9.77-2.88.1-.68-.21-1.37-.93-1.61-.72-.24-1.03.39-1.27.89-.53,1.11-.99,2.26-1.49,3.39-.09.19-.28.34-.42.51-.02-.18-.05-.37-.05-.55-.03-1.53-.02-3.06-.08-4.58-.04-1.21-.29-2.37-1.22-3.26-1.08-1.03-1.83-.87-2.33.52-.76,2.12.09,4.57,2.04,5.7.49.29.68.58.64,1.12-.09,1.14-.14,2.28-.21,3.42-.01.18-.08.36-.12.54-.15-.17-.34-.31-.43-.51-.51-1.08-.89-2.23-1.51-3.23-.43-.69-1.1-1.31-1.8-1.73-.79-.47-1.5.05-1.32.94.54,2.78,1.58,5.33,4.16,6.88.6.36.9.72.94,1.43.11,2,.34,3.99.46,5.99.05.77-.05,1.54-.09,2.31-.42-.62-.91-1.2-1.25-1.86-1.88-3.59-3.64-7.24-5.59-10.79-1.39-2.52-2.59-5.1-3.43-7.84-.89-2.91-1.66-5.87-2.55-8.78-.88-2.85.39-5.11,1.9-7.3.19-.28.79-.5,1.09-.4.25.08.47.67.46,1.03,0,.95-.28,1.91-.19,2.85.1,1.07.33,2.17.75,3.15.44,1.05,1.51,1.08,2.1.09.37-.63.58-1.39.68-2.12.1-.7.32-.83.9-.53.13.06.27.11.4.17.77.36,1.39.08,1.95-.44.56-.5.72-1.11.45-1.81-.21-.53-.42-1.06-.68-1.57-.25-.49-.12-.67.41-.74.66-.09,1.34-.16,1.94-.41,1.04-.45,1.29-1.39.51-2.19-.6-.62-1.43-1.08-2.24-1.4-.59-.23-.84-.21-.29-.82.53-.59,1.02-1.28,1.31-2.01.16-.4,0-1.05-.25-1.45-.12-.2-.81-.18-1.16-.06-.52.19-.96.57-1.44.86.17-.62.34-1.24.53-1.86.1-.32.31-.62.34-.94.05-.51.08-1.05-.05-1.53-.15-.59-.64-.77-1.07-.3-.6.66-1.09,1.42-1.66,2.11-.21.26-.49.64-.76.66-1.37.09-1.39.04-1.72,1.38-.11.45-.14.68-.69.39-1.14-.59-1.61-.35-1.83.9-.07.4-.02.86.09,1.25.17.59-.1.79-.59.89-.23.05-.47.07-.7.13-1.43.37-1.76,1.48-.75,2.55.45.48,1.29.86,1.35,1.36.07.52-.59,1.13-.93,1.71-.35.6-.68,1.2-1.03,1.8-.18-.69-.36-1.38-.55-2.06-.58-2.16-1.17-4.31-.92-6.61.15-1.36,0-2.75-.01-4.13,0-.24,0-.48.06-.71.04-.15.2-.28.3-.42.04.13.08.27.13.4.22.63.39,1.29.69,1.87.14.28.55.43.83.64.18-.26.46-.49.53-.77.14-.55.15-1.13.23-1.7.02-.19.07-.37.11-.55.2.1.41.18.6.3.12.07.21.2.33.28.6.38,1.12,1.31,1.95.68.77-.58.29-1.41.02-2.11-.25-.66-.61-1.28-.92-1.92.66-.14,1.33-.27,1.99-.41.05,0,.09-.03.14-.04.63-.21,1.08-.55,1.09-1.31,0-.76-.42-1.2-1.05-1.35-.82-.19-1.68-.23-2.52-.32-.31-.03-.63-.02-.94-.02.12-.3.22-.62.36-.91.45-.95.93-1.88,1.36-2.83.25-.56.3-1.25-.29-1.53-.43-.2-1.16-.17-1.57.07-.59.35-.99.99-1.49,1.5-.11.11-.27.18-.41.26-.01-.13,0-.28-.03-.4-.29-1.05-.53-2.11-.9-3.13-.12-.34-.56-.57-.85-.85-.31.32-.77.6-.89.98-.31,1.04-.51,2.12-.68,3.2-.08.51-.15.77-.65.31-.39-.35-.79-.7-1.18-1.04-.55-.47-1.13-.72-1.82-.28-.7.45-.66,1.13-.5,1.79.27,1.09,1.01,1.79,1.97,2.33.48.27.88.68,1.31,1.03-.6.16-1.21.33-1.81.49-.82.22-1.67.36-2.43.72-.34.16-.7.78-.65,1.12.05.36.54.82.93.94.57.17,1.21.07,1.82.09.18,0,.36.03.54.04-.06.2-.1.41-.19.59-.5,1.07-1.07,2.12-1.5,3.22-.12.31.03.92.28,1.12.25.21.85.23,1.16.07.53-.27,1-.7,1.42-1.14.56-.58,1.04-1.24,1.58-1.85.11-.12.31-.17.46-.25.05.17.15.34.15.5,0,2.05-.02,4.09.01,6.14.01,1,.01,2.01.19,2.98.38,2.01.89,4,1.32,6,.1.45.09.92.13,1.38-.37-.28-.75-.54-1.11-.83-2.04-1.67-3.15-4.05-4.74-6.07-1.85-2.37-3.9-4.48-7.02-5.07-.47-.09-1.29-.11-1.41.12-.22.43-.09,1.06-.02,1.6.04.25.29.48.45.71,1.75,2.44,4.17,4.18,6.45,6.04.71.58,1.67,1.1,2.55,1.14,1.14.06,1.72.68,2.35,1.38.32.35.24.55-.26.62-1.28.16-2.54.43-3.82.51-2.69.18-5.26.87-7.79,1.72-.4.14-.82.32-1.12.6-.32.3-.66.73-.69,1.13-.01.21.58.59.95.69,1.85.46,3.71.86,5.58,1.23.41.08.85,0,1.28-.04,2.79-.3,5.22-1.43,7.35-3.25.87-.74,1.19-.65,1.59.43.34.94.64,1.9.89,2.87,1.68,6.56,4.41,12.68,7.75,18.55.92,1.62,1.74,3.28,2.6,4.93.08.15.05.35.07.53-.12-.01-.27.01-.36-.05-2.21-1.48-4.44-2.95-6.61-4.5-.41-.29-.64-.92-.82-1.44-.73-2.22-1.39-4.46-2.13-6.67-.24-.72-.58-1.42-.99-2.06-.55-.86-1.19-.81-1.53.12-.22.6-.36,1.31-.3,1.94.13,1.2.42,2.39.64,3.59-.77-.73-1.57-1.44-2.31-2.21-.24-.25-.4-.64-.44-.99-.16-1.36-.12-2.76-.43-4.08-.3-1.28-.92-2.49-1.46-3.71-.26-.59-.88-.86-1.42-.55-.3.17-.43.76-.49,1.18-.06.36.02.77.14,1.13.37,1.13.79,2.24,1.18,3.36.1.29.14.6.21.9-.27-.17-.55-.33-.81-.52-.15-.11-.26-.3-.42-.39-1.55-.82-3.08-1.68-4.66-2.43-.64-.3-1.36-.21-1.73.53-.34.68-.13,1.37.38,1.84,1.05.96,2.25,1.74,3.74,1.1.98-.42,1.73-.22,2.46.44.42.38.89.72,1.29,1.13.16.16.19.46.28.69-.23.02-.47.08-.68.04-1.11-.25-2.21-.54-3.31-.81-.7-.17-1.2.08-1.56.69-.35.59-.4,1.14.04,1.72.66.87,1.36,1.47,2.62,1.32,1.35-.15,2.65-.31,3.77-1.15.63-.47,1.05-.3,1.56.23,1.05,1.11,2.17,2.15,3.26,3.21.13.13.25.27.38.41-.21,0-.42.03-.62-.02-1.16-.26-2.3-.67-3.47-.77-1.34-.12-1.82.8-1.16,1.95.56.97,1.39,1.64,2.55,1.55,1.13-.09,2.29-.23,3.35-.59,1.14-.39,1.97-.18,2.9.51,2.19,1.61,4.46,3.11,6.67,4.68,1.39.99,2.7,2.02,3.53,3.61.79,1.52,1.77,2.94,2.65,4.41.11.19.15.43.22.64-.23.03-.47.12-.68.07-.97-.23-1.92-.61-2.91-.72-.78-.09-1.11-.48-1.52-1.07-1.03-1.48-2.14-2.91-3.3-4.29-.72-.86-1.73-1.34-2.88-1.39-.26-.01-.64.04-.77.22-.1.14.02.57.18.75.78.89,1.61,1.75,2.42,2.61.8.84,1.6,1.69,2.39,2.53-.9-.2-1.84-.3-2.7-.62-1.24-.47-2.44-1.08-3.63-1.67-1.85-.91-3.68-.92-5.48.07-.33.18-.73.59-.72.89,0,.32.38.77.71.92,1.16.55,2.37,1,3.56,1.48,1.08.44,2.24.42,3.2-.09,1.26-.69,2.47-.48,3.73-.25.65.12,1.29.31,1.94.49.11.03.2.13.29.2-.1.09-.19.19-.29.28-1.17.97-2.36,1.92-3.52,2.9-.76.65-1.5,1.33-2.21,2.03-.18.17-.38.62-.31.69.21.21.52.35.82.4.21.04.46-.11.68-.18,1.55-.46,3.12-.88,4.66-1.38,1.88-.61,3.57-1.58,4.96-3.01,1.2-1.24,1.96-1.17,2.91.31.2.32.38.66.56,1,1.52,2.76,3.05,5.5,4.54,8.27.49.92.86,1.91,1.27,2.87.05.11-.03.27-.05.4-.11-.05-.25-.07-.32-.15-.33-.34-.62-.72-.97-1.05-1.25-1.17-2.43-2.44-3.8-3.44-1.54-1.13-3.26-1.98-5.3-1.76-.74.08-1.58.16-1.77.92-.12.49.2,1.19.52,1.67.66.99,1.45,1.89,2.17,2.84,1,1.32,2.2,2.37,3.81,2.89.86.28,1.72.55,2.58.84.13.04.25.13.37.2-.1.13-.18.3-.31.38-1.13.71-2.32,1.34-3.4,2.11-1.35.96-2.73,1.93-3.89,3.1-1.09,1.1-1.94,2.46-2.86,3.73-.19.26-.21.64-.31.96.35-.01.74.08,1.04-.05,1.14-.48,2.26-1,3.36-1.57.91-.48,1.88-.94,2.64-1.61,1.75-1.55,3.39-3.22,5.08-4.83.12-.11.29-.17.44-.25,0,.14.04.28,0,.41-.41,1.42-.83,2.83-1.25,4.24-1.18,3.93-2.21,7.89-2.32,12.03-.08,3-.18,6-.33,9-.07,1.46.13,2.85.66,4.2.09.24.33.42.49.63.11-.27.31-.54.31-.82.01-.42-.11-.85-.16-1.27-.12-1.13-.36-2.27-.33-3.4.12-3.72.24-7.44.55-11.14.14-1.62.68-3.21,1.06-4.81-.15,2.03-.23,4.07-.49,6.1-.52,4.19-.51,8.37-.06,12.56.07.6.3,1.19.52,1.77.06.16.33.25.5.37.02-.18.08-.37.07-.54-.17-2.61-.63-5.24-.48-7.83.34-5.66.98-11.3,1.5-16.94.07-.8.2-1.6.32-2.39.02-.12.15-.23.23-.34.06.14.17.28.18.42.18,2.9.47,5.81.5,8.71.04,4.67-.07,9.34-.17,14.02-.03,1.71-.2,3.42-.3,5.14-.01.23-.02.48.05.7.05.15.25.34.39.35.14.01.38-.16.42-.29.13-.45.24-.93.26-1.4.08-2.62.11-5.24.19-7.86.07-2.24.31-4.48.26-6.72-.08-3.91-.32-7.81-.48-11.71-.03-.81-.05-1.62-.04-2.43,0-.2.12-.39.19-.59.06.17.14.33.18.51.25,1.26.54,2.52.72,3.79.59,4.1,1.46,8.16,1.32,12.34-.05,1.47.19,2.94.27,4.41.05.8.08,1.61.07,2.42-.02,1.1-.1,2.19-.12,3.28,0,.15.15.3.22.46.16-.09.42-.14.46-.26.12-.4.24-.83.23-1.24-.07-2.57-.31-5.14-.24-7.71.12-4.18-.42-8.27-1.15-12.37-.35-1.97-.61-3.96-.91-5.94,1.95,3.67,2.5,7.72,2.82,11.76.29,3.8.19,7.63.22,11.44.01,1.52-.13,3.05-.11,4.57,0,.54-.38,1.52.45,1.53.8.02.55-.97.55-1.53.04-3.87,0-7.73.06-11.6.09-5.3-.48-10.47-2.55-15.41-.05-.12-.04-.27-.05-.41.15.04.33.04.44.13.97.77,1.93,1.56,2.88,2.34,1.29,1.06,2.55,2.16,3.86,3.19.42.33.98.94,1.47.38.26-.3.15-1.1-.06-1.56-.35-.76-.84-1.51-1.42-2.12-1.85-1.96-4.14-3.36-6.47-4.68-.5-.28-.96-.62-1.44-.94.58-.1,1.18-.34,1.74-.28,2.42.27,4.55-.56,6.46-1.86.9-.61,1.56-1.66,2.17-2.6.45-.69.16-1.35-.63-1.58-.66-.19-1.41-.3-2.08-.18-2.27.41-4.18,1.55-5.81,3.18-.64.64-1.33,1.24-2.01,1.83-.12.1-.34.08-.51.12-.02-.18-.1-.37-.06-.53.07-.27.19-.54.32-.79,1.41-2.65,2.81-5.31,4.28-7.93.31-.56.85-1.01,1.33-1.46.57-.54,1.15-.68,1.92-.2.49.31,1.18.42,1.78.42,2.34,0,4.54-.6,6.47-1.96,1.25-.88,2.46-1.82,3.65-2.77.29-.24.68-.73.6-.96-.1-.31-.6-.61-.97-.68-1.85-.37-3.69-.36-5.5.26-2.32.79-4.48,1.89-6.37,3.47-.11.09-.3.08-.45.12.05-.13.08-.26.15-.38,1.17-2.02,2.32-4.06,3.53-6.06.77-1.26,1.6-2.49,2.45-3.7.48-.68,1.08-1.29,2.02-1.03,1.81.49,3.55.29,5.35-.18,2.19-.58,4.31-1.23,6.08-2.72.29-.24.64-.4.97-.6.9-.54,1.07-1.03.44-1.84-.33-.42-.85-.77-1.36-.95-1.61-.58-3.23-.41-4.72.38-2.02,1.07-3.98,2.25-5.97,3.38-.16.09-.33.16-.49.24.07-.19.12-.4.23-.58,1.32-2.1,2.65-4.2,4-6.28.31-.47.7-.91,1.11-1.3.59-.54,1.18-1.3,1.87-1.43.42-.08,1.03.84,1.56,1.31.11.1.21.19.32.28,1.25,1.05,2.39,1.16,3.82.37.59-.33,1.23-.66,1.15-1.47-.07-.79-.55-1.33-1.3-1.55-.95-.28-1.93-.49-2.9-.71-.48-.11-.68-.25-.33-.74.54-.73,1.11-1.11,2.14-1.05,2.31.13,4.51-.19,5.57-2.74.46-1.11.18-1.67-.99-1.69-1.75-.03-3.23.49-4.45,1.86-1.33,1.49-2.81,2.86-4.23,4.27-.12.11-.31.15-.47.22.02-.12,0-.27.07-.37,1.64-3.12,3.28-6.23,4.94-9.34.5-.95,1.38-1.2,2.38-1.32,1.03-.12,2.15-.21,3.04-.68,3.88-2.05,5.95-5.51,7.07-9.61.25-.9-.53-1.41-1.43-1.05ZM132.19,116.6s0,0,0,0c-.12.62-.25,1.23-.36,1.85.11-.62.24-1.23.36-1.85ZM127.36,141.33c-1.14,1.98-2.36,3.92-3.52,5.89-1.47,2.51-2.92,5.04-4.37,7.55-.09.16-.16.33-.23.46-.1.02-.15.03-.19.03,0-.13-.04-.27,0-.39.44-1.66.9-3.31,1.33-4.97.47-1.85.9-3.7,1.38-5.55.44-1.7.92-3.4,1.39-5.09.51-1.84,1.02-3.67,1.54-5.51.08-.27.23-.51.34-.77.12.29.3.58.33.88.07.66.06,1.33.07,2,.02,1.36.51,2.5,1.55,3.4.92.79.99,1.01.39,2.05ZM134,130.83c-1.38,2.11-2.77,4.21-4.17,6.31-.15.22-.35.4-.53.61-.05-.26-.1-.51-.11-.52.36-3.65-.47-6.86-1.39-10.07-.13-.46-.2-1.05-.03-1.47.82-1.98,1.72-3.92,2.61-5.87.07-.15.24-.26.36-.39.05.16.13.32.14.49.08,2.01.22,4.01,1.41,5.74.4.58.8,1.18,1.29,1.69,1.15,1.2,1.3,2.16.42,3.5ZM157.77,99.64h0c-.11.17-.21.34-.32.51.11-.17.21-.34.32-.51Z"/>
  <g>
    <path class="cls-1" d="M13.71,169.25c-.78.31-1.58-.03-1.95-.73-.47-.94-.85-1.96-1.18-2.89-.34-.87-.7-1.69-1.07-2.55-.39-.91-.95-1.75-1.32-2.67-.41-1.1-1.05-2.36-.4-3.49.48-.86,1.37-1.21,2.24-1.62.25-.11.59-.29.9-.42.43-.22.92-.3,1.39-.5,1.64-.68,3.28-1.42,4.86-2.14,1.37-.62,2.77-1,4.08-1.67,1.25-.58,2.62-1.43,4.07-1.01,1.38.39,1.69,1.72,2.19,2.88.5,1.16,1,2.31,1.42,3.5.37.92.72,1.81,1.11,2.72.32.74.97,1.71.92,2.58-.04,1.13-1.55,1.85-2.32.9-.34-.41-.5-1.09-.72-1.58-.45-1.11-.88-2.2-1.36-3.3-.41-.94-.78-1.88-1.25-2.73-.9-1.64-2.46-1.91-4.09-1.07-.79.37-1.47,1-1.73,1.83-.29.91.09,1.79.45,2.62.31.72.7,1.4.91,2.09.21.73-.33,1.29-.98,1.5-.6.2-1.2.1-1.53-.45-.5-.77-.93-1.62-1.32-2.44-.44-.95-1.15-1.82-2.27-1.93-.71-.05-1.52.33-2.15.7-.93.57-1.3,1.84-1.22,2.85.06,1.12.72,1.98,1.11,2.95.28.73.58,1.42.82,2.13.27.7.64,1.33.96,1.84.33.77.31,1.7-.57,2.08Z"/>
    <path class="cls-1" d="M28.29,192.36c-.66.42-1.52-.03-1.79-.69-.5-1.17.24-2.58.72-3.65.32-.73.57-1.44.81-2.18.24-.78.76-1.43.57-2.3-.42-1.86-2.66-1.2-4.01-1.16-1.23.06-2.45.33-3.7.26-.89-.04-1.98-.54-2.07-1.56-.07-.85.9-1.01,1.52-1.02,1.01-.05,2.1,0,3.14-.06.54-.03,1.07-.12,1.62-.2,1.07-.13,2.23-.13,3.3-.41,1.51-.38,2.35-1.57,3.05-2.84.65-1.19,1.04-2.47,1.52-3.73.23-.55.54-1.04.81-1.58.28-.58.5-1.24.82-1.81.81-1.47,2.42.03,2.19,1.28-.06.42-.25.71-.43,1.07-.19.4-.31.83-.5,1.24-.37.8-.6,1.65-.96,2.48-.55,1.27-.57,3.05,1.19,3.24,1.03.13,2.15-.18,3.18-.21.69-.03,1.38-.17,2.07-.24.91-.08,1.64-.21,2.25.6.4.53.54,1.13-.05,1.54-.43.28-.92.32-1.41.38-.81.12-1.63.28-2.45.38-1.31.15-2.64.13-3.87.39-.91.19-1.97.27-2.76.72-1.03.58-1.36,1.54-1.78,2.57-.53,1.3-1.14,2.58-1.61,3.91-.19.59-.41,1.21-.56,1.81-.15.56-.2,1.39-.77,1.73v.04Z"/>
    <path class="cls-1" d="M66.71,223.72l-.72-.16c-.65-.11-1.23-.2-1.79-.39-.58-.21-1.18-.39-1.72-.67-.55-.25-1.06-.63-1.56-.96-.57-.38-1.18-.71-1.68-1.15-.54-.43-.96-.99-1.45-1.5-.47-.49-.9-1.03-1.34-1.57-.41-.52-.94-.98-1.35-1.54-.42-.56-.74-1.17-1.13-1.72l-1.17-1.71-.66-1.01c-.41-.63-1.14-1-1.87-.92l-.03-.02c-.47.05-1.19.11-1.85.07-.9-.06-2.68-.73-2.71-.75l-.38-.14c-1.38-.63-2.66-1.58-3.51-2.79-1.23-1.78-1.75-3.39-2.01-5.5-.12-1.02.12-2.41.4-3.33.35-1.07.87-2.23,1.41-3.17.59-.94,1.37-1.79,2.17-2.52.83-.82,1.77-1.21,2.7-1.74.37-.22.72-.39,1.12-.44.48-.08.99-.03,1.48-.17.92-.25,1.9-.22,2.87-.05,2.05.38,3.93,1.52,5.5,2.95,1.54,1.38,1.86,3.39,2.37,5.34.13.51.25,1.03.17,1.59,0,.5-.25,1.02-.34,1.54-.27,1.33-.84,2.47-1.58,3.59-.69,1.05-1.29,2.28-2.3,3.05-.24.2-.61.43-.95.67-.6.36-.78,1.18-.38,1.77l.4.59,1.13,1.61,1.1,1.59c.41.52.72,1.09,1.15,1.58.39.51.78,1.05,1.21,1.49.45.51.99.9,1.46,1.33.49.4.98.86,1.5,1.21.57.34,1.14.61,1.76.87.59.25,1.21.4,1.87.55.34.08.7.14,1.03.18.53.07.96.45,1.04.98,0,0-.02.03,0,.04.08.81-.61,1.47-1.38,1.32ZM57.22,199.68c.05-1.44-.49-2.95-1.24-4.16-1.64-2.74-4.99-3.33-7.83-2.62-1.44.38-2.69,1.13-3.49,2.4-.72,1.14-1.5,2.38-1.92,3.66-.02.03,0,.04-.02.09-.28,1.18,1.07,1.64,1.25,1.69.64.17,1.25.4,1.84.64.57.27,1.13.57,1.66.92.51.37.93.87,1.39,1.32.48.42.93.83,1.35,1.33.26.21.46.45.69.7.74.85,2,1,2.86.24.7-.62,1.33-1.35,1.82-2.1.89-1.14,1.59-2.62,1.63-4.1ZM48.76,206.71l-.39-.44c-.46-.45-.95-.85-1.42-1.23-.52-.41-1.05-.8-1.61-1.1l-.03-.02c-.37-.14-.91-.31-.93-.33l-.02.03c-.77-.15-1.32.75-.91,1.38.16.25.37.53.62.8l.53.5c.26.31.84.52,1.21.73l.37.14c.28.12,1.32.4,1.99.52.55.04.88-.57.58-.98ZM77.45,209.28c-.57.81-1.52,2.3-2.13,3.12l-.53.69c-.51.56-1.02,1.38-1.47,1.94s-1.01,1.2-1.54,1.57c-.53.37-1.1.79-1.75.97-.55.18-1.61.16-2.28.08-.84-.09-1.86-.34-2.56-.76-.74-.46-1.85-1.22-2.47-1.81-.96-.89-1.69-2.02-1.97-3.17-.16-.68-.16-1.44-.12-2.05.09-.62.24-1.17.46-1.78.4-1.14,1.21-2.22,1.79-3.14.08-.12.17-.25.26-.33.12-.18,1.05-1.53,1.1-1.61l.33-.5.78-1.18c.35-.53.74-1.06,1.18-1.52,1.02-1.05,2.98.17,2.3,1.52-.26.51-.6.97-.97,1.41-.69.98-1.71,2.43-2.39,3.45-.35.53-.88,1.18-1.16,1.75-.38.79-.88,1.61-.84,2.57.05.47-.06,1.07.19,1.56.3.63.88,1.34,1.51,1.79,1.17.84,2.82,1.4,4.06.99,1.17-.41,1.4-.87,2.17-1.7.33-.39.79-1.13,1.13-1.66l.94-1.43c.2-.3.46-.59.68-.92.55-.78.97-1.63,1.55-2.39.3-.45.71-1.08,1.3-1.05.57.06,1.26.44,1.52.97.21.5.08.81-.2,1.23-.31.48-.53.91-.87,1.37Z"/>
    <path class="cls-1" d="M82,227.99c-.57-.73.42-1.44.39-2.17.1-.35.29-.67.39-1.01.17-.58.54-1.94.72-2.67.17-.57.34-1.15.51-1.73.33-1.12.79-2.24.97-3.41.14-.9.57-1.71.74-2.6.1-.44.27-.92.41-1.38.17-.58.42-1.44.62-2.01.11-.28.23-.56.31-.85.13-.43.23-1,.47-1.39.63-1.07,2.53-.19,2.49.89-.01.68-.35,1.27-.56,1.9-.23.68-.49,1.67-.7,2.36-.33,1.12-.78,2.21-1.11,3.33-.4,1.35-.7,2.7-1.13,4.05-.38,1.2-.77,2.4-1.21,3.59-.2.57-.33,1.12-.44,1.72-.13.65-.18,1.45-.79,1.83-.61.38-1.7.03-2.14-.5l.05.05Z"/>
    <path class="cls-1" d="M111.66,227.62c-.23,2.21-1.64,4.11-3.74,4.95-2.23.85-5.08.43-7.25-.46-1.88-.74-3.45-2.44-3.91-4.42-.29-1.24-.36-4.11,1.69-3.77.95.16.9,1.21.91,1.97,0,.87.12,1.7.59,2.41.98,1.58,3.24,2.24,4.92,2.26,1.84.01,3.94-1.04,3.89-3.18-.04-1.33-1.27-2.3-2.25-3.01-1.26-.94-2.52-1.86-3.79-2.75-1.18-.85-2.48-1.68-3.22-2.96-.87-1.51-.49-3.73.59-5.04,1.32-1.67,3.74-2.35,5.78-2.17,3.26.28,6.64,2.29,6.63,5.82-.02.72-.14,1.67-.98,1.83-1.11.24-1.5-.7-1.64-1.59-.28-1.66-1.18-2.84-2.79-3.34-1.67-.51-5.32-.22-5.16,2.3.09,1.43,1.33,2.28,2.4,3.03,1.26.89,2.5,1.77,3.79,2.69.42.28.72.59,1.14.9.73.56,1.4,1.35,1.83,2.12.41.71.65,1.61.56,2.41Z"/>
    <path class="cls-1" d="M123.3,232.76c-.79-.48-.11-1.5-.4-2.17-.03-.36.04-.72,0-1.08-.04-.6-.18-2-.26-2.75-.05-.6-.09-1.2-.13-1.8-.09-1.17-.06-2.37-.29-3.53-.19-.89-.07-1.8-.23-2.69-.06-.45-.07-.96-.11-1.44-.04-.6-.11-1.5-.13-2.1,0-.3.02-.6,0-.9-.03-.45-.14-1.01-.05-1.47.21-1.22,2.3-1.07,2.64-.05.23.65.13,1.31.15,1.97.02.72.13,1.74.18,2.45.09,1.17.06,2.34.14,3.51.11,1.41.3,2.78.37,4.18.06,1.26.13,2.52.13,3.78.02.6.09,1.17.19,1.76.11.66.35,1.42-.09,1.99-.44.57-1.58.63-2.18.28l.06.03Z"/>
    <path class="cls-1" d="M144.68,220.13c.31,1.16.51,2.35.8,3.51.26,1.08.59,2.42.88,3.49.2.75.48,1.64-.32,2.14-.35.22-.84.35-1.24.24-.6-.15-.71-.77-.85-1.29-.67-2.58-1.51-5.46-2-8.07-.25-1.27-.66-2.43-1.06-3.66-.25-.8-.17-2.01-.76-2.69-.6-.71-1.64-.99-2.53-.96-.77.02-1.44.3-2.17.49-.52.14-1.31.57-1.86.35-1.04-.4-1.13-2.12-.19-2.65.33-.18.73-.17,1.07-.29.35-.09.65-.24,1.01-.3.65-.14,1.3-.26,1.94-.4,2.25-.52,4.49-1.22,6.71-1.85,1.13-.31,2.3-.47,3.42-.8.95-.29,1.85.28,1.88,1.32.05,1.57-2.21,1.35-3.24,1.69-1.32.42-2.54.94-2.85,2.42-.19.92.16,2.07.34,2.98.2,1.44.62,2.88,1.02,4.32Z"/>
    <path class="cls-1" d="M177.69,213.7c.38.75.13,1.58-.52,2.01-.89.56-1.86,1.04-2.75,1.47-.83.43-1.61.87-2.42,1.32-.86.48-1.64,1.12-2.52,1.58-1.05.52-2.24,1.29-3.43.75-.9-.39-1.35-1.24-1.84-2.06-.13-.24-.35-.56-.51-.85-.26-.4-.39-.88-.64-1.33-.84-1.56-1.74-3.11-2.62-4.62-.76-1.29-1.28-2.65-2.08-3.89-.7-1.19-1.69-2.46-1.42-3.95.24-1.41,1.54-1.86,2.64-2.47,1.1-.62,2.2-1.23,3.34-1.77.88-.46,1.73-.9,2.6-1.38.71-.4,1.6-1.14,2.47-1.18,1.12-.08,2,1.36,1.14,2.22-.37.38-1.03.61-1.5.88-1.06.56-2.1,1.11-3.14,1.69-.89.5-1.8.97-2.59,1.52-1.54,1.07-1.65,2.64-.65,4.18.45.74,1.14,1.36,1.99,1.53.94.2,1.77-.27,2.56-.71.68-.38,1.32-.84,1.99-1.12.7-.29,1.31.19,1.6.83.26.58.22,1.18-.29,1.57-.71.57-1.52,1.09-2.29,1.56-.9.54-1.7,1.33-1.69,2.46.02.71.49,1.48.92,2.07.66.87,1.96,1.1,2.96.92,1.11-.17,1.89-.92,2.82-1.41.7-.35,1.35-.72,2.03-1.04.67-.34,1.25-.77,1.73-1.14.73-.41,1.66-.48,2.13.36Z"/>
    <path class="cls-1" d="M196.1,194.09c.58-.21,1.4.02,1.69.61.29.59.21,1.52.11,2.13-.15.95-.43,1.98-.87,2.83-.61,1.2-1.6,1.94-2.49,2.88-.33.35-.58.65-1,.91-.37.22-.76.37-1.15.52-.74.3-1.41.63-2.2.79-1.14.22-2.25.39-3.41.22-3.19-.42-6.1-2.68-7.72-5.35-1.76-2.86-2.04-6.38-.81-9.49.46-1.15.93-2.14,1.78-3.04,1.18-1.24,2.63-2.19,4.29-2.69,1.14-.35,3.01-.75,3.76.51.28.44.29,1.03-.05,1.46-.43.55-1.04.42-1.64.44-1.59.03-2.8.49-4,1.53-1.22,1.07-1.97,2.61-2.21,4.21-.57,3.52,1.87,7.35,4.96,8.87,1.97.96,5.14,1.41,7.01-.02,1.32-1,2.51-2.41,2.82-4.07.19-.99-.2-2.94,1.11-3.28l.02.02Z"/>
    <path class="cls-1" d="M214.8,174.79c.68.49.83,1.35.45,2.03-.53.91-1.18,1.77-1.78,2.57-.54.76-1.04,1.51-1.55,2.28-.55.82-.95,1.75-1.52,2.55-.7.94-1.41,2.16-2.71,2.23-.98.07-1.76-.49-2.58-1-.22-.15-.57-.34-.84-.52-.42-.24-.75-.61-1.17-.89-1.46-1.01-2.97-1.98-4.44-2.92-1.26-.81-2.35-1.78-3.62-2.52-1.16-.74-2.62-1.42-3.06-2.87-.43-1.36.52-2.36,1.22-3.4s1.4-2.1,2.17-3.1c.57-.81,1.13-1.59,1.68-2.41.45-.68.91-1.74,1.66-2.17.96-.58,2.4.3,2.02,1.45-.16.51-.64,1.02-.94,1.46-.69.98-1.36,1.94-2.03,2.94-.56.85-1.16,1.68-1.61,2.53-.88,1.65-.26,3.1,1.33,4.02.74.46,1.63.69,2.47.46.92-.25,1.46-1.05,1.95-1.8.43-.65.79-1.35,1.26-1.9.49-.57,1.25-.43,1.8,0,.49.4.73.96.46,1.53-.37.83-.86,1.67-1.33,2.43-.56.89-.91,1.96-.38,2.95.34.62,1.11,1.1,1.76,1.42.98.47,2.25.09,3.05-.53.91-.66,1.26-1.68,1.87-2.54.46-.63.87-1.26,1.34-1.85.44-.61.77-1.26,1.02-1.81.47-.7,1.26-1.18,2.06-.65Z"/>
    <path class="cls-1" d="M221.24,149.55c2.07.79,3.55,2.64,3.82,4.89.25,2.38-.89,5.02-2.31,6.89-1.2,1.63-3.25,2.71-5.28,2.64-1.27-.03-4.06-.71-3.21-2.6.4-.88,1.4-.56,2.13-.38.84.22,1.68.32,2.49.05,1.78-.54,2.99-2.55,3.45-4.18.48-1.77.01-4.07-2.08-4.58-1.3-.3-2.55.63-3.49,1.4-1.24.97-2.45,1.96-3.63,2.95-1.12.92-2.26,1.97-3.69,2.35-1.68.45-3.73-.49-4.72-1.86-1.28-1.71-1.31-4.22-.61-6.14,1.11-3.08,3.92-5.83,7.33-4.91.69.2,1.58.57,1.52,1.41-.05,1.14-1.06,1.27-1.96,1.18-1.67-.16-3.05.41-3.94,1.84-.92,1.48-1.58,5.08.89,5.57,1.4.28,2.55-.7,3.54-1.54,1.18-1,2.35-1.96,3.57-2.97.38-.34.75-.55,1.17-.87.73-.56,1.67-1,2.52-1.22.79-.21,1.72-.21,2.47.08Z"/>
  </g>
  <path class="cls-1" d="M228.31,130.5c-.1,1.65-.63,3.01-2.61,2.86-1.62-.12-2.38-1.25-2.23-2.77.16-1.64.48-3.38,2.51-3.75,1.35-.25,2.42,1.53,2.33,3.66Z"/>
  <path class="cls-1" d="M8.43,130.5c-.1,1.65-.63,3.01-2.61,2.86-1.62-.12-2.38-1.25-2.23-2.77.16-1.64.48-3.38,2.51-3.75,1.35-.25,2.42,1.53,2.33,3.66Z"/>
  <g>
    <path class="cls-1" d="M5.12,101.1c.56.07,1.16.25,1.65.54.7.41,1.14.9,1.43,1.41.43.73.48,1.48.43,1.94-.04.44-.13,1.5-.16,1.97-.04.38-.07,1.23,1.07,1.81.45.15.89.22,1.35.3.44.08.93.02,1.01.58.07.49-.14.92-.66.88-.61-.04-1.21-.12-1.82-.21-1.34-.22-2.72-.24-4.06-.39-1.26-.14-2.53-.23-3.77-.38-.56-.07-1.11-.07-1.46-.61-.16-.26-.15-.6-.14-.89,0-.38.04-.79.08-1.16.08-.66.16-1.34.26-2.02.11-.76.33-1.64.82-2.26.08-.13.18-.26.26-.35.02-.03.04-.07.08-.1.19-.22.54-.4.78-.56.33-.23.89-.33,1.32-.48.52-.05.99-.11,1.52,0ZM6.62,103.45c-.56-.66-1.33-.87-2.13-.89-.45,0-1.08-.05-1.48.15-.38.2-.72.62-.96.98-.13.3-.29.7-.34.85-.19.53-.21,1.13-.16,1.69.09,1.04.64,1.94,1.73,2.06.55.05,1.11.11,1.71.17,1.5,0,1.92-.75,1.99-1.31.06-.39.12-1.06.14-1.45.04-.79.19-1.45-.5-2.27v.04Z"/>
    <path class="cls-1" d="M14.95,89.7c.17.34.06.94-.22,1.2-.21.18-.53.17-.79.16-.31-.02-.68.06-.99.12-.36.06-.84.15-1.12.4-.55.5-.49,1.35-.72,2-.11.33-.18.66-.23,1-.06.43-.19.78-.11,1.2.11.53.62.78,1,1.04.25.16.52.27.79.42.22.12.54.24.67.48.16.3.02.86-.24,1.09-.42.38-1.09-.31-1.45-.52-.4-.24-.84-.41-1.25-.64-2.29-1.25-4.48-2.62-6.69-4-.48-.3-1.21-.72-1.26-1.36-.02-.3.06-.83.33-1.02.17-.12.38-.14.57-.19.28-.06.54-.15.8-.23,1.09-.33,2.15-.53,3.29-.67,1.19-.14,2.35-.33,3.54-.44.56-.06,1.11-.11,1.66-.15.25-.02.48-.04.72-.07.15-.02.53-.18.68-.15.33,0,.85-.03,1.03.33ZM9.88,91.66c-.23-.24-.59-.2-.88-.16-.24.04-.45.06-.68.08-.2.01-.4.07-.6.1-.62.1-2.08-.01-2.23.88-.07.46.45.85.79,1.07.45.29.96.58,1.45.77.45.19,1.01.62,1.52.45.36-.13.51-.68.61-1.03.16-.56.47-1.67.05-2.16h-.02Z"/>
    <path class="cls-1" d="M15.92,76.81c1.2.42,2.07,1.45,2.26,2.74.18,1.35-.43,2.88-1.21,3.97-.66.95-1.82,1.6-2.98,1.59-.73,0-2.33-.35-1.88-1.44.21-.51.79-.34,1.21-.25.49.12.96.16,1.42-.01,1.01-.34,1.67-1.5,1.91-2.44.25-1.02-.06-2.33-1.25-2.59-.75-.15-1.45.4-1.97.85-.69.57-1.37,1.15-2.03,1.74-.63.54-1.26,1.16-2.07,1.4-.95.28-2.14-.22-2.72-.99-.75-.96-.81-2.39-.44-3.5.59-1.77,2.15-3.39,4.11-2.92.4.1.91.3.89.78-.01.65-.59.74-1.1.7-.96-.06-1.74.28-2.22,1.11-.5.86-.83,2.93.59,3.17.81.14,1.44-.44,2-.93.66-.58,1.32-1.15,2-1.75.21-.2.42-.32.65-.51.41-.33.94-.6,1.42-.74.45-.13.98-.15,1.42,0Z"/>
    <path class="cls-1" d="M18.1,67.45c.61.3,1.2.67,1.81.99.56.3,1.26.66,1.83.94.4.2.88.42.79.95-.04.23-.17.49-.37.62-.29.2-.6,0-.87-.13-1.36-.69-2.91-1.43-4.21-2.2-.64-.37-1.29-.64-1.97-.94-.44-.2-.92-.69-1.44-.69-.53-.01-1.04.33-1.37.72-.28.34-.42.73-.61,1.11-.14.28-.25.78-.56.93-.57.29-1.34-.32-1.21-.92.05-.21.21-.38.28-.57.09-.18.14-.37.25-.54.18-.33.38-.65.56-.99.63-1.16,1.18-2.38,1.75-3.57.3-.6.67-1.16.95-1.77.24-.51.82-.69,1.28-.3.69.57-.26,1.46-.51,2.03-.32.72-.56,1.44-.05,2.14.33.43.95.72,1.41.99.69.46,1.47.82,2.24,1.2Z"/>
    <path class="cls-1" d="M30.48,55.16c.39.28.48.77.26,1.16-.3.52-.67,1.02-1.01,1.47-.31.43-.59.86-.88,1.31-.31.47-.54,1-.86,1.46-.4.54-.8,1.24-1.54,1.28-.56.04-1.01-.28-1.48-.56-.13-.09-.33-.19-.48-.3-.24-.14-.43-.35-.67-.51-.84-.57-1.7-1.12-2.54-1.66-.73-.46-1.35-1.01-2.08-1.43-.67-.42-1.5-.81-1.76-1.63-.25-.78.29-1.35.69-1.95.4-.6.79-1.2,1.23-1.78.33-.46.64-.91.95-1.38.25-.39.51-1,.94-1.25.55-.34,1.37.16,1.16.83-.09.29-.36.58-.53.84-.39.56-.78,1.11-1.15,1.69-.32.49-.66.96-.92,1.45-.5.94-.14,1.78.77,2.3.42.26.93.39,1.41.25.53-.15.83-.6,1.11-1.03.24-.37.45-.77.72-1.09.28-.33.72-.25,1.03,0,.28.23.42.54.27.87-.21.48-.49.95-.76,1.39-.32.51-.51,1.12-.21,1.69.2.36.63.62,1.01.81.56.27,1.29.05,1.74-.31.52-.38.72-.97,1.06-1.46.26-.36.5-.72.76-1.06.25-.35.44-.72.58-1.04.26-.4.72-.68,1.17-.38Z"/>
    <path class="cls-1" d="M41.35,43.01c.09.29,0,.45-.2.67-.2.26-.37.52-.59.76-.39.42-.74.88-1.13,1.29-.25.28-.54.59-.82.86l-.15.17c-.17.24-.42.45-.59.65l-.98,1.06c-.72.74-1.36,1.55-2.02,2.33-.36.44-.84,1.2-1.51,1.15-.48-.03-.9-.54-1.26-.83-.89-.73-1.7-1.58-2.57-2.35-.5-.42-.97-.82-1.43-1.26-.26-.25-.53-.51-.82-.76-.19-.17-.4-.33-.6-.48-.2-.16-.34-.37-.53-.54-.31-.27-.61-.56-.91-.84-.21-.2-.47-.53-.39-.82.07-.28.44-.58.71-.63.25-.05.44.07.63.19,1.19.86,2.21,1.98,3.24,3.02.43.42.9.82,1.39,1.17.38.29.71.67,1.12.93.57.39,1.3.41,1.95.2.88-.3,1.43-.98,2.01-1.64.16-.16.88-1.08,1.04-1.21.48-.42.88-.98,1.3-1.46.15-.17.29-.31.44-.48.36-.41.66-.86,1.04-1.26.2-.23.48-.47.81-.48.34,0,.72.27.83.59ZM31.46,43.52c-.26-.23-.53-.44-.9-.77-.27-.21-.5-.44-.73-.68-.54-.43-1.13-.87-1.25-1.57-.11-.78.49-1.26.95-1.79.45-.52.49-.55.97-1.05.05-.05.57-.62.61-.67.29-.34.6-.82.99-.98.57-.23,1.29.35,1.01.93-.13.27-.43.51-.62.73l-1.04,1.14-.41.51c-.52.75-.98.99-.42,1.55.37.28.61.47,1.08.33.37-.11.76-.68,1.12-1.05.27-.29.53-.63.84-.91.32-.26.71-.11.96.16.24.25.32.55.12.83-.3.42-.61.81-.94,1.18-.38.44-.77.83-.63,1.24.06.14.15.32.29.5.66.35.97.07,1.33-.25.33-.3.58-.68.83-1.03.09-.1.18-.23.27-.34.1-.09.26-.22.36-.33.19-.22.36-.44.55-.66.29-.34.75-.55,1.14-.21.33.31.34.78.09,1.13-.35.45-.76.86-1.15,1.25-.09.1-.18.21-.28.3-.35.4-.61.88-.97,1.27-.44.46-.93,1.08-1.62,1.02-.54-.04-.93-.4-1.31-.72-.15-.11-.33-.25-.46-.36-.12-.08-.68-.64-.77-.74Z"/>
    <path class="cls-1" d="M49.73,34.45c.2.08.54.08.72.44.04.78-.48,1.07-1.08.91-.71-.19-1.72-.47-2.32-.63-.84-.21-1.59-.5-2.32.15-.1.09-.27.21-.36.29-.82.71-.28,1.72.16,2.29.19.24.88.94.96,1.24.1.32,0,.63-.29.82-.19.12-.5.21-.7.08-.11-.07-.17-.2-.24-.27-.16-.18-.34-.34-.51-.51-.43-.42-.81-.91-1.2-1.37-.4-.47-.73-.98-1.12-1.46-.56-.67-1.16-1.34-1.72-2.01-.55-.66-1.16-1.24-1.68-1.89-.18-.23-.34-.47-.5-.73-.2-.37-.13-.75.08-1.11.28-.49.77-.85,1.17-1.22.48-.44,1.61-1.34,2.14-1.72.63-.43,1.36-.77,2.12-.81.95-.03,1.71.51,2.36,1.13.59.58,1.29,1.57,1.51,2.37.38,1.42-.48,2.75.18,3.15.51.3,1.51.49,2.08.65.24.07.3.08.51.17l.02.03ZM45.49,31.37c-.19-1.38-1.44-2.68-2.85-2.69-.54.01-1.04.31-1.45.64-.34.27-1.32,1.03-1.53,1.44-.51.96.38,1.99,1,2.65.37.4,1.01,1.19,1.58,1.33.52.14,1.29-.05,2.05-.7.38-.33.84-.73,1.04-1.21.18-.47.22-1.01.16-1.5v.05Z"/>
    <path class="cls-1" d="M46.98,19.81c-.02-.32.04-.33.03-.66-.02-.24.11-.55.32-.7.17-.12,0,0,.18-.13.18-.13.2-.1.4-.24.19-.14.46.05.42.31,0,.28-.05.31-.1.6-.05.29-.02.04-.07.32,0,.28-.07.31-.11.61-.05.29-.03.08-.07.37-.02.24-.15.59-.36.74-.07.05-.01-.02-.08.04-.21.15-.49.06-.5-.19-.01-.31-.03-.13-.03-.45l-.05-.62ZM54.66,31.98c-.53,0-.5-.7-.84-.93-.12-.17-.2-.37-.32-.53-.2-.28-.69-.92-.95-1.26-.2-.28-.4-.56-.6-.84-.39-.54-.74-1.14-1.2-1.63-.36-.38-.57-.86-.92-1.24-.16-.2-.32-.45-.48-.67-.2-.28-.5-.7-.69-.99-.09-.15-.17-.3-.27-.44-.15-.21-.37-.45-.46-.7-.26-.66.8-1.21,1.27-.81.3.25.46.6.66.92.23.34.58.81.82,1.14.39.54.73,1.13,1.12,1.67.47.66.97,1.26,1.43,1.93.41.59.81,1.19,1.19,1.8.19.29.39.54.62.8.25.28.59.59.55,1s-.58.78-.98.79h.04Z"/>
    <path class="cls-1" d="M67.46,23.85c-.13.35-.66.68-1.04.65-.28-.04-.48-.28-.65-.47-.2-.24-.51-.46-.76-.65-.29-.23-.68-.52-1.06-.55-.74-.07-1.33.56-1.96.83-.31.14-.61.32-.9.5-.35.25-.71.39-.96.74-.32.44-.16.99-.09,1.44.05.29.15.57.23.86.06.24.19.56.1.82-.11.32-.62.6-.96.56-.56-.05-.51-1.01-.59-1.42-.09-.46-.27-.9-.37-1.35-.63-2.54-1.1-5.08-1.59-7.64-.11-.55-.29-1.38.15-1.86.21-.22.65-.52.97-.45.2.04.37.18.53.29.23.16.47.3.71.44.98.58,1.85,1.22,2.72,1.97.91.78,1.84,1.51,2.72,2.31.42.37.83.75,1.23,1.13.18.17.35.33.54.48.11.09.49.27.57.4.22.25.59.61.46.99ZM62.58,21.43c.03-.33-.25-.57-.48-.75-.19-.15-.35-.29-.52-.45-.14-.14-.32-.25-.48-.38-.49-.39-1.4-1.55-2.16-1.04-.38.26-.33.9-.25,1.3.09.53.23,1.1.41,1.59.17.46.22,1.16.69,1.42.34.18.85-.08,1.17-.25.52-.26,1.55-.79,1.63-1.43v-.02Z"/>
    <path class="cls-1" d="M84.95,13.33c.41,1.2.15,2.52-.74,3.47-.95.98-2.53,1.45-3.87,1.52-1.15.07-2.38-.43-3.09-1.34-.45-.57-1.18-2.04-.04-2.36.53-.15.76.41.95.8.21.45.48.85.89,1.11.89.58,2.22.38,3.1-.02.95-.44,1.79-1.49,1.24-2.59-.34-.68-1.21-.89-1.89-1.02-.88-.19-1.75-.36-2.62-.51-.82-.15-1.69-.27-2.38-.75-.81-.57-1.15-1.81-.91-2.75.28-1.19,1.37-2.12,2.47-2.52,1.75-.64,3.99-.42,4.84,1.41.17.38.33.9-.06,1.18-.52.4-.94,0-1.24-.43-.54-.79-1.3-1.18-2.25-1.05-.99.14-2.81,1.17-2.11,2.44.39.72,1.24.86,1.97.99.87.15,1.72.31,2.61.48.29.05.52.13.81.19.51.11,1.05.36,1.46.66.38.27.72.68.87,1.11Z"/>
    <path class="cls-1" d="M98.8,13.31c-.23.29-.84.44-1.18.29-.25-.12-.37-.41-.47-.65-.11-.29-.34-.6-.51-.86-.21-.31-.48-.7-.83-.86-.68-.29-1.43.11-2.12.17-.34.04-.68.11-1.01.2-.41.12-.79.15-1.14.4-.44.32-.46.89-.54,1.34-.04.29-.03.59-.06.89-.02.25,0,.59-.16.81-.21.27-.78.38-1.09.23-.52-.22-.17-1.12-.12-1.54.06-.47.03-.93.07-1.4.2-2.6.55-5.17.9-7.75.07-.56.16-1.4.72-1.71.27-.14.78-.29,1.06-.12.18.1.29.29.41.44.17.23.36.43.54.64.74.86,1.37,1.74,1.96,2.72.62,1.03,1.27,2.01,1.85,3.04.28.48.56.97.82,1.46.12.22.23.42.36.62.08.12.38.41.42.56.13.3.37.76.12,1.08ZM94.94,9.48c.13-.31-.06-.62-.22-.87-.13-.2-.24-.39-.35-.59-.09-.17-.23-.34-.34-.51-.34-.52-.84-1.91-1.72-1.67-.45.13-.59.76-.65,1.15-.08.53-.13,1.12-.11,1.64.02.49-.16,1.17.21,1.57.27.28.83.19,1.19.13.58-.09,1.72-.26,2-.84v-.02Z"/>
    <path class="cls-1" d="M115.95,10.65c.24.23.31.62.16.92-.14.27-.33.29-.61.33-.31.04-.63.11-.94.12l-1.75.07c-.38,0-.77.08-1.16.09l-.96.06c-.43.06-.91.07-1.15.09-.46.01-.94.04-1.41.03-1.03.03-2.05.14-3.08.22-.56.05-1.45.22-1.87-.27-.31-.36-.25-1.02-.29-1.48-.1-1.14-.07-2.32-.14-3.48-.05-.61-.09-1.25-.11-1.88,0-.38,0-.74-.03-1.11-.02-.26-.05-.51-.08-.77-.03-.25.02-.5,0-.76-.02-.41-.03-.82-.04-1.23,0-.29.03-.71.31-.88.25-.14.72-.08.95.08.21.14.26.36.31.58.22,1.45.14,2.96.13,4.43,0,.6.06,1.2.14,1.78.05.5.03,1,.12,1.47.13.68.62,1.22,1.22,1.52.48.23.94.3,1.41.33.19-.01.38,0,.58-.02.26,0,.5-.01.75-.03.55-.03,1.18-.05,1.73-.09.17,0,.67-.04,1.07,0,.26-.02.53-.05.82-.08.22-.03,1.15-.04,1.37-.05.55-.03,1.11-.17,1.66-.2.33-.02.65-.02.89.2ZM115.72,1.64c.02.57.07,1.13.07,1.71v.5c-.05.43,0,.88-.02,1.29,0,.41-.05.9-.17,1.25-.12.35-.23.74-.47,1.04-.19.27-.68.62-1.02.82-.42.25-.95.47-1.41.51-.49.05-1.28.08-1.77.02-.74-.08-1.46-.33-1.99-.76-.31-.26-.57-.6-.76-.9-.17-.32-.29-.62-.4-.97-.21-.66-.2-1.33-.25-1.94,0-.09-.01-.17,0-.24,0-.12-.02-.62-.02-.67,0-.12-.02-.24-.02-.34l-.05-.8c-.02-.36-.03-.74.02-1.1.11-.83,1.42-.94,1.57-.09.05.32.06.65.04.98.02.69,0,1.25.05,1.96.02.36,0,.74.07,1.1.1.49.17,1.04.52,1.46.18.2.35.44.63.58.36.18.84.33,1.29.32.82-.02,1.77-.28,2.2-.89.4-.59.34-.88.41-1.52.02-.29-.02-.69-.05-1.05,0-.14-.02-.39-.03-.53-.01-.21,0-.43,0-.65-.02-.55-.12-1.08-.11-1.63-.02-.31-.04-.74.24-.92.28-.17.72-.23,1.03-.08.27.16.31.34.33.63.02.33.07.6.07.92Z"/>
    <path class="cls-1" d="M130.33,5.08c.18.94,0,1.98-.2,2.91-.13,1.56-.84,2.98-2.25,3.75-.2.12-.42.24-.63.33-.36.14-.63.34-1.02.4-.79.12-1.53.21-2.33.04-.57-.12-1.17-.22-1.77-.27-.44-.04-1.26.08-1.5-.42-.17-.43-.05-1.06,0-1.5.03-.39.07-.8.15-1.21.19-.78.15-1.55.3-2.33.12-.56.17-1.14.23-1.72.07-.6.16-1.23.17-1.83.02-.65,0-1.34.19-2.02.21-.62.63-.89,1.28-.87.36.01.74.05,1.11.1.85.09,1.73.3,2.55.6.6.22,1.06.52,1.53.98.51.46.99.77,1.31,1.39.32.53.71,1.15.83,1.76l.02-.07ZM128.72,7.19c.11-1.09.11-2.28-.55-3.22-.24-.62-1.01-1.14-1.51-1.47-.7-.47-1.65-.69-2.42-.22-.58.35-.96.95-1.17,1.59-.09.28-.15.54-.17.81-.06.44-.14.88-.18,1.33-.07.82-.17,1.64-.28,2.44-.1.78-.1,1.56.45,2.16.54.56,1.45.76,2.2.64.87-.15,1.76-.45,2.46-1.03.86-.74,1.08-1.94,1.19-3.02h-.02Z"/>
    <path class="cls-1" d="M142.32,15.18c-.34.17-.94.06-1.2-.22-.18-.21-.17-.53-.17-.79.01-.31-.07-.68-.12-.99-.06-.37-.16-.84-.41-1.12-.5-.54-1.35-.48-2.01-.7-.33-.1-.66-.18-1-.23-.43-.05-.79-.18-1.21-.1-.53.12-.78.62-1.04,1.01-.16.25-.27.52-.41.79-.12.22-.24.55-.47.67-.3.16-.86.03-1.09-.23-.39-.41.3-1.09.52-1.45.24-.4.41-.84.63-1.25,1.24-2.3,2.6-4.5,3.96-6.72.29-.48.71-1.22,1.35-1.27.3-.02.83.05,1.02.32.12.17.15.38.2.57.06.28.15.54.23.8.33,1.09.55,2.15.69,3.28.15,1.19.35,2.35.47,3.53.06.55.12,1.11.16,1.66.02.25.04.48.08.72.02.15.19.53.15.68,0,.33.03.85-.32,1.04ZM140.34,10.12c.24-.23.19-.59.15-.88-.04-.24-.06-.45-.08-.68-.01-.2-.07-.4-.1-.6-.1-.62,0-2.09-.9-2.22-.46-.06-.85.45-1.06.79-.29.45-.57.97-.76,1.45-.18.45-.61,1.01-.44,1.52.13.36.68.51,1.03.6.56.15,1.67.46,2.16.04v-.02Z"/>
    <path class="cls-1" d="M157.16,16.1c-.11.47-.35.84-.6,1.24-.21.34-.46.62-.81.8-.25.13-.54.34-.84.41-.12.03-.22.01-.34.03-.21.02-.4.06-.62.07-.88.11-1.71,0-2.53-.3-.5-.18-.97-.4-1.45-.59-.9-.38-1.91-.53-2.73-1.09-.32-.22-.57-.55-.48-.95.08-.44.31-.87.44-1.28.26-.84.72-1.62,1.03-2.44.16-.4.38-.81.49-1.23.09-.3.17-.58.27-.85.21-.64.44-1.28.66-1.91.18-.52.4-1.04.61-1.53.2-.46.52-.75,1.02-.78.62-.02,1.3.28,1.89.49.4.14.85.28,1.25.46.39.18.84.35,1.18.62.31.26.5.6.73.91.15.2.31.42.41.66.27.58.29,1.34-.02,1.9-.19.33-.58.61-.66.99-.06.27.15.51.31.71.42.6.95,1.28,1.06,2.03.07.53-.11,1.18-.26,1.67v-.04ZM155.56,15.98c.29-.68.27-1.58-.1-2.24-.42-.73-1.38-1.18-2.13-1.48-.38-.17-.76-.23-1.15-.35-.3-.09-.6-.25-.91-.32-.57-.13-1.47.1-1.74.66-.32.76-.76,1.59-.67,2.44.11.93.86,1.6,1.62,2.01.87.51,2,.84,3.02.74.45-.04,1.03-.14,1.41-.39.35-.26.49-.67.66-1.04v-.02ZM151.08,8.01c-.26.73-.54,1.47.13,2.09.31.26.66.4,1.03.53.43.17.92.38,1.39.45,1.04.15,1.88-.53,1.82-1.63-.06-1.01-1.16-1.72-2.03-1.98-.84-.26-1.97-.46-2.36.55h.02Z"/>
    <path class="cls-1" d="M170.26,26.72c-.26.15-.44.1-.7-.04-.29-.14-.59-.24-.87-.4-.49-.28-1.02-.52-1.51-.8-.33-.18-.71-.39-1.02-.6l-.2-.1c-.27-.11-.54-.3-.76-.42l-1.26-.7c-.88-.53-1.82-.96-2.74-1.43-.51-.25-1.36-.54-1.46-1.2-.08-.47.31-1,.52-1.41.51-1.03,1.14-2.02,1.69-3.05.29-.58.58-1.13.89-1.68.18-.31.38-.63.55-.97.12-.23.22-.46.33-.7.11-.24.28-.42.4-.64.19-.36.4-.72.61-1.08.15-.25.4-.58.71-.57.29,0,.66.29.78.55.11.23.04.45-.04.66-.56,1.35-1.42,2.61-2.19,3.85-.31.51-.58,1.07-.82,1.62-.19.44-.49.85-.65,1.31-.24.65-.1,1.36.25,1.94.5.79,1.29,1.16,2.06,1.57.19.12,1.25.6,1.42.73.52.37,1.16.63,1.72.93.2.1.37.22.57.32.49.26.99.44,1.46.72.27.14.57.36.65.67.08.33-.09.77-.38.94ZM167.49,17.22c.16-.3.3-.61.54-1.05.14-.31.31-.59.49-.86.29-.62.59-1.3,1.24-1.57.74-.29,1.34.18,1.96.51.6.32.65.34,1.24.7.06.03.73.41.8.44.39.21.93.4,1.18.74.36.5-.05,1.33-.67,1.2-.3-.06-.6-.3-.86-.43l-1.35-.75-.59-.27c-.85-.33-1.19-.72-1.6-.05-.19.43-.31.71-.07,1.13.19.34.84.58,1.28.85.34.2.74.37,1.08.61.33.25.27.67.07.97-.19.29-.46.44-.78.3-.48-.19-.93-.41-1.37-.65-.51-.27-.98-.56-1.36-.33-.12.09-.27.22-.42.4-.18.72.16.95.55,1.24.37.25.8.4,1.19.57.12.07.27.12.39.19.11.08.28.21.4.27.26.14.51.25.77.39.39.21.71.61.47,1.06-.22.39-.68.51-1.07.34-.52-.23-1.02-.54-1.48-.82-.12-.06-.24-.13-.36-.21-.47-.25-1-.39-1.46-.65-.54-.33-1.26-.65-1.37-1.34-.09-.53.18-.99.39-1.44.07-.17.16-.38.24-.53.05-.13.46-.8.54-.92Z"/>
    <path class="cls-1" d="M189.64,36.79c-.27.4-.62.66-1,.95-.32.25-.64.42-1.04.47-.28.04-.62.13-.93.09-.12-.01-.21-.07-.33-.09-.2-.06-.4-.09-.61-.15-.86-.2-1.6-.6-2.27-1.16-.41-.34-.77-.71-1.15-1.06-.72-.67-1.6-1.16-2.17-1.98-.22-.32-.34-.71-.12-1.06.23-.39.6-.71.86-1.05.54-.69,1.24-1.26,1.82-1.93.29-.32.64-.63.89-.98.19-.25.36-.48.55-.71.42-.52.86-1.05,1.29-1.56.35-.42.74-.83,1.11-1.22.35-.36.75-.52,1.23-.38.59.2,1.12.72,1.59,1.11.33.28.69.56,1.01.87.31.3.66.62.89.99.2.35.26.73.37,1.11.07.24.14.5.15.75.04.64-.2,1.36-.68,1.78-.29.25-.76.37-.96.69-.15.23-.04.53.04.78.18.71.44,1.53.28,2.28-.13.52-.52,1.07-.83,1.47v-.04ZM188.18,36.13c.51-.53.8-1.39.69-2.13-.13-.83-.88-1.59-1.48-2.13-.29-.29-.63-.48-.95-.73-.25-.19-.48-.45-.74-.62-.49-.32-1.41-.42-1.86,0-.57.6-1.27,1.22-1.48,2.05-.22.91.24,1.79.81,2.45.64.78,1.58,1.48,2.57,1.75.44.12,1.02.23,1.46.13.42-.12.69-.45.98-.74v-.03ZM186.78,27.1c-.5.59-1.02,1.18-.6,2,.2.35.48.6.78.86.34.31.73.68,1.14.91.92.5,1.95.16,2.27-.89.29-.96-.48-2.02-1.21-2.56-.69-.54-1.68-1.12-2.4-.31h.02Z"/>
    <path class="cls-1" d="M203.16,40.85c-.43.1-.85.19-1.26.34-.16.06-.37.06-.54.1-.3.08-.61.15-.9.21-.7.16-1.41.35-2.13.44-.37.04-.72.04-1.1.16-.45.14-.89.36-1.25.68-.59.5-1.23.94-1.81,1.46-.23.21-.45.42-.65.66-.18.21-.42.51-.72.51-.37.01-.87-.38-.91-.75-.03-.35.26-.62.5-.82.22-.19.43-.4.65-.59.26-.22.51-.48.74-.74.28-.33.66-.57.98-.89.28-.28.48-.69.63-1.06.37-.89.65-1.86.89-2.81.14-.55.26-1.16.42-1.71.11-.36.27-.72.38-1.08.08-.26.13-.57.27-.79.14-.25.39-.36.67-.29.42.1.64.39.62.81-.01.29-.12.55-.18.83-.08.34-.16.69-.28,1.01-.21.6-.44,1.14-.55,1.77-.07.4-.23.76-.09,1.16.1.31.35.54.63.68.54.25,1.07.04,1.61-.09.65-.16,1.31-.29,1.95-.42.23-.05.48-.07.72-.11.3-.05.65-.06.92.08s.52.5.41.84c-.09.28-.41.39-.67.44h.06Z"/>
    <path class="cls-1" d="M207.37,63.41c-.17.21-.63.54-.91.42-.38-.15-.59-.68-.79-1.02-.23-.4-.49-.81-.72-1.21-.52-.89-1.12-1.73-1.68-2.59-.32-.47-.91-1.15-.69-1.76.16-.45.76-.72,1.14-.99.97-.65,1.99-1.18,2.97-1.82.54-.34,1.06-.67,1.6-1,.33-.19.67-.36.98-.56.22-.14.43-.29.63-.44s.45-.22.67-.36c.35-.22.7-.43,1.06-.63.25-.14.63-.32.92-.16.25.14.43.58.4.86-.03.24-.19.4-.38.55-1.15.91-2.52,1.56-3.81,2.26-.52.29-1.01.62-1.5.97-.39.28-.84.49-1.21.81-.52.45-.75,1.15-.73,1.82.05,1.01.64,1.77,1.14,2.59.28.47.57.94.85,1.41.16.25.29.55.08.8v.05Z"/>
    <path class="cls-1" d="M212.52,75.78c-.34-.16-.62-.71-.55-1.09.06-.27.31-.45.53-.61.26-.18.5-.47.71-.7.25-.27.57-.63.64-1.01.13-.73-.44-1.37-.66-2.02-.12-.33-.26-.63-.43-.94-.21-.37-.33-.74-.66-1.02-.42-.35-.97-.24-1.43-.21-.29.03-.58.1-.88.15-.25.04-.58.14-.82.03-.31-.14-.55-.67-.48-1.01.09-.56,1.05-.43,1.47-.47.47-.05.92-.19,1.38-.26,2.58-.41,5.16-.67,7.75-.93.56-.06,1.4-.17,1.84.3.2.23.46.69.37,1.01-.06.2-.21.35-.33.5-.18.22-.34.45-.5.67-.66.92-1.38,1.74-2.19,2.55-.85.84-1.66,1.7-2.53,2.51-.41.38-.81.77-1.23,1.14-.19.17-.36.32-.52.5-.1.11-.31.47-.45.54-.26.2-.66.54-1.02.37ZM215.34,71.13c.33.05.59-.2.79-.41.16-.17.32-.33.49-.48.15-.13.27-.3.42-.45.43-.45,1.66-1.26,1.22-2.06-.23-.4-.87-.4-1.27-.36-.53.04-1.12.13-1.62.28-.47.13-1.18.12-1.48.57-.2.33,0,.85.15,1.18.22.54.65,1.61,1.29,1.75h.02Z"/>
    <path class="cls-1" d="M221.03,76.85c.3-.12.63-.17.94-.26.22.02.47-.16.68-.23.29-.1.59-.2.88-.29.34-.11.71-.22,1.07-.26.81-.11,1.26,1.13.5,1.5-.3.14-.62.21-.93.29-.56.15-1.12.34-1.68.49-.26.07-.53.16-.79.24-.29.1-.6.15-.89.26-.51.19-1.09.33-1.56.57-.63.34-1.27.73-1.75,1.27-.25.28-.51.58-.65.94-.17.46-.23.98-.18,1.47.09.91.6,1.74,1.52,1.97.82.2,1.72,0,2.53-.23.56-.15,1.12-.39,1.69-.51.63-.12,1.24-.36,1.84-.54.21-.07.43-.12.64-.19.52-.17,1.01-.41,1.53-.58.29-.1.65-.16.94.01.29.17.49.6.42.93-.06.31-.23.39-.51.48-.3.12-.58.27-.9.35-.54.16-1.07.38-1.61.54-.36.1-.74.16-1.11.24-.4.1-.75.29-1.16.37-.61.13-1.15.36-1.74.54-.49.16-1.05.21-1.57.22-.48.02-.97-.04-1.45-.17-.42-.12-.81-.42-1.13-.69-.42-.35-.81-.76-1.13-1.22-.31-.44-.46-1.04-.49-1.59-.04-.84.12-1.81.5-2.57.09-.21.3-.41.44-.6.15-.21.33-.38.53-.54.4-.33.8-.65,1.23-.92.78-.49,1.65-.69,2.51-1,.28-.09.52-.23.79-.34l.05.04Z"/>
    <path class="cls-1" d="M220.2,98.96c-.16.14-.33.44-.74.41-.7-.35-.7-.95-.26-1.38.51-.52,1.25-1.27,1.69-1.71.59-.63,1.22-1.14,1.02-2.09-.03-.13-.05-.34-.07-.46-.21-1.06-1.36-1.09-2.07-.99-.31.04-1.25.3-1.55.22-.33-.07-.55-.31-.57-.66-.01-.23.07-.54.27-.65.11-.06.25-.05.35-.07.24-.05.46-.13.7-.19.58-.17,1.19-.26,1.78-.38.61-.12,1.21-.16,1.82-.26.86-.16,1.73-.35,2.6-.5.85-.15,1.65-.4,2.47-.53.29-.04.58-.06.88-.07.42,0,.72.26.93.62.29.48.36,1.08.48,1.62.15.63.38,2.06.44,2.71.06.76,0,1.56-.34,2.24-.44.84-1.29,1.24-2.15,1.5-.79.23-2,.35-2.81.14-1.42-.36-2.16-1.77-2.84-1.39-.52.3-1.17,1.08-1.59,1.49-.17.18-.22.22-.4.36h-.03ZM224.97,96.79c1.29.51,3.04.07,3.74-1.15.26-.47.24-1.06.16-1.57-.07-.42-.24-1.65-.5-2.04-.59-.91-1.92-.65-2.8-.44-.54.13-1.53.29-1.94.72-.38.39-.59,1.15-.4,2.13.1.49.22,1.09.55,1.5.32.39.77.69,1.23.87l-.04-.03Z"/>
    <path class="cls-1" d="M220.7,113.27c-.26-.27-.32-.89-.12-1.21.15-.24.46-.31.71-.38.3-.08.64-.25.92-.4.33-.16.76-.39.96-.71.38-.63.08-1.43.12-2.13,0-.35-.02-.69-.06-1.03-.07-.43-.04-.81-.24-1.19-.26-.48-.82-.58-1.26-.72-.28-.08-.58-.11-.87-.18-.25-.05-.59-.08-.78-.27-.24-.24-.27-.82-.08-1.11.29-.49,1.13-.02,1.54.09.46.12.92.15,1.38.26,2.55.55,5.05,1.24,7.56,1.93.54.15,1.37.35,1.6.95.11.28.18.81-.02,1.07-.13.16-.33.25-.49.35-.25.14-.48.29-.71.45-.95.62-1.91,1.13-2.96,1.58-1.1.48-2.16.99-3.27,1.43-.52.21-1.04.42-1.55.61-.23.09-.45.17-.67.27-.13.06-.46.33-.61.34-.32.09-.81.27-1.09-.02ZM225.01,109.95c.29.17.62.02.89-.1.22-.1.42-.19.63-.27.18-.07.37-.18.55-.26.56-.27,2-.58,1.88-1.48-.07-.46-.67-.69-1.06-.8-.51-.15-1.09-.28-1.61-.33-.49-.05-1.14-.31-1.58,0-.31.23-.3.8-.29,1.16,0,.58.03,1.74.57,2.09h.02Z"/>
  </g>
</svg>